<?xml version="1.0" encoding="utf-8"?>
<!-- Generator: Adobe Illustrator 21.1.0, SVG Export Plug-In . SVG Version: 6.00 Build 0)  -->
<svg version="1.1" id="Capa_1" xmlns="http://www.w3.org/2000/svg" xmlns:xlink="http://www.w3.org/1999/xlink" x="0px" y="0px"
	 viewBox="0 0 227 227" style="enable-background:new 0 0 227 227;" xml:space="preserve">
<style type="text/css">
	.st0{fill:#EF9300;}
</style>
<title>iconos</title>
<path class="st0" d="M180.5,227h-134C20.8,227,0,206.2,0,180.5v-134C0,20.8,20.8,0,46.5,0h134C206.2,0,227,20.8,227,46.5v134
	C227,206.2,206.2,227,180.5,227z M46.5,5C23.6,5,5,23.6,5,46.5v134C5,203.4,23.6,222,46.5,222h134c22.9,0,41.5-18.6,41.5-41.5v-134
	C222,23.6,203.4,5,180.5,5H46.5z"/>
<g>
	<path class="st0" d="M93.9,92c-1.6-1.7-3.8-2.7-6.1-2.8c-4.7-0.1-8.5,3.7-8.6,8.3c0,1.5,1.2,2.7,2.7,2.8c0,0,0,0,0,0
		c1.5,0,2.7-1.2,2.7-2.7c0-1.7,1.4-3,3.1-3c0.8,0,1.6,0.4,2.2,1c1,1.1,2.7,1.2,3.8,0.2C94.8,94.8,94.9,93.1,93.9,92L93.9,92z
		 M93.9,92"/>
	<path class="st0" d="M108.3,100.9c-0.8-2-2.5-3.5-4.5-4.2c-4-1.5-8.5,0.6-10,4.6c-0.5,1.4,0.2,3,1.6,3.5c0.3,0.1,0.6,0.2,0.9,0.2
		c1.1,0,2.1-0.7,2.6-1.8c0.4-1.2,1.8-1.8,3-1.4c0.6,0.2,1.1,0.7,1.3,1.3c0.6,1.4,2.2,2,3.6,1.4C108.3,103.9,108.9,102.3,108.3,100.9
		L108.3,100.9z M108.3,100.9"/>
	<path class="st0" d="M125.9,76.8c-1.1-1.1-2.8-1.1-3.9,0l-2.6,2.6c-1.1,1.1-1.1,2.8,0,3.9c0.5,0.5,1.2,0.8,1.9,0.8
		c0.7,0,1.4-0.3,1.9-0.8l2.6-2.6C126.9,79.6,126.9,77.8,125.9,76.8L125.9,76.8z M125.9,76.8"/>
	<path class="st0" d="M108.9,111.9h-3.6c-1.5,0-2.7,1.2-2.7,2.7c0,1.5,1.2,2.7,2.7,2.7h3.6c1.5,0,2.7-1.2,2.7-2.7
		C111.7,113.1,110.4,111.9,108.9,111.9L108.9,111.9z M108.9,111.9"/>
	<path class="st0" d="M136.8,111.9h-3.6c-1.5,0-2.7,1.2-2.7,2.7c0,1.5,1.2,2.7,2.7,2.7h3.6c1.5,0,2.7-1.2,2.7-2.7
		C139.5,113.1,138.3,111.9,136.8,111.9L136.8,111.9z M136.8,111.9"/>
	<path class="st0" d="M207.7,161l-0.7-3.8c-0.5-2.4-2.6-4.2-5.1-4.2c-0.3,0-0.6,0-0.9,0.1l-14.4,2.7l6.5-4.4
		c1.7-1.1,2.6-3.2,2.2-5.2c-0.1-0.6-0.3-1.1-0.6-1.6l-2-3.5c-0.7-1.2-1.8-2.1-3.2-2.5c-0.7-0.2-1.3-0.2-2-0.1
		c0.7-4,1.1-8.1,1.1-12.3c0-1.9-1.1-3.4-2.7-4.2c2.1-4.9,2.2-10.6,0.2-15.8c-0.2-0.4-0.4-0.8-0.7-1.1c-0.3-0.3-0.7-0.6-1.1-0.7
		c-2.5-1-5.1-1.5-7.7-1.5c-0.3,0-0.7,0-1,0c-0.4-7.6-6.7-13.7-14.3-13.7c-1,0-2,0.1-2.9,0.3c0.7-4,0.3-8.1-1.3-12
		c-0.2-0.4-0.4-0.8-0.8-1.2c-0.3-0.3-0.7-0.6-1.1-0.7c-2.7-1.1-5.4-1.6-8.3-1.6c-4.3,0-8.4,1.2-11.9,3.4c-1.3-3.7-3.4-7.3-6.4-10.3
		c-0.9-0.9-2-1.4-3.3-1.4c-1.2,0-2.4,0.5-3.3,1.4l-13.2,13.2c-2.4-2.2-5.6-3.5-9.1-3.5c-0.8,0-1.6,0.1-2.4,0.2
		c-2.8,0.5-5.5,1.9-7.5,3.9c-2.6-1.2-5.5-1.7-8.3-1.2c-0.6,0.1-1.2,0.3-1.8,0.4V70.2c0-7-5.6-12.7-12.6-12.8v-5.8
		c2.1-0.4,3.8-2.2,3.8-4.5V34c0-2.5-2-4.5-4.5-4.5H44.2c-2.5,0-4.5,2-4.5,4.5v13.1c0,2.2,1.6,4.1,3.8,4.5v5.8
		c-7,0.1-12.6,5.8-12.6,12.8v79.5c-5.4,4.9-8.8,11.8-8.8,19.3c0,14.9,13.1,27,29.1,27l109,0c3.7,0,7.2-1.6,9.6-4.5
		c2.3-2.8,3.3-6.4,2.7-9.9l21.8,3.9c0.3,0.1,0.6,0.1,0.9,0.1c1.1,0,2.1-0.3,3-1c1.1-0.8,1.9-2.1,2.1-3.4l0.6-4
		c0.1-0.6,0.1-1.1,0-1.7c-0.4-2-1.9-3.6-3.9-4.1l-7.7-1.8l14.4-2.6c1.4-0.2,2.5-1,3.3-2.1C207.7,163.7,208,162.4,207.7,161
		L207.7,161z M176.6,108.3c1.6,0,3.2,0.3,4.8,0.8c1.4,4.2,0.9,8.8-1.3,12.5h-7.3l2.3-2.3c1.1-1.1,1.1-2.8,0-3.8
		c-1.1-1.1-2.8-1.1-3.8,0l-1.2,1.2c-0.6-1.9-1.6-3.6-2.9-5C169.8,109.5,173.1,108.3,176.6,108.3L176.6,108.3z M161.3,94.7
		c4.9,0,8.9,4,8.9,8.9c0,0.1,0,0.2,0,0.3c-2.9,0.9-5.5,2.5-7.8,4.6c-0.4-0.1-0.7-0.3-1.1-0.4c-0.8-4.3-3.7-7.8-7.5-9.4
		C155.4,96.3,158.1,94.7,161.3,94.7L161.3,94.7z M146.9,79.5c1.8,0,3.7,0.3,5.4,0.9c1.4,4.2,1.1,8.7-0.7,12.6
		c-1.5,1.3-2.7,3-3.5,4.8c-0.5,0-1,0.1-1.5,0.2c-2.1,0.4-4.1,1.3-5.8,2.6c-0.6-1-1.3-2-2.1-2.9l6.2-6.3c1.1-1.1,1.1-2.8,0-3.8
		c-1.1-1.1-2.8-1.1-3.8,0l-6.8,6.8c-1.3-0.6-2.7-1-4.2-1.2c0.6-3.2,2.2-6.3,4.7-8.8C138.1,81.3,142.4,79.5,146.9,79.5L146.9,79.5z
		 M126,121.6h-2.4c-0.4-1-1.4-1.7-2.5-1.7c-1.2,0-2.1,0.7-2.5,1.7h-2.8c0.6-1,0.5-2.4-0.4-3.3c-1.1-1.1-2.8-1.1-3.8,0l-2.6,2.6
		c-0.2,0.2-0.4,0.5-0.5,0.8h-5.5c-2.1-3.2-3.3-6.9-3.5-11h43.2c-0.1,4-1.4,7.8-3.5,11h-5.8c-0.1-0.3-0.3-0.5-0.5-0.8l-2.6-2.6
		c-1.1-1.1-2.8-1.1-3.8,0C125.5,119.1,125.4,120.5,126,121.6L126,121.6z M119.7,105.2c1-3.8,4.5-6.6,8.6-6.6c4.1,0,7.6,2.8,8.6,6.6
		H119.7z M125.3,71.7c2.6,2.8,4.3,6.1,5.1,9.6c-1.4,1.5-2.5,3.2-3.5,5c-0.4-0.3-0.9-0.4-1.4-0.4h-3.6c-1.5,0-2.7,1.2-2.7,2.7
		c0,1.5,1.2,2.7,2.7,2.7h3.2c-0.2,0.8-0.3,1.5-0.4,2.3c-1.1,0.3-2.1,0.7-3.1,1.2c-1.8-3.1-4.8-5.5-8.4-6.4c0,0,0,0,0,0
		c-0.2-1.2-0.6-2.4-1.1-3.5L125.3,71.7z M76.1,96.2c-0.2-0.4-0.3-0.9-0.4-1.4c-0.8-4.5,2.3-8.8,6.8-9.6c0.5-0.1,1-0.1,1.4-0.1
		c1.8,0,3.5,0.6,5,1.7c0.6,0.4,1.4,0.6,2.1,0.5c0.7-0.1,1.4-0.6,1.8-1.2c1.3-1.9,3.2-3.2,5.5-3.6c0.5-0.1,1-0.1,1.4-0.1
		c4,0,7.5,2.9,8.1,6.9c0.1,0.5,0.1,0.9,0.1,1.4c0,1.4,1.1,2.6,2.5,2.7c3,0.3,5.6,2.2,6.8,4.9c-1.6,1.9-2.7,4.3-3.1,6.9H98.6
		c-1.9,0-3.6,1.2-4.3,2.9c-3.4-2.3-7.4-3.6-11.7-3.6c-2.6,0-5.2,0.5-7.7,1.5c-0.4,0.2-0.8,0.4-1.1,0.7c-0.3,0.3-0.6,0.7-0.7,1.1
		c-0.6,1.6-1,3.2-1.3,4.8c-1-1.1-1.7-2.5-1.9-4c-0.6-3.7,1.3-7.4,4.7-8.9C75.9,99,76.5,97.6,76.1,96.2L76.1,96.2z M84.2,120.8
		l0.7,0.7h-6.5c-1.5-3.4-1.7-7.3-0.5-10.9c1.6-0.5,3.2-0.8,4.8-0.8c4.1,0,8,1.6,10.9,4.5c0.4,0.4,0.7,0.8,1.1,1.2
		c0.5,2.1,1.2,4.1,2.1,6h-4.1L88,117c-1.1-1.1-2.8-1.1-3.8,0C83.1,118.1,83.1,119.8,84.2,120.8L84.2,120.8z M72.6,121.6h-9.7
		c0.4-2.6,2-4.9,4.2-6.2c1.3,1.7,3,3.2,5,4.1C72.2,120.2,72.4,120.9,72.6,121.6L72.6,121.6z M45.1,34.9h20.3v11.3H45.1V34.9z
		 M61.7,51.7v5.7H48.9v-5.7H61.7z M36.3,81.2h17.7c1.5,0,2.7-1.2,2.7-2.7c0-1.5-1.2-2.7-2.7-2.7H36.3v-5.6c0-4.1,3.3-7.4,7.4-7.4
		h23.2c4.1,0,7.4,3.3,7.4,7.4v5.6h-5.1c-1.5,0-2.7,1.2-2.7,2.7c0,1.5,1.2,2.7,2.7,2.7h5.1v2.4c-3.1,3.1-4.7,7.5-3.9,12.2
		c0,0,0,0,0,0c-4.4,3-6.7,8.3-5.8,13.7c0.1,0.3,0.1,0.6,0.2,0.9c-1.4,0.8-2.6,1.7-3.6,2.9H36.3V81.2z M36.3,118.7H58
		c-0.3,0.9-0.5,1.9-0.6,2.9h-0.5c-2.5,0-4.5,2-4.5,4.5c0,4.3,0.4,8.6,1.2,12.7c-0.8-0.1-1.6-0.1-2.4-0.1c-3.3,0-6.4,0.5-8.8,1.5
		c-3.7,1.5-4.7,3.5-4.9,4.9c-0.4,0.2-0.8,0.4-1.2,0.6V118.7z M70.7,152.2c1,0.8,1.6,1.4,1.9,1.9c0,0-0.1,0-0.1,0
		c-1.5,0-4.3-0.6-7.5-2.4c-1.2-0.7-2.3-1.4-3.1-2.1c-1-0.9-2.5-0.9-3.5,0c-0.9,0.7-2,1.5-3.1,2.1c-3.1,1.7-5.9,2.4-7.5,2.4
		c0,0-0.1,0-0.1,0c0.3-0.5,0.9-1.1,1.9-1.9c0.9-0.7,1.2-1.8,0.9-2.9c-0.3-1.1-1.2-1.8-2.3-2c-2.7-0.3-4.3-1-5.1-1.5
		c1-0.6,3.5-1.7,8-1.7c3.7,0,6.4,0.8,7.7,1.5c0.8,0.5,1.8,0.5,2.7,0c1.3-0.7,4-1.5,7.7-1.5c4.5,0,7,1,8,1.7
		c-0.8,0.5-2.5,1.2-5.1,1.5c-1.1,0.1-2,0.9-2.3,2C69.5,150.4,69.9,151.5,70.7,152.2L70.7,152.2z M65.3,185.3l0.1,0.5
		c0.3,1.7,1,3.4,2,4.7H51.1c-13.1,0-23.7-9.7-23.7-21.6c0-8.1,5-15.2,12.3-18.9c0.8,0.6,1.9,1.2,3.1,1.6c-0.5,0.8-0.8,1.7-0.9,2.7
		c-0.1,1.3,0.3,2.4,1.1,3.4c1.1,1.2,2.7,1.8,4.9,1.8c2.9,0,6.6-1.1,10.1-3c0.8-0.4,1.5-0.9,2.2-1.4c0.7,0.5,1.5,0.9,2.2,1.4
		c3.4,1.9,7.2,3,10.1,3c2.2,0,3.8-0.6,4.9-1.8c0.8-0.9,1.2-2.1,1.1-3.4c-0.1-0.9-0.4-1.8-0.9-2.7c1.2-0.4,2.3-1,3.1-1.6
		c5.8,2.9,10.1,8,11.7,14l-19.3,7.3C67.5,173.5,64.2,179.4,65.3,185.3L65.3,185.3z M165.5,188c-1.3,1.6-3.3,2.5-5.4,2.5l-2.9,0
		l-1.8-9.6c-0.3-1.5-1.7-2.5-3.2-2.2c-1.5,0.3-2.5,1.7-2.2,3.2l1.6,8.6l-9.4,0l-1.2-6.5c-0.3-1.5-1.7-2.5-3.2-2.2
		c-1.5,0.3-2.5,1.7-2.2,3.2l1,5.5l-21.8,0l-1.6-8.9c-0.3-1.5-1.7-2.5-3.2-2.2c-1.5,0.3-2.5,1.7-2.2,3.2l1.5,7.9l-31.8,0h0
		c-3.4,0-6.3-2.4-6.9-5.7l-0.1-0.5c-0.6-3.3,1.2-6.6,4.4-7.8l10.7-4.1l0.8,4.3c0.2,1.3,1.4,2.2,2.7,2.2c0.2,0,0.3,0,0.5,0
		c1.5-0.3,2.5-1.7,2.2-3.2l-1-5.3l15.9-6c1.4-0.5,2.1-2.1,1.6-3.5c-0.5-1.4-2.1-2.1-3.5-1.6l-7.4,2.8c-2.1-7.3-7.4-13.5-14.5-17
		c-0.2-1.4-1.2-3.5-4.9-4.9c-2.4-0.9-5.5-1.5-8.8-1.5c-2.3,0-4.4,0.2-6.3,0.7v-1.6c0-1.5-1.2-2.7-2.7-2.7c-0.6,0-1.2,0.2-1.7,0.6
		c-0.4-2.8-0.7-5.7-0.7-8.6h88.7c1.5,0,2.7-1.2,2.7-2.7c0-1.5-1.2-2.7-2.7-2.7h-1.1c1.7-3.6,2.7-7.6,2.7-11.8c0-2.4-1.8-4.4-4.2-4.6
		c1-1,2.3-1.6,3.7-1.9c0.4-0.1,0.8-0.1,1.3-0.1c3.5,0,6.5,2.5,7.1,6c0.1,0.4,0.1,0.8,0.1,1.2c0,1.4,1.1,2.6,2.5,2.7
		c3.3,0.3,5.9,2.7,6.5,5.9c0.1,0.9,0.1,1.7,0,2.5h-2.9c-1.5,0-2.7,1.2-2.7,2.7c0,1.5,1.2,2.7,2.7,2.7h21.2c-0.1,5-0.7,9.9-1.9,14.6
		l-14.8,8.7c-0.9-3.1-3-5.8-5.9-7.4c-3.2-1.8-7.1-2.1-10.6-0.8l-30.4,11.5c-1.4,0.5-2.1,2.1-1.6,3.5c0.5,1.4,2.1,2.1,3.5,1.6l4-1.5
		l1.2,6.7c0.2,1.3,1.4,2.2,2.7,2.2c0.2,0,0.3,0,0.5,0c1.5-0.3,2.5-1.7,2.2-3.2l-1.4-7.7l21.2-8.1c2-0.7,4.1-0.6,6,0.4
		c1.8,1,3.1,2.8,3.5,4.8l5.5,29.7C167.4,184.3,166.9,186.4,165.5,188L165.5,188z M175.2,166.7c-1.3,0.2-2.2,1.3-2.2,2.6
		c0,1.3,0.9,2.4,2.1,2.7l20.3,4.6l-0.5,3.4l-23.5-4.2l-3.7-19.8l20.5-12.1l1.7,3l-17.3,11.5c-1.1,0.7-1.5,2.1-1,3.3
		c0.5,1.2,1.7,1.9,3,1.7l27.1-5l0.6,3.3L175.2,166.7z M175.2,166.7"/>
</g>
</svg>
