<svg id="Capa_1" data-name="Capa 1" xmlns="http://www.w3.org/2000/svg" viewBox="0 0 227 227"><defs><style>.cls-1{fill:#84bf04;}</style></defs><title>iconos</title><path class="cls-1" d="M180.5,227H46.5A46.55,46.55,0,0,1,0,180.5V46.5A46.55,46.55,0,0,1,46.5,0h134A46.55,46.55,0,0,1,227,46.5v134A46.55,46.55,0,0,1,180.5,227ZM46.5,5A41.55,41.55,0,0,0,5,46.5v134A41.55,41.55,0,0,0,46.5,222h134A41.55,41.55,0,0,0,222,180.5V46.5A41.55,41.55,0,0,0,180.5,5Z"/><path class="cls-1" d="M164.29,194.24H62.71a6.08,6.08,0,0,1-6.07-6.07V105.32a6.08,6.08,0,0,1,6.07-6.07H164.29a6.08,6.08,0,0,1,6.07,6.07v14.56a2.19,2.19,0,0,1-4.37,0V105.32a1.7,1.7,0,0,0-1.7-1.7H62.71a1.7,1.7,0,0,0-1.7,1.7v82.85a1.7,1.7,0,0,0,1.7,1.7H164.29a1.7,1.7,0,0,0,1.7-1.7v-2.75a2.19,2.19,0,1,1,4.37,0v2.75A6.08,6.08,0,0,1,164.29,194.24Z"/><path class="cls-1" d="M174.17,204.27H52.82a6.57,6.57,0,0,1-6.56-6.56V95.77a6.57,6.57,0,0,1,6.56-6.56H174.17a6.57,6.57,0,0,1,6.56,6.56V197.71A6.57,6.57,0,0,1,174.17,204.27ZM52.82,93.59a2.19,2.19,0,0,0-2.19,2.19V197.71a2.19,2.19,0,0,0,2.19,2.19H174.17a2.19,2.19,0,0,0,2.19-2.19V95.77a2.19,2.19,0,0,0-2.19-2.19Z"/><path class="cls-1" d="M132,88.35a2.19,2.19,0,0,1-.15-4.37,3.72,3.72,0,1,0-3.37-5.75,8.23,8.23,0,0,1-5,3.3,8.1,8.1,0,1,1-2.22-16,2.19,2.19,0,0,1,.3,4.36,3.72,3.72,0,1,0,3.37,5.75,8.1,8.1,0,0,1,13.44,9,8,8,0,0,1-6.24,3.66Z"/><path class="cls-1" d="M143.31,80.61a2.19,2.19,0,0,1-2.17-2c-.49-4.51-3.43-8.93-7.86-11.82s-9.66-3.8-14-2.42a2.19,2.19,0,0,1-2.5-3.28l21.09-32.35a4.33,4.33,0,0,1,1.83-1.6,3.07,3.07,0,0,1,3,.18l22.93,14.94c1.52,1,1.8,3.17.64,5L145.14,79.62A2.19,2.19,0,0,1,143.31,80.61ZM123.46,59.42a23.16,23.16,0,0,1,20.69,13.71l18.1-27.77-21-13.7-18.1,27.77Z"/><path class="cls-1" d="M139.36,59.69a2.19,2.19,0,0,1-1.83-3.38l9.41-14.44a2.19,2.19,0,1,1,3.67,2.39l-9.41,14.44A2.19,2.19,0,0,1,139.36,59.69Z"/><path class="cls-1" d="M174.17,204.27H52.82a6.57,6.57,0,0,1-6.56-6.56V95.77a6.57,6.57,0,0,1,6.56-6.56H174.17a6.57,6.57,0,0,1,6.56,6.56V197.71A6.57,6.57,0,0,1,174.17,204.27ZM52.82,93.59a2.19,2.19,0,0,0-2.19,2.19V197.71a2.19,2.19,0,0,0,2.19,2.19H174.17a2.19,2.19,0,0,0,2.19-2.19V95.77a2.19,2.19,0,0,0-2.19-2.19Z"/><path class="cls-1" d="M168.18,127.54a2.19,2.19,0,0,1-2.19-2.19v-5.47a2.19,2.19,0,1,1,4.37,0v5.47A2.19,2.19,0,0,1,168.18,127.54Z"/><path class="cls-1" d="M168.18,171.21A2.19,2.19,0,0,1,166,169V158.11a2.19,2.19,0,1,1,4.37,0V169A2.19,2.19,0,0,1,168.18,171.21Zm0-21.84a2.19,2.19,0,0,1-2.19-2.19V136.27a2.19,2.19,0,1,1,4.37,0v10.92A2.19,2.19,0,0,1,168.18,149.37Z"/><path class="cls-1" d="M168.18,187.6a2.19,2.19,0,0,1-2.19-2.19v-5.47a2.19,2.19,0,1,1,4.37,0v5.47A2.19,2.19,0,0,1,168.18,187.6Z"/><path class="cls-1" d="M113.5,178.23a2.18,2.18,0,0,1-1.58-.68l-29-30.38a19,19,0,0,1-4-20.09,17.82,17.82,0,0,1,15.47-11.76c.6,0,1.19-.07,1.8-.07a22,22,0,0,1,17.31,8.45,22,22,0,0,1,17.31-8.45c.6,0,1.2,0,1.8.07a17.83,17.83,0,0,1,15.47,11.76,19,19,0,0,1-4,20.09l-29,30.38A2.18,2.18,0,0,1,113.5,178.23ZM96.19,119.63q-.73,0-1.45.06a13.54,13.54,0,0,0-11.73,9,14.69,14.69,0,0,0,3.06,15.52l27.42,28.72,27.42-28.72A14.69,14.69,0,0,0,144,128.64a13.54,13.54,0,0,0-11.73-9c-.48,0-1-.06-1.44-.06a17.6,17.6,0,0,0-15.39,9.09,2.28,2.28,0,0,1-3.83,0A17.6,17.6,0,0,0,96.19,119.63Z"/><path class="cls-1" d="M144.3,93.59H90.22a2.19,2.19,0,0,1-1.83-3.38l42.85-65.74a3.8,3.8,0,0,1,5.27-1.11l35.25,23a3.81,3.81,0,0,1,1.11,5.27l-26.73,41A2.19,2.19,0,0,1,144.3,93.59Zm-50-4.37h48.86l25.77-39.53L134.59,27.33Z"/><path class="cls-1" d="M124.41,93.59H99.67a2.19,2.19,0,0,1-1.83-3.38l10.4-16a2.19,2.19,0,0,1,4,1c.49,4.51,3.43,8.93,7.86,11.82A19.12,19.12,0,0,0,125,89.31a2.19,2.19,0,0,1-.63,4.28Zm-20.7-4.37h12a22.08,22.08,0,0,1-6.47-8.47Z"/><path class="cls-1" d="M135.13,93.59H124.38a2.16,2.16,0,0,1-.64-.1,23.58,23.58,0,0,1-6-2.8c-9.16-6-12.6-17-7.65-24.59a15.07,15.07,0,0,1,11.44-6.59,22.07,22.07,0,0,1,14.15,3.67c9.16,6,12.6,17,7.65,24.59a14.41,14.41,0,0,1-7.46,5.7A2.15,2.15,0,0,1,135.13,93.59Zm-10.41-4.37h10a10,10,0,0,0,4.9-3.84c3.63-5.57.77-13.88-6.37-18.54a17.71,17.71,0,0,0-11.32-3,10.78,10.78,0,0,0-8.21,4.63c-3.63,5.57-.77,13.88,6.37,18.54A19.18,19.18,0,0,0,124.72,89.21Z"/></svg>