<svg id="Capa_1" data-name="Capa 1" xmlns="http://www.w3.org/2000/svg" viewBox="0 0 227 227"><defs><style>.cls-1{fill:#d93b65;}</style></defs><title>iconos</title><path class="cls-1" d="M180.5,227H46.5A46.55,46.55,0,0,1,0,180.5V46.5A46.55,46.55,0,0,1,46.5,0h134A46.55,46.55,0,0,1,227,46.5v134A46.55,46.55,0,0,1,180.5,227ZM46.5,5A41.55,41.55,0,0,0,5,46.5v134A41.55,41.55,0,0,0,46.5,222h134A41.55,41.55,0,0,0,222,180.5V46.5A41.55,41.55,0,0,0,180.5,5Z"/><path class="cls-1" d="M159.55,176.58H53.81a14,14,0,0,1-13.94-13.94V63A14,14,0,0,1,53.81,49H64V54.6H53.81A8.37,8.37,0,0,0,45.45,63v99.67A8.37,8.37,0,0,0,53.81,171H159.55a8.37,8.37,0,0,0,8.36-8.36V63a8.37,8.37,0,0,0-8.36-8.36H149.37V49h10.17A14,14,0,0,1,173.49,63v99.67A14,14,0,0,1,159.55,176.58Z"/><path class="cls-1" d="M173.19,189H67.45a13.85,13.85,0,0,1-9.85-4.09l3.94-3.95a8.31,8.31,0,0,0,5.91,2.46H173.19a8.37,8.37,0,0,0,8.36-8.36V75.37a8.38,8.38,0,0,0-2.88-6.3l3.67-4.2a13.94,13.94,0,0,1,4.79,10.5V175A14,14,0,0,1,173.19,189Z"/><rect class="cls-1" x="79.67" y="49.03" width="54.03" height="5.58"/><rect class="cls-1" x="42.66" y="78.65" width="128.04" height="5.58"/><path class="cls-1" d="M71.83,64.21A2.79,2.79,0,0,1,69,61.42V42.2a2.79,2.79,0,1,1,5.58,0V61.42A2.79,2.79,0,0,1,71.83,64.21Z"/><path class="cls-1" d="M71.83,65.61a4.19,4.19,0,0,1-4.18-4.18V42.2a4.18,4.18,0,1,1,8.36,0V61.42A4.19,4.19,0,0,1,71.83,65.61Zm0-24.8a1.4,1.4,0,0,0-1.39,1.39V61.42a1.39,1.39,0,1,0,2.79,0V42.2A1.4,1.4,0,0,0,71.83,40.81Z"/><path class="cls-1" d="M141.54,64.21a2.79,2.79,0,0,1-2.79-2.79V42.2a2.79,2.79,0,1,1,5.58,0V61.42A2.79,2.79,0,0,1,141.54,64.21Z"/><path class="cls-1" d="M141.54,65.61a4.19,4.19,0,0,1-4.18-4.18V42.2a4.18,4.18,0,1,1,8.36,0V61.42A4.19,4.19,0,0,1,141.54,65.61Zm0-24.8a1.4,1.4,0,0,0-1.39,1.39V61.42a1.39,1.39,0,1,0,2.79,0V42.2A1.4,1.4,0,0,0,141.54,40.81Z"/><path class="cls-1" d="M106.72,159.65h-.16a1.49,1.49,0,0,1-.74-.2c-1.21-.69-29.61-17.09-34.95-29.34-5.51-12.67-1.14-26.83,9.74-31.56,8.73-3.8,19.38-.38,26,8.14,6.65-8.52,17.29-11.94,26-8.14,10.88,4.74,15.25,18.9,9.74,31.56-5.33,12.24-33.74,28.65-34.95,29.34A1.49,1.49,0,0,1,106.72,159.65Zm-.08-3.34.26,0c4.94-2.93,28.35-17.22,32.78-27.41,4.86-11.16,1.18-23.56-8.19-27.64h0c-8-3.48-17.9.22-23.6,8.78a1.55,1.55,0,0,1-2.48,0c-5.7-8.56-15.62-12.26-23.6-8.78-9.38,4.08-13.05,16.48-8.19,27.65,4.44,10.19,27.83,24.47,32.78,27.41C106.47,156.32,106.58,156.35,106.64,156.31Z"/></svg>