<?xml version="1.0" encoding="utf-8"?>
<!-- Generator: Adobe Illustrator 23.0.2, SVG Export Plug-In . SVG Version: 6.00 Build 0)  -->
<svg version="1.1" id="Capa_1" xmlns="http://www.w3.org/2000/svg" xmlns:xlink="http://www.w3.org/1999/xlink" x="0px" y="0px"
	 viewBox="0 0 1366 357" style="enable-background:new 0 0 1366 357;" xml:space="preserve">
<style type="text/css">
	.st0{fill:url(#SVGID_1_);}
	.st1{clip-path:url(#SVGID_3_);}
	.st2{opacity:0.5;}
	.st3{fill:none;stroke:#F0F0F0;stroke-miterlimit:10;}
	.st4{fill:#FFFFFF;}
	.st5{fill:none;}
	.st6{fill:#2E45CE;}
	.st7{fill:#038480;}
	.st8{fill:#FF8868;}
	.st9{fill:#9F5E39;}
	.st10{fill:#063155;}
	.st11{fill:#52CC2F;}
	.st12{fill:#6E8AFF;}
	.st13{fill:#FF4239;}
	.st14{fill:#5DF7FE;}
	.st15{fill:#F9BB30;}
	.st16{fill:#3DA2D0;}
</style>
<title>banner</title>
<radialGradient id="SVGID_1_" cx="1263.47" cy="397" r="933.79" gradientTransform="matrix(1 0 0 -1 0 358)" gradientUnits="userSpaceOnUse">
	<stop  offset="0" style="stop-color:#23D9B7"/>
	<stop  offset="1" style="stop-color:#256ED8"/>
</radialGradient>
<rect class="st0" width="1366" height="357"/>
<g>
	<defs>
		<rect id="SVGID_2_" width="1366" height="357"/>
	</defs>
	<clipPath id="SVGID_3_">
		<use xlink:href="#SVGID_2_"  style="overflow:visible;"/>
	</clipPath>
	<g class="st1">
		<g class="st2">
			<line class="st3" x1="761.2" y1="-792.8" x2="-230.4" y2="198.9"/>
			<line class="st3" x1="768.9" y1="-785.1" x2="-222.7" y2="206.6"/>
			<line class="st3" x1="776.6" y1="-777.4" x2="-215" y2="214.3"/>
			<line class="st3" x1="784.3" y1="-769.7" x2="-207.3" y2="222"/>
			<line class="st3" x1="792" y1="-762" x2="-199.6" y2="229.7"/>
			<line class="st3" x1="799.8" y1="-754.3" x2="-191.9" y2="237.4"/>
			<line class="st3" x1="807.5" y1="-746.5" x2="-184.2" y2="245.1"/>
			<line class="st3" x1="815.2" y1="-738.8" x2="-176.5" y2="252.8"/>
			<line class="st3" x1="822.9" y1="-731.1" x2="-168.8" y2="260.5"/>
			<line class="st3" x1="830.6" y1="-723.4" x2="-161.1" y2="268.2"/>
			<line class="st3" x1="838.3" y1="-715.7" x2="-153.4" y2="275.9"/>
			<line class="st3" x1="846" y1="-708" x2="-145.7" y2="283.6"/>
			<line class="st3" x1="853.7" y1="-700.3" x2="-138" y2="291.3"/>
			<line class="st3" x1="861.4" y1="-692.6" x2="-130.3" y2="299"/>
			<line class="st3" x1="869.1" y1="-684.9" x2="-122.6" y2="306.8"/>
			<line class="st3" x1="876.8" y1="-677.2" x2="-114.9" y2="314.5"/>
			<line class="st3" x1="884.5" y1="-669.5" x2="-107.2" y2="322.1"/>
			<line class="st3" x1="892.2" y1="-661.8" x2="-99.5" y2="329.9"/>
			<line class="st3" x1="899.9" y1="-654.1" x2="-91.8" y2="337.6"/>
			<line class="st3" x1="907.6" y1="-646.4" x2="-84.1" y2="345.3"/>
			<line class="st3" x1="915.3" y1="-638.7" x2="-76.4" y2="353"/>
			<line class="st3" x1="923" y1="-631" x2="-68.7" y2="360.7"/>
			<line class="st3" x1="930.7" y1="-623.3" x2="-61" y2="368.4"/>
			<line class="st3" x1="938.4" y1="-615.6" x2="-53.3" y2="376.1"/>
			<line class="st3" x1="946.1" y1="-607.9" x2="-45.6" y2="383.8"/>
			<line class="st3" x1="953.8" y1="-600.2" x2="-37.8" y2="391.5"/>
			<line class="st3" x1="961.5" y1="-592.5" x2="-30.1" y2="399.2"/>
			<line class="st3" x1="969.2" y1="-584.8" x2="-22.5" y2="406.9"/>
			<line class="st3" x1="976.9" y1="-577.1" x2="-14.7" y2="414.6"/>
			<line class="st3" x1="984.6" y1="-569.4" x2="-7" y2="422.3"/>
			<line class="st3" x1="992.3" y1="-561.7" x2="0.7" y2="430"/>
			<line class="st3" x1="1000" y1="-554" x2="8.4" y2="437.7"/>
			<line class="st3" x1="1007.7" y1="-546.3" x2="16.1" y2="445.4"/>
			<line class="st3" x1="1015.4" y1="-538.6" x2="23.8" y2="453.1"/>
			<line class="st3" x1="1023.1" y1="-530.9" x2="31.5" y2="460.8"/>
			<line class="st3" x1="1030.8" y1="-523.2" x2="39.2" y2="468.5"/>
			<line class="st3" x1="1038.6" y1="-515.5" x2="46.9" y2="476.2"/>
			<line class="st3" x1="1046.3" y1="-507.8" x2="54.6" y2="483.9"/>
			<line class="st3" x1="1053.9" y1="-500" x2="62.3" y2="491.6"/>
			<line class="st3" x1="1061.7" y1="-492.3" x2="70" y2="499.3"/>
			<line class="st3" x1="1069.4" y1="-484.6" x2="77.7" y2="507"/>
			<line class="st3" x1="1077.1" y1="-476.9" x2="85.4" y2="514.7"/>
			<line class="st3" x1="1084.8" y1="-469.2" x2="93.1" y2="522.4"/>
			<line class="st3" x1="1092.5" y1="-461.5" x2="100.8" y2="530.1"/>
			<line class="st3" x1="1100.2" y1="-453.8" x2="108.5" y2="537.8"/>
			<line class="st3" x1="1107.9" y1="-446.1" x2="116.2" y2="545.5"/>
			<line class="st3" x1="1115.6" y1="-438.4" x2="123.9" y2="553.2"/>
			<line class="st3" x1="1123.3" y1="-430.7" x2="131.6" y2="561"/>
			<line class="st3" x1="1131" y1="-423" x2="139.3" y2="568.7"/>
			<line class="st3" x1="1138.7" y1="-415.3" x2="147" y2="576.3"/>
			<line class="st3" x1="1146.4" y1="-407.6" x2="154.7" y2="584.1"/>
			<line class="st3" x1="1154.1" y1="-399.9" x2="162.4" y2="591.8"/>
			<line class="st3" x1="1161.8" y1="-392.2" x2="170.1" y2="599.5"/>
			<line class="st3" x1="1169.5" y1="-384.5" x2="177.8" y2="607.2"/>
			<line class="st3" x1="1177.2" y1="-376.8" x2="185.5" y2="614.9"/>
			<line class="st3" x1="1184.9" y1="-369.1" x2="193.2" y2="622.6"/>
			<line class="st3" x1="1192.6" y1="-361.4" x2="200.9" y2="630.3"/>
			<line class="st3" x1="1200.3" y1="-353.7" x2="208.6" y2="638"/>
			<line class="st3" x1="1208" y1="-346" x2="216.4" y2="645.7"/>
			<line class="st3" x1="1215.7" y1="-338.3" x2="224.1" y2="653.4"/>
			<line class="st3" x1="1223.4" y1="-330.6" x2="231.8" y2="661.1"/>
			<line class="st3" x1="1231.1" y1="-322.9" x2="239.5" y2="668.8"/>
			<line class="st3" x1="1238.8" y1="-315.2" x2="247.2" y2="676.5"/>
			<line class="st3" x1="1246.5" y1="-307.5" x2="254.9" y2="684.2"/>
			<line class="st3" x1="1254.2" y1="-299.8" x2="262.6" y2="691.9"/>
			<line class="st3" x1="1261.9" y1="-292.1" x2="270.3" y2="699.6"/>
			<line class="st3" x1="1269.6" y1="-284.4" x2="278" y2="707.3"/>
			<line class="st3" x1="1277.3" y1="-276.7" x2="285.7" y2="715"/>
			<line class="st3" x1="1285.1" y1="-269" x2="293.4" y2="722.7"/>
			<line class="st3" x1="1292.8" y1="-261.3" x2="301.1" y2="730.4"/>
			<line class="st3" x1="1300.4" y1="-253.6" x2="308.8" y2="738.1"/>
			<line class="st3" x1="1308.2" y1="-245.8" x2="316.5" y2="745.8"/>
			<line class="st3" x1="1315.9" y1="-238.1" x2="324.2" y2="753.5"/>
			<line class="st3" x1="1323.6" y1="-230.4" x2="331.9" y2="761.2"/>
			<line class="st3" x1="1331.3" y1="-222.7" x2="339.6" y2="768.9"/>
			<line class="st3" x1="1339" y1="-215" x2="347.3" y2="776.6"/>
			<line class="st3" x1="1346.7" y1="-207.3" x2="355" y2="784.3"/>
			<line class="st3" x1="1354.4" y1="-199.6" x2="362.7" y2="792"/>
			<line class="st3" x1="1362.1" y1="-191.9" x2="370.4" y2="799.7"/>
			<line class="st3" x1="1369.8" y1="-184.2" x2="378.1" y2="807.5"/>
			<line class="st3" x1="1377.5" y1="-176.5" x2="385.8" y2="815.2"/>
			<line class="st3" x1="1385.2" y1="-168.8" x2="393.5" y2="822.8"/>
			<line class="st3" x1="1392.9" y1="-161.1" x2="401.2" y2="830.6"/>
			<line class="st3" x1="1400.6" y1="-153.4" x2="408.9" y2="838.3"/>
			<line class="st3" x1="1408.3" y1="-145.7" x2="416.6" y2="846"/>
			<line class="st3" x1="1416" y1="-138" x2="424.3" y2="853.7"/>
			<line class="st3" x1="1423.7" y1="-130.3" x2="432" y2="861.4"/>
			<line class="st3" x1="1431.4" y1="-122.6" x2="439.7" y2="869.1"/>
			<line class="st3" x1="1439.1" y1="-114.9" x2="447.4" y2="876.8"/>
			<line class="st3" x1="1446.8" y1="-107.2" x2="455.1" y2="884.5"/>
			<line class="st3" x1="1454.5" y1="-99.5" x2="462.9" y2="892.2"/>
			<line class="st3" x1="1462.2" y1="-91.8" x2="470.5" y2="899.9"/>
			<line class="st3" x1="1469.9" y1="-84.1" x2="478.3" y2="907.6"/>
			<line class="st3" x1="1477.6" y1="-76.4" x2="486" y2="915.3"/>
			<line class="st3" x1="1485.3" y1="-68.7" x2="493.7" y2="923"/>
			<line class="st3" x1="1493" y1="-61" x2="501.4" y2="930.7"/>
			<line class="st3" x1="1500.7" y1="-53.3" x2="509.1" y2="938.4"/>
			<line class="st3" x1="1508.4" y1="-45.6" x2="516.8" y2="946.1"/>
			<line class="st3" x1="1516.1" y1="-37.9" x2="524.5" y2="953.8"/>
			<line class="st3" x1="1523.8" y1="-30.2" x2="532.2" y2="961.5"/>
			<line class="st3" x1="1531.6" y1="-22.5" x2="539.9" y2="969.2"/>
			<line class="st3" x1="1539.3" y1="-14.8" x2="547.6" y2="976.9"/>
			<line class="st3" x1="1546.9" y1="-7.1" x2="555.3" y2="984.6"/>
			<line class="st3" x1="1554.7" y1="0.6" x2="563" y2="992.3"/>
			<line class="st3" x1="1562.4" y1="8.4" x2="570.7" y2="1000"/>
			<line class="st3" x1="1570.1" y1="16.1" x2="578.4" y2="1007.7"/>
			<line class="st3" x1="1577.8" y1="23.8" x2="586.1" y2="1015.4"/>
			<line class="st3" x1="1585.5" y1="31.5" x2="593.8" y2="1023.1"/>
			<line class="st3" x1="1593.2" y1="39.2" x2="601.5" y2="1030.8"/>
			<line class="st3" x1="1600.9" y1="46.9" x2="609.2" y2="1038.5"/>
			<line class="st3" x1="1608.6" y1="54.6" x2="616.9" y2="1046.2"/>
			<line class="st3" x1="1616.3" y1="62.3" x2="624.6" y2="1053.9"/>
			<line class="st3" x1="1624" y1="70" x2="632.3" y2="1061.7"/>
			<line class="st3" x1="1628.3" y1="81" x2="636.6" y2="1072.7"/>
			<line class="st3" x1="1632.6" y1="92.1" x2="641" y2="1083.8"/>
			<line class="st3" x1="1636.9" y1="103.1" x2="645.3" y2="1094.8"/>
			<line class="st3" x1="1641.2" y1="114.2" x2="649.6" y2="1105.8"/>
			<line class="st3" x1="1645.6" y1="125.2" x2="653.9" y2="1116.9"/>
		</g>
	</g>
</g>
<g>
	<path class="st4" d="M767.4,135.6h1.7v5h-1.7V135.6z M770.5,135.6h1.7v5h-1.7V135.6z"/>
	<path class="st4" d="M776.9,135.6h2.1l3.7,9.8l0.7,2l0.7-3.9l1.6-7.8h1.9l-3.1,14.4h-2l-3-7.8l-1.4-3.9l-0.4,1.9l-0.4,2l-1.6,7.8
		h-1.9L776.9,135.6z"/>
	<path class="st4" d="M796.3,147.2c-0.1,0.5-0.2,0.8-0.2,0.9c0,0.4,0.3,0.6,0.7,0.6c0.1,0,0.3,0,0.4,0l-0.3,1.3
		c-0.3,0-0.7,0.1-1,0.1c-1.2,0-1.5-0.8-1.6-1.3h0c-0.1,0.4-1.2,1.5-3.2,1.5c-2.4,0-3.3-1.7-3.3-3c0-2.3,1.6-3.3,3.6-3.5l2.4-0.2
		c1.4-0.1,1.7-0.7,1.7-1.5c0-1.1-0.8-1.5-2.3-1.5c-1.5,0-2.4,0.6-2.5,1.9h-1.7c0.3-2.4,2.3-3.3,4.5-3.3c1.7,0,3.8,0.4,3.8,2.5
		c0,0.5-0.1,1.1-0.3,2L796.3,147.2z M795.1,144.7c-0.5,0.2-1.7,0.3-3,0.4c-1.5,0.1-2.4,0.9-2.4,2c0,1.2,0.8,1.7,1.8,1.7
		C793.8,148.9,794.8,147.2,795.1,144.7z"/>
	<path class="st4" d="M809.2,135.6h1.7l-3,14.4h-1.6l0.4-1.5c0,0.1-1.1,1.8-3.4,1.8c-0.7,0-2-0.2-2.9-1.2c-1-1.1-1-2.3-1-3.1
		c0-3.6,2.3-6.8,5.5-6.8c1.7,0,2.6,1,2.9,1.6c0.1,0.1,0.2,0.3,0.2,0.5L809.2,135.6z M807.4,143.7c0-2.4-1.4-2.9-2.4-2.9
		c-2.6,0-3.8,3.3-3.8,5.3c0,1.5,0.7,2.8,2.5,2.8C805.9,148.9,807.4,146.1,807.4,143.7z"/>
	<path class="st4" d="M819.7,147.2c-0.1,0.5-0.2,0.8-0.2,0.9c0,0.4,0.3,0.6,0.7,0.6c0.1,0,0.3,0,0.4,0l-0.3,1.3
		c-0.3,0-0.7,0.1-1,0.1c-1.2,0-1.5-0.8-1.6-1.3h0c-0.1,0.4-1.2,1.5-3.2,1.5c-2.4,0-3.3-1.7-3.3-3c0-2.3,1.6-3.3,3.6-3.5l2.4-0.2
		c1.4-0.1,1.7-0.7,1.7-1.5c0-1.1-0.8-1.5-2.3-1.5c-1.5,0-2.4,0.6-2.5,1.9h-1.7c0.3-2.4,2.3-3.3,4.5-3.3c1.7,0,3.8,0.4,3.8,2.5
		c0,0.5-0.1,1.1-0.3,2L819.7,147.2z M818.5,144.7c-0.5,0.2-1.7,0.3-3,0.4c-1.5,0.1-2.4,0.9-2.4,2c0,1.2,0.8,1.7,1.8,1.7
		C817.1,148.9,818.1,147.2,818.5,144.7z"/>
	<path class="st4" d="M838.1,135.6h1.7l-3,14.4h-1.6l0.4-1.5c0,0.1-1.1,1.8-3.4,1.8c-0.7,0-2-0.2-2.9-1.2c-1-1.1-1-2.3-1-3.1
		c0-3.6,2.3-6.8,5.5-6.8c1.7,0,2.6,1,2.9,1.6c0.1,0.1,0.2,0.3,0.2,0.5L838.1,135.6z M836.3,143.7c0-2.4-1.4-2.9-2.4-2.9
		c-2.6,0-3.8,3.3-3.8,5.3c0,1.5,0.7,2.8,2.5,2.8C834.8,148.9,836.3,146.1,836.3,143.7z"/>
	<path class="st4" d="M842.1,145.3c-0.1,0.2-0.1,0.4-0.1,0.7c0,1.7,0.8,2.8,2.5,2.8c1.5,0,2.4-0.9,3-2.1h1.7
		c-0.8,2.4-2.4,3.7-4.9,3.7c-2.5,0-4-1.8-4-4.5c0-3.4,2-6.6,5.4-6.6c3.6,0,4,3,4,4.3c0,0.9,0,1.3-0.1,1.7H842.1z M848.1,143.9v-0.5
		c0-2-1.2-2.7-2.4-2.7c-1.8,0-2.9,1.5-3.3,3.2H848.1z"/>
	<path class="st4" d="M859.4,135.6h1.8l-3.1,14.4h-1.7L859.4,135.6z"/>
	<path class="st4" d="M867.1,139.2c2.6,0,4,1.9,4,4.4c0,1.9-1.2,6.7-5.7,6.7c-2,0-4.1-1.1-4.1-4.3
		C861.3,142.5,863.3,139.2,867.1,139.2z M865.5,148.9c2.8,0,3.8-3.5,3.8-5.3c0-2.1-1.2-2.9-2.4-2.9c-2.6,0-3.8,3.1-3.8,5.4
		C863.1,147.6,863.9,148.9,865.5,148.9z"/>
	<path class="st4" d="M887.4,139.5h1.7l-3.2,14.6h-1.8l1.2-5.3c-0.5,0.7-1.6,1.5-3.2,1.5c-2.6,0-3.9-1.8-3.9-4.2c0-3,2-6.8,5.6-6.8
		c2.5,0,3.2,2,3.2,2.1L887.4,139.5z M880,145.9c0,2,1.1,3,2.5,3c2.7,0,3.7-3,3.7-5c0-1.6-0.5-3.1-2.4-3.1
		C881,140.8,880,144.3,880,145.9z"/>
	<path class="st4" d="M898,150h-1.7l0.3-1.7c-1.1,1.2-2.2,1.9-3.7,1.9c-1.1,0-2.7-0.6-2.7-2.3c0-0.4,0.1-1.2,0.3-1.9l1.4-6.4h1.8
		l-1.4,6.4c-0.1,0.6-0.2,1-0.2,1.3c0,0.9,0.4,1.4,1.6,1.4c1.7,0,3.2-1.7,3.6-3.4l1.2-5.7h1.7L898,150z"/>
	<path class="st4" d="M903.2,145.3c-0.1,0.2-0.1,0.4-0.1,0.7c0,1.7,0.8,2.8,2.5,2.8c1.5,0,2.4-0.9,3-2.1h1.7
		c-0.8,2.4-2.4,3.7-4.9,3.7c-2.5,0-4-1.8-4-4.5c0-3.4,2-6.6,5.4-6.6c3.6,0,4,3,4,4.3c0,0.9,0,1.3-0.1,1.7H903.2z M909.2,143.9v-0.5
		c0-2-1.2-2.7-2.4-2.7c-1.8,0-2.9,1.5-3.3,3.2H909.2z"/>
	<path class="st4" d="M923.8,139.2c2.6,0,4,1.9,4,4.4c0,1.9-1.2,6.7-5.7,6.7c-2,0-4.1-1.1-4.1-4.3C918,142.5,920,139.2,923.8,139.2z
		 M922.2,148.9c2.8,0,3.8-3.5,3.8-5.3c0-2.1-1.2-2.9-2.4-2.9c-2.6,0-3.8,3.1-3.8,5.4C919.8,147.6,920.6,148.9,922.2,148.9z"/>
	<path class="st4" d="M938.3,146.1c-0.6,2.3-2.4,4.2-5.1,4.2c-2,0-4.1-1.1-4.1-4.3c0-3.5,2-6.8,5.8-6.8c2.3,0,3.9,1.2,4,3.8h-1.8
		c0-1.3-0.9-2.3-2.4-2.3c-2.6,0-3.8,3.1-3.8,5.2c0,1.4,0.8,2.7,2.4,2.7c1.7,0,2.7-1.3,3.1-2.6H938.3z"/>
	<path class="st4" d="M948,150h-1.7l0.3-1.7c-1.1,1.2-2.2,1.9-3.7,1.9c-1.1,0-2.7-0.6-2.7-2.3c0-0.4,0.1-1.2,0.3-1.9l1.4-6.4h1.8
		l-1.4,6.4c-0.1,0.6-0.2,1-0.2,1.3c0,0.9,0.4,1.4,1.6,1.4c1.7,0,3.2-1.7,3.6-3.4l1.2-5.7h1.7L948,150z"/>
	<path class="st4" d="M953.2,139.5h1.6l-0.4,2.1c0,0,0.7-0.9,0.8-1.1c0.4-0.5,1.2-1.2,2.4-1.2l0.5,0l-0.4,1.9c-0.2,0-0.4,0-0.6,0
		c-2,0-3.1,2.2-3.3,3.4l-1.1,5.3H951L953.2,139.5z"/>
	<path class="st4" d="M959.6,139.5h1.6l-0.4,2.1c0,0,0.7-0.9,0.8-1.1c0.4-0.5,1.2-1.2,2.4-1.2l0.5,0l-0.4,1.9c-0.2,0-0.4,0-0.6,0
		c-2,0-3.1,2.2-3.3,3.4l-1.1,5.3h-1.7L959.6,139.5z"/>
	<path class="st4" d="M972.4,147.2c-0.1,0.5-0.2,0.8-0.2,0.9c0,0.4,0.3,0.6,0.7,0.6c0.1,0,0.3,0,0.4,0l-0.3,1.3
		c-0.3,0-0.7,0.1-1,0.1c-1.2,0-1.5-0.8-1.6-1.3h0c-0.1,0.4-1.2,1.5-3.2,1.5c-2.4,0-3.3-1.7-3.3-3c0-2.3,1.6-3.3,3.6-3.5l2.4-0.2
		c1.4-0.1,1.7-0.7,1.7-1.5c0-1.1-0.8-1.5-2.3-1.5c-1.5,0-2.4,0.6-2.5,1.9h-1.7c0.3-2.4,2.3-3.3,4.5-3.3c1.7,0,3.8,0.4,3.8,2.5
		c0,0.5-0.1,1.1-0.3,2L972.4,147.2z M971.2,144.7c-0.5,0.2-1.7,0.3-3,0.4c-1.5,0.1-2.4,0.9-2.4,2c0,1.2,0.8,1.7,1.8,1.7
		C969.8,148.9,970.8,147.2,971.2,144.7z"/>
	<path class="st4" d="M989,147.2c-0.1,0.5-0.2,0.8-0.2,0.9c0,0.4,0.3,0.6,0.7,0.6c0.1,0,0.3,0,0.4,0l-0.3,1.3c-0.3,0-0.7,0.1-1,0.1
		c-1.2,0-1.5-0.8-1.6-1.3h0c-0.1,0.4-1.2,1.5-3.2,1.5c-2.4,0-3.3-1.7-3.3-3c0-2.3,1.6-3.3,3.6-3.5l2.4-0.2c1.4-0.1,1.7-0.7,1.7-1.5
		c0-1.1-0.8-1.5-2.3-1.5s-2.4,0.6-2.5,1.9h-1.7c0.3-2.4,2.3-3.3,4.5-3.3c1.7,0,3.8,0.4,3.8,2.5c0,0.5-0.1,1.1-0.3,2L989,147.2z
		 M987.9,144.7c-0.5,0.2-1.7,0.3-3,0.4c-1.5,0.1-2.4,0.9-2.4,2c0,1.2,0.8,1.7,1.8,1.7C986.5,148.9,987.5,147.2,987.9,144.7z"/>
	<path class="st4" d="M999.9,135.6h1.8l-3.1,14.4h-1.7L999.9,135.6z"/>
	<path class="st4" d="M1007.6,139.2c2.6,0,4,1.9,4,4.4c0,1.9-1.2,6.7-5.7,6.7c-2,0-4.1-1.1-4.1-4.3
		C1001.8,142.5,1003.8,139.2,1007.6,139.2z M1006,148.9c2.8,0,3.8-3.5,3.8-5.3c0-2.1-1.2-2.9-2.4-2.9c-2.6,0-3.8,3.1-3.8,5.4
		C1003.6,147.6,1004.3,148.9,1006,148.9z"/>
	<path class="st4" d="M1019.9,142.9c0-1.5-0.9-2.2-2.2-2.2c-0.9,0-2.1,0.4-2.1,1.5c0,0.8,0.9,1.2,1.5,1.5l2,0.9
		c1,0.4,1.8,1.3,1.8,2.4c0,2.5-2,3.5-4.1,3.5c-2.7,0-4.2-1.2-4.2-4h1.7c0,1.8,0.6,2.5,2.7,2.5c1.1,0,2.2-0.5,2.2-1.6
		c0-0.8-0.5-1.1-1.1-1.4l-1.9-0.8c-1.3-0.6-2.3-1.2-2.3-2.8c0-1.1,1-3,3.7-3c2.5,0,4,1.2,4,3.7H1019.9z"/>
	<path class="st4" d="M1031.2,135.6h1.8l-1.3,5.6c1.1-1.2,2.2-1.9,3.7-1.9c1.1,0,2.7,0.6,2.7,2.3c0,0.4-0.1,1.2-0.3,1.9l-1.4,6.4
		h-1.8l1.4-6.4c0.1-0.6,0.2-1,0.2-1.3c0-0.9-0.4-1.4-1.6-1.4c-1.7,0-3.2,1.7-3.6,3.4l-1.2,5.7h-1.7L1031.2,135.6z"/>
	<path class="st4" d="M1045.4,139.2c2.6,0,4,1.9,4,4.4c0,1.9-1.2,6.7-5.7,6.7c-2,0-4.1-1.1-4.1-4.3
		C1039.6,142.5,1041.6,139.2,1045.4,139.2z M1043.8,148.9c2.8,0,3.8-3.5,3.8-5.3c0-2.1-1.2-2.9-2.4-2.9c-2.6,0-3.8,3.1-3.8,5.4
		C1041.4,147.6,1042.1,148.9,1043.8,148.9z"/>
	<path class="st4" d="M1052.5,139.5h1.6l-0.4,1.8c0.5-0.8,1.9-2,3.5-2c1.6,0,2.5,1.2,2.5,1.9c0.5-0.8,2-1.9,3.7-1.9
		c1.5,0,2.6,0.9,2.6,2.2c0,0.6-0.1,1.3-0.3,1.9l-1.4,6.5h-1.8l1.4-6.6c0.1-0.6,0.2-1.1,0.2-1.5c0-0.8-0.5-1.1-1.2-1.1
		c-1.7,0-3.1,1.9-3.4,3l-1.3,6.1h-1.7l1.4-6.5c0.1-0.6,0.2-1.1,0.2-1.4c0-0.8-0.5-1.3-1.3-1.3c-1.6,0-3,1.8-3.3,3l-1.3,6.1h-1.7
		L1052.5,139.5z"/>
	<path class="st4" d="M1070.4,135.6h1.7l-1.1,5.1c0.6-0.8,1.8-1.5,3.1-1.5c3.5,0,4,3.2,4,4.3c0,1-0.5,3.6-1.7,5
		c-0.6,0.6-1.6,1.8-3.8,1.8c-1.3,0-2.2-0.4-3-1.5c-0.1-0.2-0.2-0.4-0.3-0.5l-0.3,1.7h-1.7L1070.4,135.6z M1070.7,148.1
		c0.6,0.6,1.3,0.8,1.9,0.8c2.8,0,3.7-3.6,3.7-5.2c0-2.2-1.3-2.9-2.5-2.9c-2.7,0-3.8,3.2-3.8,5.1
		C1070,146.9,1070.2,147.5,1070.7,148.1z"/>
	<path class="st4" d="M1081.4,139.5h1.6l-0.4,2.1c0,0,0.7-0.9,0.8-1.1c0.4-0.5,1.2-1.2,2.4-1.2l0.5,0l-0.4,1.9c-0.2,0-0.4,0-0.6,0
		c-2,0-3.1,2.2-3.3,3.4l-1.1,5.3h-1.7L1081.4,139.5z"/>
	<path class="st4" d="M1087.7,145.3c-0.1,0.2-0.1,0.4-0.1,0.7c0,1.7,0.8,2.8,2.5,2.8c1.5,0,2.4-0.9,3-2.1h1.7
		c-0.8,2.4-2.4,3.7-4.9,3.7c-2.5,0-4-1.8-4-4.5c0-3.4,2-6.6,5.4-6.6c3.6,0,4,3,4,4.3c0,0.9,0,1.3-0.1,1.7H1087.7z M1093.8,143.9
		v-0.5c0-2-1.2-2.7-2.4-2.7c-1.8,0-2.9,1.5-3.3,3.2H1093.8z"/>
	<path class="st4" d="M1104,142.9c0-1.5-0.9-2.2-2.2-2.2c-0.9,0-2.1,0.4-2.1,1.5c0,0.8,0.9,1.2,1.5,1.5l2,0.9c1,0.4,1.8,1.3,1.8,2.4
		c0,2.5-2,3.5-4.1,3.5c-2.7,0-4.2-1.2-4.2-4h1.7c0,1.8,0.6,2.5,2.7,2.5c1.1,0,2.2-0.5,2.2-1.6c0-0.8-0.5-1.1-1.1-1.4l-1.9-0.8
		c-1.3-0.6-2.3-1.2-2.3-2.8c0-1.1,1-3,3.7-3c2.5,0,4,1.2,4,3.7H1104z"/>
	<path class="st4" d="M1114.4,139.5h1.7l-0.3,1.7c1.1-1.2,2.2-1.9,3.7-1.9c1.1,0,2.7,0.6,2.7,2.3c0,0.4-0.1,1.2-0.3,1.9l-1.4,6.4
		h-1.8l1.4-6.4c0.1-0.6,0.2-1,0.2-1.3c0-0.9-0.4-1.4-1.6-1.4c-1.7,0-3.2,1.7-3.6,3.4l-1.2,5.7h-1.7L1114.4,139.5z"/>
	<path class="st4" d="M1129.5,139.2c2.6,0,4,1.9,4,4.4c0,1.9-1.2,6.7-5.7,6.7c-2,0-4.1-1.1-4.1-4.3
		C1123.6,142.5,1125.7,139.2,1129.5,139.2z M1127.9,148.9c2.8,0,3.8-3.5,3.8-5.3c0-2.1-1.2-2.9-2.4-2.9c-2.6,0-3.8,3.1-3.8,5.4
		C1125.4,147.6,1126.2,148.9,1127.9,148.9z"/>
	<path class="st4" d="M1141.8,142.9c0-1.5-0.9-2.2-2.2-2.2c-0.9,0-2.1,0.4-2.1,1.5c0,0.8,0.9,1.2,1.5,1.5l2,0.9
		c1,0.4,1.8,1.3,1.8,2.4c0,2.5-2,3.5-4.1,3.5c-2.7,0-4.2-1.2-4.2-4h1.7c0,1.8,0.6,2.5,2.7,2.5c1.1,0,2.2-0.5,2.2-1.6
		c0-0.8-0.5-1.1-1.1-1.4l-1.9-0.8c-1.3-0.6-2.3-1.2-2.3-2.8c0-1.1,1-3,3.7-3c2.5,0,4,1.2,4,3.7H1141.8z"/>
	<path class="st4" d="M1160.4,135.6h1.7l-3,14.4h-1.6l0.4-1.5c0,0.1-1.1,1.8-3.4,1.8c-0.7,0-2-0.2-2.9-1.2c-1-1.1-1-2.3-1-3.1
		c0-3.6,2.3-6.8,5.5-6.8c1.7,0,2.6,1,2.9,1.6c0.1,0.1,0.2,0.3,0.2,0.5L1160.4,135.6z M1158.6,143.7c0-2.4-1.4-2.9-2.4-2.9
		c-2.6,0-3.8,3.3-3.8,5.3c0,1.5,0.7,2.8,2.5,2.8C1157.1,148.9,1158.6,146.1,1158.6,143.7z"/>
	<path class="st4" d="M1164.4,145.3c-0.1,0.2-0.1,0.4-0.1,0.7c0,1.7,0.8,2.8,2.5,2.8c1.5,0,2.4-0.9,3-2.1h1.7
		c-0.8,2.4-2.4,3.7-4.9,3.7c-2.5,0-4-1.8-4-4.5c0-3.4,2-6.6,5.4-6.6c3.6,0,4,3,4,4.3c0,0.9,0,1.3-0.1,1.7H1164.4z M1170.5,143.9
		v-0.5c0-2-1.2-2.7-2.4-2.7c-1.8,0-2.9,1.5-3.3,3.2H1170.5z"/>
	<path class="st4" d="M1176.7,135.6h1.7l-1.1,5.1c0.6-0.8,1.8-1.5,3.1-1.5c3.5,0,4,3.2,4,4.3c0,1-0.5,3.6-1.7,5
		c-0.6,0.6-1.6,1.8-3.8,1.8c-1.3,0-2.2-0.4-3-1.5c-0.1-0.2-0.2-0.4-0.3-0.5l-0.3,1.7h-1.7L1176.7,135.6z M1177,148.1
		c0.6,0.6,1.3,0.8,1.9,0.8c2.8,0,3.7-3.6,3.7-5.2c0-2.2-1.3-2.9-2.5-2.9c-2.7,0-3.8,3.2-3.8,5.1
		C1176.3,146.9,1176.5,147.5,1177,148.1z"/>
	<path class="st4" d="M1187.8,145.3c-0.1,0.2-0.1,0.4-0.1,0.7c0,1.7,0.8,2.8,2.5,2.8c1.5,0,2.4-0.9,3-2.1h1.7
		c-0.8,2.4-2.4,3.7-4.9,3.7c-2.5,0-4-1.8-4-4.5c0-3.4,2-6.6,5.4-6.6c3.6,0,4,3,4,4.3c0,0.9,0,1.3-0.1,1.7H1187.8z M1193.8,143.9
		v-0.5c0-2-1.2-2.7-2.4-2.7c-1.8,0-2.9,1.5-3.3,3.2H1193.8z"/>
	<path class="st4" d="M1204.4,139.5h1.6l-0.4,2.1c0,0,0.7-0.9,0.8-1.1c0.4-0.5,1.2-1.2,2.4-1.2l0.5,0l-0.4,1.9c-0.2,0-0.4,0-0.6,0
		c-2,0-3.1,2.2-3.3,3.4l-1.1,5.3h-1.7L1204.4,139.5z"/>
	<path class="st4" d="M1210.7,145.3c-0.1,0.2-0.1,0.4-0.1,0.7c0,1.7,0.8,2.8,2.5,2.8c1.5,0,2.4-0.9,3-2.1h1.7
		c-0.8,2.4-2.4,3.7-4.9,3.7c-2.5,0-4-1.8-4-4.5c0-3.4,2-6.6,5.4-6.6c3.6,0,4,3,4,4.3c0,0.9,0,1.3-0.1,1.7H1210.7z M1216.7,143.9
		v-0.5c0-2-1.2-2.7-2.4-2.7c-1.8,0-2.9,1.5-3.3,3.2H1216.7z"/>
	<path class="st4" d="M1227,142.9c0-1.5-0.9-2.2-2.2-2.2c-0.9,0-2.1,0.4-2.1,1.5c0,0.8,0.9,1.2,1.5,1.5l2,0.9c1,0.4,1.8,1.3,1.8,2.4
		c0,2.5-2,3.5-4.1,3.5c-2.7,0-4.2-1.2-4.2-4h1.7c0,1.8,0.6,2.5,2.7,2.5c1.1,0,2.2-0.5,2.2-1.6c0-0.8-0.5-1.1-1.1-1.4l-1.9-0.8
		c-1.3-0.6-2.3-1.2-2.3-2.8c0-1.1,1-3,3.7-3c2.5,0,4,1.2,4,3.7H1227z"/>
	<path class="st4" d="M1237.7,150h-1.7l0.3-1.7c-1.1,1.2-2.2,1.9-3.7,1.9c-1.1,0-2.7-0.6-2.7-2.3c0-0.4,0.1-1.2,0.3-1.9l1.4-6.4h1.8
		l-1.4,6.4c-0.1,0.6-0.2,1-0.2,1.3c0,0.9,0.4,1.4,1.6,1.4c1.7,0,3.2-1.7,3.6-3.4l1.2-5.7h1.7L1237.7,150z"/>
	<path class="st4" d="M1243.6,135.6h1.8l-3.1,14.4h-1.7L1243.6,135.6z"/>
	<path class="st4" d="M1247.2,141h-1.4l0.3-1.4h1.4l0.7-2.8h1.7l-0.6,2.8h1.9l-0.2,1.4h-2l-1.3,6c-0.1,0.6-0.2,0.8-0.2,1
		c0,0.4,0.3,0.6,0.8,0.6c0.4,0,0.8,0,1.1-0.1l-0.3,1.4c-0.3,0.1-0.7,0.1-1.2,0.1c-1.3,0-2.2-0.5-2.2-1.7c0-0.2,0-0.4,0.1-0.7
		L1247.2,141z"/>
	<path class="st4" d="M1259,147.2c-0.1,0.5-0.2,0.8-0.2,0.9c0,0.4,0.3,0.6,0.7,0.6c0.1,0,0.3,0,0.4,0l-0.3,1.3c-0.3,0-0.7,0.1-1,0.1
		c-1.2,0-1.5-0.8-1.6-1.3h0c-0.1,0.4-1.2,1.5-3.2,1.5c-2.4,0-3.3-1.7-3.3-3c0-2.3,1.6-3.3,3.6-3.5l2.4-0.2c1.4-0.1,1.7-0.7,1.7-1.5
		c0-1.1-0.8-1.5-2.3-1.5s-2.4,0.6-2.5,1.9h-1.7c0.3-2.4,2.3-3.3,4.5-3.3c1.7,0,3.8,0.4,3.8,2.5c0,0.5-0.1,1.1-0.3,2L1259,147.2z
		 M1257.9,144.7c-0.5,0.2-1.7,0.3-3,0.4c-1.5,0.1-2.4,0.9-2.4,2c0,1.2,0.8,1.7,1.8,1.7C1256.5,148.9,1257.5,147.2,1257.9,144.7z"/>
	<path class="st4" d="M1263.6,139.5h1.6l-0.4,2.1c0,0,0.7-0.9,0.8-1.1c0.4-0.5,1.2-1.2,2.4-1.2l0.5,0l-0.4,1.9c-0.2,0-0.4,0-0.6,0
		c-2,0-3.1,2.2-3.3,3.4l-1.1,5.3h-1.7L1263.6,139.5z"/>
	<path class="st4" d="M1282.4,147.2c-0.1,0.5-0.2,0.8-0.2,0.9c0,0.4,0.3,0.6,0.7,0.6c0.1,0,0.3,0,0.4,0l-0.3,1.3
		c-0.3,0-0.7,0.1-1,0.1c-1.2,0-1.5-0.8-1.6-1.3h0c-0.1,0.4-1.2,1.5-3.2,1.5c-2.4,0-3.3-1.7-3.3-3c0-2.3,1.6-3.3,3.6-3.5l2.4-0.2
		c1.4-0.1,1.7-0.7,1.7-1.5c0-1.1-0.8-1.5-2.3-1.5s-2.4,0.6-2.5,1.9h-1.7c0.3-2.4,2.3-3.3,4.5-3.3c1.7,0,3.8,0.4,3.8,2.5
		c0,0.5-0.1,1.1-0.3,2L1282.4,147.2z M1281.2,144.7c-0.5,0.2-1.7,0.3-3,0.4c-1.5,0.1-2.4,0.9-2.4,2c0,1.2,0.8,1.7,1.8,1.7
		C1279.9,148.9,1280.8,147.2,1281.2,144.7z"/>
	<path class="st4" d="M1283.1,152.6c0.1,0,0.3,0,0.4,0c0.5,0,0.7-0.2,1-1.2l2.5-11.9h1.8l-2.6,12.2c-0.4,1.7-0.9,2.5-2.6,2.5
		c-0.3,0-0.5,0-0.8-0.1L1283.1,152.6z M1287.8,135.6h1.8l-0.4,2h-1.8L1287.8,135.6z"/>
	<path class="st4" d="M1291.4,145.3c-0.1,0.2-0.1,0.4-0.1,0.7c0,1.7,0.8,2.8,2.5,2.8c1.5,0,2.4-0.9,3-2.1h1.7
		c-0.8,2.4-2.4,3.7-4.9,3.7c-2.5,0-4-1.8-4-4.5c0-3.4,2-6.6,5.4-6.6c3.6,0,4,3,4,4.3c0,0.9,0,1.3-0.1,1.7H1291.4z M1297.5,143.9
		v-0.5c0-2-1.2-2.7-2.4-2.7c-1.8,0-2.9,1.5-3.3,3.2H1297.5z"/>
	<path class="st4" d="M1302.5,139.5h1.7l-0.3,1.7c1.1-1.2,2.2-1.9,3.7-1.9c1.1,0,2.7,0.6,2.7,2.3c0,0.4-0.1,1.2-0.3,1.9l-1.4,6.4
		h-1.8l1.4-6.4c0.1-0.6,0.2-1,0.2-1.3c0-0.9-0.4-1.4-1.6-1.4c-1.7,0-3.2,1.7-3.6,3.4l-1.2,5.7h-1.7L1302.5,139.5z"/>
	<path class="st4" d="M1317.6,139.2c2.6,0,4,1.9,4,4.4c0,1.9-1.2,6.7-5.7,6.7c-2,0-4.1-1.1-4.1-4.3
		C1311.8,142.5,1313.8,139.2,1317.6,139.2z M1316,148.9c2.8,0,3.8-3.5,3.8-5.3c0-2.1-1.2-2.9-2.4-2.9c-2.6,0-3.8,3.1-3.8,5.4
		C1313.6,147.6,1314.3,148.9,1316,148.9z"/>
	<path class="st4" d="M1325.7,135.6h1.7v5h-1.7V135.6z M1328.8,135.6h1.7v5h-1.7V135.6z"/>
	<path class="st4" d="M1197.7,177.6c0,0.8,0.4,2.3,3,2.3c1.4,0,3-0.3,3-1.9c0-1.1-1.1-1.4-2.6-1.8l-1.5-0.4
		c-2.3-0.5-4.6-1.1-4.6-4.2c0-1.6,0.9-4.4,5.5-4.4c4.4,0,5.6,2.9,5.6,4.6h-2.9c-0.1-0.6-0.3-2.2-2.9-2.2c-1.1,0-2.5,0.4-2.5,1.7
		c0,1.1,0.9,1.4,1.5,1.5l3.5,0.9c2,0.5,3.8,1.3,3.8,3.9c0,4.3-4.4,4.7-5.7,4.7c-5.2,0-6.1-3-6.1-4.8H1197.7z"/>
	<path class="st4" d="M1217.3,179.9c0,1.3,0.3,1.5,0.6,1.7v0.4h-3c-0.2-0.5-0.2-0.7-0.3-1.3c-0.6,0.7-1.5,1.5-3.4,1.5
		c-1.6,0-3.2-0.9-3.2-3.1c0-2.1,1.3-3.1,3.1-3.4l2.5-0.4c0.4-0.1,1-0.2,1-0.8c0-1.2-1.1-1.2-1.8-1.2c-1.4,0-1.6,0.9-1.7,1.5h-2.7
		c0.3-3.3,2.6-3.7,4.8-3.7c1.5,0,4.2,0.5,4.2,3.1V179.9z M1214.5,176.8c-0.3,0.2-0.7,0.4-1.9,0.6c-1,0.2-1.9,0.4-1.9,1.6
		c0,1,0.8,1.3,1.3,1.3c1.2,0,2.5-0.8,2.5-2.1V176.8z"/>
	<path class="st4" d="M1229.4,182h-2.8v-6.5c0-0.8,0-2.1-1.8-2.1c-1.2,0-2.2,0.8-2.2,2.5v6.1h-2.8v-10.6h2.7v1.6h0
		c0.4-0.6,1.2-1.8,3.2-1.8c2.1,0,3.7,1.2,3.7,3.6V182z"/>
	<path class="st4" d="M1245.9,177.8c0,3-1.6,4.5-4.5,4.5c-4.8,0-4.8-3-4.8-5.8h2.8c0,2.3,0.2,3.4,1.8,3.4c1.6,0,1.7-1,1.7-2.1v-10.2
		h3V177.8z"/>
	<path class="st4" d="M1257.9,182h-2.7v-1.5h0c-0.6,1.1-1.8,1.8-3.2,1.8c-2.1,0-3.6-1.2-3.6-3.9v-7h2.8v6.6c0,1.6,1,2,1.8,2
		c0.9,0,2.2-0.5,2.2-2.4v-6.1h2.8V182z"/>
	<path class="st4" d="M1269.1,179.9c0,1.3,0.3,1.5,0.6,1.7v0.4h-3c-0.2-0.5-0.2-0.7-0.3-1.3c-0.6,0.7-1.5,1.5-3.4,1.5
		c-1.6,0-3.2-0.9-3.2-3.1c0-2.1,1.3-3.1,3.1-3.4l2.5-0.4c0.4-0.1,1-0.2,1-0.8c0-1.2-1.1-1.2-1.8-1.2c-1.4,0-1.6,0.9-1.7,1.5h-2.7
		c0.3-3.3,2.6-3.7,4.8-3.7c1.5,0,4.2,0.5,4.2,3.1V179.9z M1266.4,176.8c-0.3,0.2-0.7,0.4-1.9,0.6c-1,0.2-1.9,0.4-1.9,1.6
		c0,1,0.8,1.3,1.3,1.3c1.2,0,2.5-0.8,2.5-2.1V176.8z"/>
	<path class="st4" d="M1281.2,182h-2.8v-6.5c0-0.8,0-2.1-1.8-2.1c-1.2,0-2.2,0.8-2.2,2.5v6.1h-2.8v-10.6h2.7v1.6h0
		c0.4-0.6,1.2-1.8,3.2-1.8c2.1,0,3.7,1.2,3.7,3.6V182z"/>
	<path class="st4" d="M1301.1,182h-3.7l-2.7-4.9l-2.9,4.9h-3.5l4.6-7.3l-4.4-7h3.6l2.6,4.6l2.6-4.6h3.5l-4.4,6.9L1301.1,182z"/>
	<path class="st4" d="M1314.5,182h-3.7l-2.7-4.9l-2.9,4.9h-3.5l4.6-7.3l-4.4-7h3.6l2.6,4.6l2.6-4.6h3.5l-4.4,6.9L1314.5,182z"/>
	<path class="st4" d="M1319,182h-3v-14.4h3V182z"/>
	<path class="st4" d="M1324.6,182h-3v-14.4h3V182z"/>
	<path class="st4" d="M1330.2,182h-3v-14.4h3V182z"/>
</g>
<g>
	<path class="st5" d="M82.5,338.6L82.5,338.6z"/>
	<path class="st5" d="M81.1,338.6L81.1,338.6z"/>
	<path class="st5" d="M97.2,338.7H95H97.2z"/>
	<path class="st5" d="M85.7,338.6L85.7,338.6z"/>
	<path class="st5" d="M116,191.5l-0.1,0.4L116,191.5z"/>
	<path class="st5" d="M98.8,303h0.4H98.8L98.8,303z"/>
	<path class="st5" d="M94.4,338.7h-1.6H94.4z"/>
	<path class="st5" d="M92.1,338.7L92.1,338.7z"/>
	<path class="st5" d="M90,338.6L90,338.6z"/>
	<path class="st5" d="M88.1,338.6L88.1,338.6z"/>
	<path class="st5" d="M83.2,338.6L83.2,338.6z"/>
	<path class="st5" d="M100.1,303c0.8,0,1.7,0,2.5,0c2-0.1,4-0.4,6-0.8c-2,0.4-4,0.7-6,0.8C101.8,303.1,100.9,303.1,100.1,303z"/>
	<path class="st5" d="M278.8,228.8l-0.8-0.1v0.1L278.8,228.8z"/>
	<path class="st5" d="M512.5,260.8l-1,9.6c1.1-2.1,2.2-4.2,3.3-6.4C514,262.9,513.2,261.9,512.5,260.8z"/>
	<path class="st5" d="M625.6,278c0.2,11.8,0.3,24.1,0.1,35.6l0.4-2.3l2.3-14.9l0.8-5.4l0.3-1.8c0.6-3.4,1.1-6.6,1.6-9.9
		c0.3-1.8,0.5-3.6,0.8-5.4c0.7-4.9,1.3-9.7,1.8-14.3c0.2-1.8,0.4-3.7,0.6-5.5c0.6-5.5,1-10.8,1.4-15.8l-10.8,13.3
		c0,1.6,0.1,3.2,0.2,4.8c2.5,3.9,5,9,4.7,13.9C629.6,275,627.6,277.1,625.6,278z"/>
	<path class="st5" d="M280.1,275.8l0.3-0.9L280.1,275.8z"/>
	<path class="st5" d="M116.6,187.8v0.3V187.8c1.7-0.1,3.4-0.4,5-0.8l0,0C120,187.4,118.3,187.7,116.6,187.8z"/>
	<path class="st5" d="M115.3,195.3v0.1V195.3z"/>
	<path class="st5" d="M126.6,174.7c0,0,1.5,0.1,4.6,0.4l2.1-0.7c-12.8-9.1-20.4-23.7-3.3-46.5c-2.7-1.4-5.6-1.7-7.9,1.1
		c-1,2.3-2,4.7-3,7.2c-1.1,5.1-1.6,12.6-1,23.6c0.1,2,0.2,4.1,0.2,6.2C121.3,168.6,124.1,171.5,126.6,174.7z"/>
	<polygon class="st5" points="113.6,202.5 113.6,202.5 113.6,202.5 	"/>
	<path class="st5" d="M752.6,294.7l-1.6-3.8l-2.1-5c-2.3-5.4-4.2-10.1-6-14.3c-0.8-1.8-1.5-3.5-2.2-5.1c-1.6-3.7-3.1-6.9-4.5-9.7
		c0.7,7,1.1,14.6,1.2,22.9c0,1.8,0,3.6,0,5.4c0,3.2-0.1,6.5-0.2,9.8c-0.1,1.9-0.1,3.7-0.2,5.6v0.1c-0.6,11.3-0.6,22.5-0.2,33.8
		c0.1,1.3,0.1,2.6,0.2,3.9l0.8-1.7c1.6-3.4,3.3-7.2,5-11c0.7-1.7,1.5-3.4,2.2-5.1c1.7-4.1,3.3-8.1,4.6-11.7c0.7-1.9,1.3-3.6,1.7-5.2
		C752.6,299.2,753.2,296,752.6,294.7z"/>
	<path class="st5" d="M282.6,279.8c-0.9-0.5-1.7-1.1-2.3-1.5C281,278.7,281.7,279.3,282.6,279.8z"/>
	<path class="st5" d="M99.5,338.8h-2H99.5z"/>
	<path class="st5" d="M144.4,341.1l-2.4-0.3L144.4,341.1z"/>
	<path class="st5" d="M141.2,340.8l-1.7-0.2L141.2,340.8z"/>
	<path class="st5" d="M133.4,340.1l-2.6-0.2L133.4,340.1z"/>
	<path class="st5" d="M130.1,339.9l-2-0.1L130.1,339.9z"/>
	<path class="st5" d="M136,340.4l-2.1-0.2L136,340.4z"/>
	<path class="st5" d="M149.6,325.6c-2,3.6-3.5,7.5-4.4,11.5C146.2,333.1,147.6,329.2,149.6,325.6z"/>
	<polygon class="st5" points="395.4,261.9 395.6,265.2 395.6,265.2 	"/>
	<path class="st5" d="M519.9,159.8c-0.8-0.7-1.6-1.5-2.2-2.4c-0.1,6.1,0.7,12.1,2.3,18c6.4-1.4,12.2-2.9,16.8-4.2
		c-3.2-2.7-6.7-5.1-10.4-6.9C524,163.1,521.8,161.6,519.9,159.8z"/>
	<path class="st5" d="M280.7,274.3c0.4-0.9,0.8-2.1,1.3-3.4C281.5,272.2,281.1,273.3,280.7,274.3z"/>
	<path class="st5" d="M138.6,340.6l-1.7-0.1L138.6,340.6z"/>
	<path class="st5" d="M104.5,338.9h-1.8H104.5z"/>
	<path class="st5" d="M110.3,339l-5.1-0.1L110.3,339z"/>
	<path class="st5" d="M112.9,339.1l-1.8-0.1L112.9,339.1z"/>
	<path class="st5" d="M101.9,338.8h-1.6H101.9z"/>
	<path class="st5" d="M124.5,339.6l-2-0.1L124.5,339.6z"/>
	<path class="st5" d="M121.8,339.5l-2.7-0.1L121.8,339.5z"/>
	<path class="st5" d="M127.2,339.8l-1.8-0.1L127.2,339.8z"/>
	<path class="st5" d="M115.6,339.2l-1.8-0.1L115.6,339.2z"/>
	<path class="st5" d="M118.7,339.3l-2.2-0.1L118.7,339.3z"/>
	<path class="st5" d="M421.6,335L421.6,335l0.1-0.5L421.6,335z"/>
	<path class="st5" d="M284.9,261.9c0.6-1.9,1.1-3.9,1.7-6C286.1,258,285.5,260,284.9,261.9z"/>
	<path class="st5" d="M279.9,276.2c-0.4,0.9-0.6,1.3-0.6,1.3l0.9,0.7l-0.9-0.7C279.3,277.6,279.6,277.1,279.9,276.2z"/>
	<path class="st5" d="M534.2,217.4c-4.3,2.3-8.8,4.1-13.4,5.6c3.2,1.9,6.2,4,9,6.4C532.6,222.1,534.2,217.4,534.2,217.4z"/>
	<path class="st5" d="M397,257.9c-0.6-0.5-1.1-0.9-1.4-1.2C395.9,257,396.4,257.4,397,257.9z"/>
	<path class="st5" d="M283.9,265.3c0.3-0.9,0.6-1.8,0.8-2.7C284.4,263.5,284.2,264.4,283.9,265.3z"/>
	<path class="st5" d="M282.2,270.3c0.4-1.1,0.8-2.3,1.2-3.6C283,268,282.6,269.2,282.2,270.3z"/>
	<path class="st6" d="M737.3,342.7c0.3,4.6,0.8,9.3,1.3,13.9h24c3.1-3.5,5.8-7.2,8.3-11.1C759.9,350,747.4,348.9,737.3,342.7z"/>
	<path class="st6" d="M735.9,254c0.1,0.9,0.2,1.8,0.3,2.7c1.4,2.8,2.9,6,4.5,9.7c11.1-0.8,17.6-12.8,22-21.8
		c4.3-9,7.5-18.5,9.5-28.3c-3.1-12.6-8.3-21.2-14.3-27c-0.1,10.9-1.2,21.8-3.3,32.4C752.1,234.4,746.3,246.4,735.9,254z"/>
	<path class="st6" d="M749.5,308.8c-1.3,3.6-2.9,7.6-4.6,11.7c12.5,2.5,26.1,1.5,37.8-3.6c1.6-7,2.4-14.2,2.4-21.4
		C775.9,305,762.8,309.9,749.5,308.8z"/>
	<path class="st6" d="M735.5,188.3c-0.9,10.1-3.3,20-7.1,29.3c2.1,6.6,3.8,13.3,5.1,20.1c0.4,1.9,0.7,3.8,1,5.7
		c0.2,1.4,0.4,2.8,0.6,4.3c9-7.8,13.2-19.6,15-31.3c1.6-10.4,2.4-21,2.4-31.6c-2.5-1.7-5.1-3.2-7.9-4.3
		C743,183.4,739.7,185.9,735.5,188.3z"/>
	<path class="st6" d="M751.1,290.9l1.6,3.8c0.5,1.3,0,4.5-1.4,8.8c13.2,0.7,25.9-5.4,33.7-16.2c-0.5-8-1.7-15.9-3.6-23.6l-0.1-0.5
		C775,276.4,765.6,288,751.1,290.9z"/>
	<path class="st6" d="M742.9,271.6c1.8,4.1,3.8,8.9,6,14.3c15.7-2.5,24.6-17,30.2-31.1c-2-8.5-3.6-17.1-4.7-25.8
		c-2.5,8.1-5.7,16-9.8,23.4C760,261,752.9,270,742.9,271.6z"/>
	<path class="st6" d="M742.8,325.5c-1.7,3.8-3.4,7.5-5,11c10.8,8.1,25.6,8.4,36.7,0.8c0.3-0.2,0.7-0.4,1.2-0.5
		c2.1-4.4,3.9-8.9,5.3-13.5C768.7,327.6,755.5,328.4,742.8,325.5z"/>
	<path class="st4" d="M735.1,247.8c0.3,2,0.5,4.1,0.8,6.2c10.4-7.6,16.2-19.7,18.7-32.2c2.1-10.7,3.1-21.6,3.3-32.5
		c-1.7-1.6-3.4-3.1-5.3-4.4c0,10.6-0.8,21.1-2.4,31.6C748.3,228.2,744,240,735.1,247.8z"/>
	<path class="st7" d="M740.7,266.5c0.7,1.6,1.5,3.3,2.2,5.1c10-1.6,17.1-10.6,21.8-19.2c4-7.5,7.3-15.3,9.8-23.4
		c0-0.3-0.1-0.6-0.1-0.9c-0.5-3.9-1.2-7.8-2.2-11.7c-2,9.8-5.2,19.3-9.5,28.3C758.3,253.6,751.8,265.7,740.7,266.5z"/>
	<path class="st4" d="M748.9,285.9l2.1,5c14.6-3,23.9-14.6,30.2-27.7c-0.3-1.3-0.7-2.6-1-3.9c-0.4-1.5-0.8-3-1.1-4.5
		C773.6,268.9,764.7,283.4,748.9,285.9z"/>
	<path class="st7" d="M751.3,303.5c-0.5,1.6-1.1,3.4-1.7,5.2c13.3,1.1,26.3-3.7,35.6-13.3c0-2.6,0-5.3-0.2-8.1
		C777.2,298.1,764.5,304.2,751.3,303.5z"/>
	<path class="st4" d="M744.9,320.5c-0.7,1.7-1.4,3.4-2.2,5.1c12.7,2.8,26,2.1,38.3-2.2c0.7-2.1,1.2-4.2,1.7-6.5
		C771,322,757.5,323,744.9,320.5z"/>
	<path class="st7" d="M737.8,336.5l-0.8,1.7c0,0.8,0.1,1.5,0.1,2.3s0.1,1.5,0.1,2.1c10.1,6.3,22.6,7.3,33.6,2.8
		c1.8-2.8,3.4-5.6,4.8-8.6c-0.4,0.1-0.8,0.2-1.2,0.5C763.4,345,748.6,344.7,737.8,336.5z"/>
	<path class="st6" d="M635.7,238c0.1-1.9,0.3-3.8,0.4-5.6c0.3-4.4,0.5-8.6,0.6-12.6c-7.9,2-12.9,3.2-12.9,3.2s0.6,11.9,1.2,28.8
		l10.8-13.3L635.7,238z"/>
	<path class="st8" d="M428.2,245.6h-0.1c-1.8-0.1-3.5-0.2-5.2-0.3c6.2,9.4,11,15.5,11,15.5l0,0l-0.3-15
		C431.8,245.7,430,245.7,428.2,245.6z"/>
	<path class="st9" d="M663.9,138c-5.1-4.8-8.5-11.9-9-21.4c-5,15.6-8,35.5,2.7,47.2l5.7-0.4L663.9,138z"/>
	<path class="st6" d="M119.1,136.3c1-2.5,2-4.9,3-7.2C120.5,131.2,119.5,133.7,119.1,136.3z"/>
	<path class="st10" d="M142,340.9l-0.8-0.1l-1.7-0.2l-0.9-0.1l-1.7-0.1l-0.8-0.1l-2.1-0.2h-0.5l-2.6-0.2h-0.7l-2-0.1l-0.9,0
		l-1.8-0.1l-0.9,0l-2-0.1h-0.7l-2.7-0.1h-0.5l-2.2-0.1h-0.9l-1.8-0.1h-0.9l-1.8-0.1h-0.8l-5.1-0.1h-0.7h-1.8h-0.9h-1.6h-0.8h-2h-0.3
		h-2.3h-0.5h-1.6H80c-1.2,0.5-2.6,0.5-3.9,0c0,0-2.5,6-6.3,17.9h73.4c-0.1-5.3,0.3-10.6,1.2-15.9L142,340.9z"/>
	<path class="st6" d="M134.9,175.5c-0.5-0.4-1.1-0.7-1.6-1.1l-2.2,0.7L134.9,175.5z"/>
	<path class="st11" d="M79.9,266.2l1.9-0.4l0,0l2-0.4l0,0h0.1l0,0c2.3-0.4,4.7-0.8,7.3-1.1l2.7-0.4l5-0.7l5.3-0.7
		c2-0.3,4-0.6,6.1-0.9c2.2-0.3,4.6-0.7,6.9-1.1l3.9-0.7c1-0.2,1.9-0.4,2.8-0.6c2.6-0.6,5.2-1.4,7.7-2.3c2.2-0.8,4.4-1.8,6.5-3
		c1.3-0.7,2.5-1.4,3.6-2.2c1.1-0.8,2.2-1.6,3.1-2.4c0.5-0.4,1-0.8,1.4-1.2c1.3-1.2,2.6-2.5,3.7-3.8c-18.3-6.4-15.5-32-6.2-41.8
		c-7.1-5.2-12.8-9.9-16.8-12.8c-0.8-0.6-1.6-1.1-2.2-1.5c-0.3-0.2-0.7-0.4-1-0.6c-0.7-0.4-1.4-0.7-2.2-0.9c-1.6,0.4-3.3,0.7-5,0.8
		v0.3c-0.2,1.2-0.4,2.3-0.6,3.5L116,192c-0.2,1.1-0.4,2.2-0.6,3.3v0.1c-0.5,2.4-1.1,4.8-1.7,7.2l0,0c-3.7,14-9.2,26.9-16,37.1
		c-5.1,7.7-10.9,13.8-17,17.7l-2.2,9.2l1.1-0.3L79.9,266.2z"/>
	<path class="st11" d="M80,338.6h12.8h1.6H95h2.3h0.3h2h0.8h1.6h0.9h1.8h0.7l5.1,0.1h0.8l1.8,0.1h0.9l1.8,0.1h0.9l2.2,0.1h0.5
		l2.7,0.1h0.7l2,0.1l0.9,0l1.8,0.1l0.9,0l2,0.1h0.7l2.6,0.2h0.5l2.1,0.2l0.8,0.1l1.7,0.1l0.9,0.1l1.7,0.2l0.8,0.1l2.4,0.3
		c0.2-1.3,0.5-2.7,0.8-4c0.9-3.8,2.4-7.6,4.3-11c8.6-14.6,9.5-41,9.5-41l-1.4,0.5c-1.6,0.5-4.6,1.6-8.6,3l-7.5,2.7l-5.2,1.9
		l-6.6,2.4l-4.9,1.8l-6.9,2.5l-1.3,0.5c-2.6,1-5.4,1.8-8.1,2.4c-2,0.4-4,0.7-6,0.8c-0.9,0.1-1.7,0-2.5,0h-0.8h-0.4l0,0
		c-2.1-0.1-4.3-0.6-6.3-1.4c-1.6-0.7-3.2-1.5-4.6-2.5c-2.8-1.9-4.8-4-6.8-5.2c-0.5-0.3-1-0.5-1.6-0.6l0,0c-5-1.1-8.6,6.4-8.6,6.5
		l0,0c0,0-11.3,31.8,5.3,38.9C77.4,339.2,78.8,339.2,80,338.6z"/>
	<path class="st8" d="M126.6,174.7c-2.5-3.2-5.3-6.1-8.3-8.7c0,7.3-0.5,14.6-1.7,21.8c1.7-0.1,3.4-0.4,5-0.8L126.6,174.7z"/>
	<path class="st10" d="M520,175.4c-1.6-5.9-2.4-11.9-2.3-18c-3.1-4.3-2.5-9,0.1-13.4c-2.1-30.2-25.8-37.7-36.4-36.9
		c-14,1.2-30.9,8.8-36,42.1c-1.6,10.4-3.7,17.1-6,21.7c5.5,1.7,11.4,3.7,18.2,5.7C477,182.3,501.4,179.4,520,175.4z"/>
	<path class="st8" d="M362.2,175.9v-19.6c-14,12.8-31.4,21.4-44.5-6.5l-2.5,24.2C330.9,172.9,346.7,173.6,362.2,175.9z"/>
	<path class="st10" d="M362.2,156.3c5.6-5.2,10.7-11,14.7-15.4c15.1-16.6-2.4-30.2-2.4-30.2c58,3.4,35.1-56.1,17.6-38.6
		c-2.5,2.5-4.8,4.8-6.8,6.8c-7.2,7-18.3,8-26.7,2.5c-11-7-12.8,7.3-12.8,7.3c-11.7-15.6-13.7,4.4-13.7,4.4
		c-32.2-10.7-19,44.4-19,44.4c1.3,4.2,2.9,8.3,4.7,12.3C330.8,177.7,348.2,169.1,362.2,156.3z"/>
	<path class="st6" d="M709.1,244.7c8.8-0.5,17.5-2.3,24.4-6.9c-1.3-6.8-3-13.5-5.1-20.1C724.1,228.1,717.7,238.1,709.1,244.7z"/>
	<path class="st6" d="M699.6,250.1c-7.9,3.2-17.2,3.8-28.1,0.6c-2.8-0.9-5.4-2.4-7.5-4.4c-9.7-2-19.2-4.8-28.4-8.4v0.5
		c-0.4,5-0.8,10.3-1.4,15.8c31.9,10.5,65.8,14.1,99.2,10.5c3.4-0.4,3.4,5,0,5.4c-33.6,3.6-67.6,0.1-99.8-10.4
		c-0.5,4.6-1.1,9.3-1.8,14.3c34.3,9.9,70.4,11.8,105.5,5.6c-0.1-8.2-0.5-15.8-1.2-22.9c-0.1-0.9-0.2-1.8-0.3-2.7
		c-0.2-2.1-0.5-4.2-0.8-6.2c-0.2-1.4-0.4-2.9-0.6-4.3C724.5,249.4,711.6,250.4,699.6,250.1z"/>
	<path class="st6" d="M631.1,279.4c-0.5,3.2-1,6.5-1.6,9.9l-0.3,1.8c14.8,4.8,30.6,6.3,46.2,7.7c20.5,1.9,42.2,3.6,61.8-3.9
		c0.1-3.3,0.2-6.6,0.2-9.8C702,291.1,665.7,289.2,631.1,279.4z"/>
	<path class="st6" d="M737.1,340.5c-7,4.2-15.1,5.5-23.3,5.8c-10.5,0.4-21.2,0.2-31.7,0c-18.2-0.2-36.4-1.1-54.4-3.7
		c1,3.4,2.1,8,3.2,13.9h107.6c-0.5-4.6-1-9.2-1.3-13.9C737.2,341.9,737.2,341.2,737.1,340.5z"/>
	<path class="st6" d="M710.4,341c9.2-0.1,18.4-1,26.1-6.5c0.1-0.1,0.2-0.1,0.3-0.2c-0.5-11.2-0.4-22.5,0.2-33.8
		c-19.7,6.8-40.9,5.4-61.5,3.5c-15.8-1.5-31.9-3-47-7.8l-2.3,14.9c33.9,14.5,71.8,16.5,107,5.7c3.3-1,4.7,4.2,1.4,5.2
		c-35.8,11-74.3,9.2-108.9-5.2c-0.1,6.4-0.3,12.5-0.7,17.9c0,0,0.3,0.7,0.9,2.1c17.9,2.8,36.1,3.7,54.2,4
		C690.2,341.1,700.3,341.1,710.4,341z"/>
	<path class="st6" d="M658.2,239.5c-4.3-6.2-8-14.2-11-22.5c-3.9,1-7.4,1.9-10.5,2.7c-0.1,4-0.3,8.1-0.6,12.6
		C643.3,235.3,650.7,237.6,658.2,239.5z"/>
	<path class="st4" d="M733.5,270.1c3.4-0.4,3.4-5.8,0-5.4c-33.4,3.6-67.3,0.1-99.2-10.5c-0.2,1.8-0.4,3.6-0.6,5.5
		C665.9,270.2,699.9,273.8,733.5,270.1z"/>
	<path class="st7" d="M631.9,274c-0.2,1.8-0.5,3.6-0.8,5.4c34.6,9.8,70.9,11.8,106.3,5.7c0-1.8,0-3.7,0-5.4
		C702.3,285.8,666.2,283.9,631.9,274z"/>
	<path class="st4" d="M675.4,298.8c-15.5-1.4-31.3-3-46.2-7.7l-0.8,5.4c15.1,4.7,31.2,6.3,47,7.8c20.6,1.9,41.8,3.3,61.5-3.6v-0.1
		c0.1-1.9,0.2-3.8,0.2-5.7C717.6,302.4,696,300.7,675.4,298.8z"/>
	<path class="st7" d="M625.6,316.9c34.6,14.4,73.1,16.2,108.9,5.2c3.3-1,1.9-6.2-1.4-5.2c-35.2,10.9-73.1,8.8-107-5.7l-0.4,2.3
		C625.7,314.7,625.7,315.8,625.6,316.9z"/>
	<path class="st4" d="M736.5,334.5c-7.7,5.5-16.9,6.3-26.1,6.5c-10.1,0.2-20.3,0.1-30.4-0.1c-18.1-0.3-36.3-1.2-54.2-4
		c0.5,1.3,1.1,3.1,1.8,5.7c18,2.6,36.2,3.5,54.4,3.7c10.5,0.1,21.2,0.4,31.7,0c8.2-0.3,16.3-1.5,23.3-5.8c0-0.8-0.1-1.5-0.1-2.3
		c-0.1-1.3-0.1-2.6-0.2-3.9C736.7,334.4,736.6,334.5,736.5,334.5z"/>
	<path class="st7" d="M658.2,239.5c-7.5-1.9-14.9-4.3-22.1-7.2c-0.1,1.8-0.2,3.7-0.4,5.6c9.2,3.6,18.7,6.4,28.4,8.4
		C661.9,244.3,659.9,242,658.2,239.5z"/>
	<path class="st7" d="M699.6,250.1c12,0.3,24.8-0.8,34.8-6.6c-0.3-2-0.6-3.9-1-5.7c-6.9,4.6-15.5,6.4-24.4,6.9
		C706.2,246.9,703,248.7,699.6,250.1z"/>
	<path class="st12" d="M664.1,246.4c2.1,2,4.7,3.5,7.5,4.4c10.9,3.2,20.2,2.5,28.1-0.6c3.4-1.4,6.5-3.2,9.4-5.4
		c8.6-6.6,15-16.6,19.3-27c3.8-9.4,6.2-19.2,7.1-29.3c-6.2,3.3-12.7,6.1-19.3,8.3c-20.6,7.4-49.1,15.2-69,20.4
		c3,8.3,6.7,16.3,11,22.5C659.9,242.1,661.9,244.3,664.1,246.4z"/>
	<path class="st10" d="M133,129.9c-0.9-0.8-1.9-1.4-3-2c-17,22.8-9.4,37.4,3.4,46.5c0.5,0.4,1.1,0.7,1.6,1.1
		c8.5,0.9,23.4,2.6,44.5,5.4c1.3-5.2,1.9-10.5,1.8-15.9c-0.2-10.1,1.4-20.1,4.8-29.7c-4.7-7.6-26.9-39.4-51.8-12.5
		c0.7,1.7,1.2,3.5,1.7,5.3c0.2,1-0.4,1.9-1.3,2.2C134,130.4,133.4,130.3,133,129.9z"/>
	<polygon class="st13" points="70.9,299.8 70.9,299.8 70.9,299.8 	"/>
	<path class="st13" d="M278,228.8c0.4,1.6,0.8,3.3,1,5l0.4-4.9l-0.6-0.1L278,228.8z"/>
	<path class="st13" d="M278.6,339.8L278.6,339.8l0.4-62.5c-1.2-0.8-2.2-1.8-3-3l1.9-25.2c-6.7,22.2-33.7,32.3-33.7,32.3
		s28.8,49.3-28.6,58s-42.2-58-42.2-58c-35.8,3.9-14.3-35.5-14.3-35.5c-1.6,0-3.1-0.1-4.7-0.4c-1.8,3.2-11.6,24.4,3.3,39.6l1.4-0.5
		c0,0-0.9,26.3-9.5,41c-2,3.6-3.5,7.4-4.4,11.4c-0.3,1.3-0.6,2.7-0.8,4c-0.8,5.1-1.2,10.2-1.2,15.4h134
		C278,346.1,278.7,339.8,278.6,339.8L278.6,339.8z"/>
	<path class="st13" d="M104.2,262.6l-5.3,0.7c-1.1,2.7-3.1,7.1-6,13.2c-3.7,7.8,4.4,20,9.7,26.6c2-0.1,4-0.4,6-0.8l0,0
		C108.6,302.2,92.7,283.5,104.2,262.6z"/>
	<path class="st13" d="M149.3,245.8l1-1.3l-0.3-0.1c-1.2,1.3-2.4,2.6-3.7,3.8c-0.5,0.4-0.9,0.8-1.4,1.2c-1,0.8-2,1.6-3.2,2.4
		c-1.1,0.8-2.3,1.5-3.6,2.2c-1.8,9.1-3.3,23.7,2,33.9c0.6,1.1,1,2.1,1.4,2.9l7.5-2.7C145,282.1,135.3,264.5,149.3,245.8z"/>
	<path class="st13" d="M91.2,264.3c-2.6,0.4-5,0.7-7.3,1.1c0,0-6.6,14.4-4.4,27.9c0.6,0.1,1.1,0.3,1.6,0.6c2,1.2,4,3.3,6.8,5.2
		c1.5,1,3,1.8,4.7,2.5c-2.4-3-4.4-6.2-6.1-9.6C81.1,281.5,87,270.3,91.2,264.3z"/>
	<path class="st13" d="M131.6,257c-2.5,0.9-5.1,1.7-7.7,2.3c-2.6,7-4.4,18.6,3.6,31.7c0.9,1.5,1.7,2.8,2.3,4l6.6-2.4
		C135.2,291.2,124.6,278.3,131.6,257z"/>
	<path class="st13" d="M117.3,260.6c-2.4,0.4-4.7,0.8-6.9,1.1c-3.1,7.5-7,22.8,5,34.8c1.1,1.1,1.9,2,2.7,2.8l6.9-2.5l-0.3-0.3
		C124.6,296.5,106.6,280.9,117.3,260.6z"/>
	<path class="st9" d="M278,228.8v-0.1c-17.8-2.3-57.8,6.6-89.2-2.4c-17.9-5.1-33.3-15-45-23.6c-9.3,9.7-12.2,35.4,6.2,41.8l0.3,0.1
		l0,0c1.4,0.4,2.8,0.8,4.2,1l0,0c1.6,0.2,3.1,0.4,4.7,0.4c0,0-21.5,39.4,14.3,35.5c0,0-15.2,66.7,42.2,58s28.6-58,28.6-58
		s27-10.1,33.7-32.3l1.1-15.3C278.7,232.1,278.4,230.4,278,228.8z"/>
	<path class="st9" d="M179.4,180.9c16.8,2.3,37.4,5.3,61.7,9.2c2.8,0.5,5.7,0.7,8.5,0.8c1.9-1,3.9-2,5.9-3
		c-5.4-8.7-9.1-19.2-8.3-40.2c1.3-31.6-26.3-36.5-26.3-36.5c-16.9-3.5-28.9,7.4-35.1,24c-3.4,9.5-5,19.6-4.8,29.7
		C181.3,170.4,180.8,175.7,179.4,180.9z"/>
	<path class="st4" d="M452.4,300.3L452.4,300.3c0.8-0.1,1.7-0.2,2.6-0.3l0,0c2.4-0.3,5-0.5,7.8-0.5h0.5h1.9l0,0
		c3.1,0,6.3,0.1,9.8,0.4l0,0c4.9,0.4,9.8,1.2,14.6,2.2l0,0l1.8,0.4c1.5,0.4,3.1,0.8,4.6,1.2c3.1-8.7,7-18.5,9.9-23.3
		c1.9-3.1,3.8-6.4,5.6-9.9l1-9.5l0,0l3.7-36.5c-6.9,1.9-14,3.1-21.2,3.5c-17.3,14-39.6,17.8-59,17.9h-2.4l0.3,15l0.8,43.9l0,0
		C434.7,304.7,441.3,301.8,452.4,300.3z"/>
	<path class="st9" d="M421.1,336.3l-0.1,0.5L421.1,336.3L421.1,336.3z"/>
	<path class="st9" d="M421.6,335L421.6,335l0.1-0.5l0.1-0.4c-0.2,0.7-0.5,1.4-0.7,2.2l0,0L421.6,335z"/>
	<path class="st6" d="M421.9,334.1L421.9,334.1l-0.1,0.4L421.9,334.1z"/>
	<path class="st6" d="M465.7,352.4c2.6-4.9,11.9-8,16.4-4.4c0.2,0.2,0.5,0.4,0.7,0.6c0.7-3.2,1.4-6.3,2.1-9.1
		c-0.5-0.4-1-0.9-1.3-1.5c-2-3.4-5.5-9-4-13.2s6.8-2.9,9.4-0.5c0.8-2.6,1.3-4,1.3-4s0.4-1.1,1-3c0-0.2-0.1-0.4-0.1-0.6
		c-0.4-2.4,0.6-5.4,2.6-6.6c0.7-2,1.5-4.3,2.3-6.5c-1.6-0.4-3.1-0.8-4.6-1.2c-1.5,1.9-4.8,2.9-7.1,3.1c-4.7,0.4-9.8-1.9-12.2-5.9
		c1,0,1.9,0.1,2.9,0.2c-3.5-0.3-6.7-0.4-9.8-0.4c0.1,0.9-0.1,1.7-0.5,2.5c-0.6,3.5-3.8,4.9-7,3.4c-2.2-1.2-4-2.9-5.3-4.9
		c-11.1,1.5-17.7,4.4-17.7,4.4l0,0v0.1l0,0l-0.1,0.3v0.1l-0.2,0.4l-0.1,0.1l-0.3,0.6l-0.1,0.1l-0.4,0.8l-0.1,0.1l-0.5,1l0,0.1
		l-0.6,1.2l0,0l-0.7,1.4l-0.1,0.1l-0.7,1.5l-0.1,0.2l-0.7,1.5l-0.1,0.3l-0.8,1.7l-0.1,0.3l-0.8,1.8l-0.1,0.3c-0.3,0.7-0.6,1.3-0.9,2
		l-0.1,0.1c-0.3,0.7-0.6,1.4-0.9,2.2v0.1c-0.3,0.7-0.6,1.5-0.9,2.3l-0.1,0.3c-0.3,0.8-0.6,1.5-0.9,2.3l-0.1,0.4
		c-0.3,0.8-0.6,1.6-0.9,2.4l-0.1,0.4c-0.3,0.8-0.6,1.6-0.9,2.5l-0.1,0.4c-0.1,0.3-0.2,0.6-0.3,0.9l-0.4,1.2l-0.2,0.5l-0.1,0.4
		c-0.3,0.9-0.6,1.9-0.9,2.8l0,0.2c-0.3,0.9-0.6,1.9-0.9,2.9l-0.1,0.2c-0.3,1-0.6,1.9-0.8,2.9l-0.1,0.4c-0.3,1-0.5,1.9-0.8,2.9
		l-0.1,0.5c-0.2,1-0.5,2-0.7,3l-0.1,0.5c-0.2,1-0.4,2-0.7,3v0.2h21.7c1.6-1.4,4.3-1.1,6.4,0h23.5
		C465.8,355.8,464.5,354.6,465.7,352.4z M465.8,311.6c3.4-2.2,8.5-3.3,12.4-1.8s5.9,5.7,1.9,8.4c-2.5,1.6-5.6,2.3-8.5,2.8
		c-2.4,0.4-4.9,0.2-6.6-1.8C461.6,316.8,462.6,313.6,465.8,311.6z M436.9,351.6c-2.4,1.4-5.1,2.3-7.9,2.6c-2.6,0.5-5.4,0.6-7.2-1.7
		c-3.4-2.3-2.2-5.4,1-7.3c3.4-2.1,8.4-3.2,12.3-1.8S440.9,349,436.9,351.6L436.9,351.6z M441.2,339.4c-5.9,0.4-12.2-3.4-13.5-9.5
		c-1.1-4.7,3.7-5.9,7.5-5.5c4.7,0.6,10.9,3.1,13.4,7.5c0,0,0,0.1,0,0.1c0,0,0,0.1,0.1,0.1C450.5,336.7,444.9,339.1,441.2,339.4
		L441.2,339.4z M440.4,310.6c0.3-3.1,3.2-6.5,6.6-5.6c3.9,1.1,6.1,7,7.3,10.4c0.9,2.9,0.7,5.7-2.9,6.1
		C446.2,322.2,439.9,315.8,440.4,310.6L440.4,310.6z M457,345c-4.8-0.1-4.6-5.6-3.1-9c2.2-5,7.5-7.9,12.9-7.9c1.9,0,4.6,0.2,5.3,2.4
		s-0.9,4.7-2.1,6.4c-2.9,4-7.4,7.7-12.5,8.2C457.3,345.1,457.1,345.1,457,345L457,345z"/>
	<path class="st6" d="M480.3,356.5h0.9l0.1-0.4C481,356.3,480.6,356.4,480.3,356.5z"/>
	<path class="st6" d="M437.6,326.8c-2.4-0.8-8.2-2.3-7.8,1.9c0.5,4.6,5.2,8.4,9.6,9c3.1,0.4,8.5-0.8,6.8-4.9
		C444.5,329.7,440.8,327.9,437.6,326.8z"/>
	<path class="st6" d="M432.1,344.5c-3.1-0.4-14.4,2.8-8.4,6.9c0.1,0,0.1,0.1,0.2,0.1c1.9,2.4,5.1,1.4,7.6,0.7c1.6-0.4,3.8-1,4.9-2.3
		C438.6,347.3,434.2,344.8,432.1,344.5z"/>
	<path class="st6" d="M466.9,317.8c0.1,0.1,0.2,0.1,0.3,0.3c2.3,2.7,9.9,0.7,12.2-1.6c2.6-2.5-1.9-5.1-4.1-5.4
		C472.3,310.7,460.9,313.8,466.9,317.8z"/>
	<path class="st6" d="M449.2,310.1c-0.7-1.1-2.6-4.3-4.3-3.9s-2.3,3.4-2.2,4.8c0.1,1.3,0.5,2.6,1.2,3.7c1.4,2.5,3.7,4.4,6.3,5.5
		c0.4,0.2,0.9,0.4,1.4,0.4c0.5,0,0.4,0.1,0.6-0.5c0.3-1.3,0.2-2.7-0.3-4C451.3,314,450.3,312,449.2,310.1z"/>
	<path class="st6" d="M457.6,302.9c0.7,0.6,2,1.7,3,1.7s1.4-1.4,1.5-2.4c0,0,0-0.1,0-0.1V302c0.4-0.8,0.6-1.7,0.4-2.6
		c-2.8,0.1-5.4,0.3-7.8,0.5C455.7,301.1,456.6,302.1,457.6,302.9z"/>
	<path class="st6" d="M481.8,304.4c2.6,0.6,6.8,0,7.7-2.3c-4.8-1.1-9.7-1.8-14.6-2.2C476.7,302,479.1,303.7,481.8,304.4z"/>
	<path class="st6" d="M484.4,323.5c-1.9-0.7-2.7,0.4-2.8,2.4c-0.1,3.8,2,7.7,3.9,11c1-3.9,1.9-7.2,2.7-9.8
		C487.5,325.5,486.1,324.2,484.4,323.5z"/>
	<path class="st6" d="M480.4,349.4c-1.1-1-2.6-1.5-4.1-1.4c-3,0.1-5.7,1.4-7.8,3.6c-2.2,2.5,0.2,3.9,2.7,4.1c2,0.2,4.1,0.2,6.1,0
		c1.3-0.2,3.2-0.4,4.3-1.3c0.2-0.9,0.3-1.7,0.5-2.6C481.8,350.9,481.2,350.1,480.4,349.4z"/>
	<path class="st6" d="M465.9,329c-5-0.2-9.1,3.7-10.4,8.3c-0.7,2.6-0.4,6.6,3,6.8C463.8,343.4,475.7,329.4,465.9,329z"/>
	<path class="st14" d="M465,319.2c1.7,2,4.1,2.2,6.6,1.8c2.9-0.5,6-1.1,8.5-2.8c4-2.7,2.1-6.9-1.9-8.4s-9-0.4-12.4,1.8
		C462.6,313.6,461.6,316.8,465,319.2z M475.3,311.2c2.2,0.3,6.7,2.8,4.1,5.4c-2.4,2.3-10,4.3-12.2,1.6c-0.1-0.1-0.1-0.2-0.3-0.3
		C460.9,313.8,472.3,310.7,475.3,311.2L475.3,311.2z"/>
	<path class="st14" d="M437.6,356.5h6.4C441.9,355.4,439.3,355.1,437.6,356.5z"/>
	<path class="st14" d="M435.1,343.4c-3.9-1.4-8.9-0.3-12.3,1.8c-3.2,1.9-4.3,5-1,7.3c1.8,2.3,4.6,2.2,7.2,1.7
		c2.8-0.4,5.4-1.3,7.9-2.6C440.9,349,439.1,344.9,435.1,343.4z M436.4,349.9c-1.1,1.3-3.3,1.8-4.9,2.3c-2.5,0.7-5.8,1.7-7.6-0.7
		c-0.1-0.1-0.1-0.1-0.2-0.1c-6-4.1,5.3-7.3,8.4-6.9C434.2,344.8,438.6,347.3,436.4,349.9L436.4,349.9z"/>
	<path class="st14" d="M489.6,302c-0.9,2.4-5.1,3-7.7,2.3c-2.7-0.7-5.2-2.3-6.9-4.6l0,0c-1-0.1-2-0.1-2.9-0.2
		c2.4,4.1,7.6,6.3,12.2,5.9c2.3-0.2,5.7-1.1,7.1-3.1L489.6,302L489.6,302z"/>
	<path class="st14" d="M448.5,332C448.5,332,448.5,331.9,448.5,332c-2.4-4.5-8.6-6.9-13.4-7.5c-3.7-0.5-8.5,0.7-7.5,5.5
		c1.4,6,7.6,9.8,13.5,9.5c3.7-0.2,9.4-2.6,7.4-7.3C448.5,332.1,448.5,332,448.5,332z M439.5,337.7c-4.4-0.6-9.1-4.3-9.6-9
		c-0.4-4.2,5.4-2.7,7.8-1.9c3.2,1.1,6.9,2.9,8.6,6C447.9,336.9,442.5,338.1,439.5,337.7L439.5,337.7z"/>
	<path class="st14" d="M463.2,299.5h-0.5c0.2,0.9,0,1.8-0.4,2.6v0.1c0,0,0,0.1,0,0.1c-0.2,1-0.4,2.4-1.5,2.4s-2.3-1.1-3-1.7
		c-1-0.8-1.9-1.8-2.7-2.9l0,0c-0.9,0.1-1.8,0.2-2.6,0.3l0,0c1.3,2.1,3.1,3.8,5.3,4.9c3.1,1.6,6.4,0.2,7-3.4c0.4-0.8,0.6-1.6,0.5-2.5
		l0,0L463.2,299.5z"/>
	<path class="st14" d="M421.6,335L421.6,335c0.1-0.3,0.2-0.6,0.3-0.9c0,0,0,0,0-0.1v0.1l-0.1,0.5L421.6,335z"/>
	<path class="st14" d="M481.6,354.4c-1.1,0.9-3,1.2-4.3,1.3c-2,0.2-4.1,0.2-6.1,0c-2.5-0.3-4.9-1.6-2.7-4.1c2-2.2,4.8-3.5,7.8-3.6
		c1.5-0.1,3,0.4,4.1,1.4c0.8,0.7,1.4,1.5,1.8,2.4c0.2-1.1,0.4-2.1,0.6-3.1c-0.2-0.2-0.5-0.4-0.7-0.6c-4.6-3.6-13.8-0.5-16.4,4.4
		c-1.2,2.2,0.1,3.4,1.9,4.1h12.8c0.3-0.1,0.7-0.2,1-0.4L481.6,354.4z"/>
	<path class="st14" d="M479.6,324.9c-1.5,4.2,2,9.9,4,13.2c0.3,0.6,0.8,1.1,1.3,1.5c0.2-0.9,0.5-1.8,0.7-2.7
		c-1.9-3.2-4.1-7.1-3.9-11c0.1-2,0.8-3.1,2.8-2.4c1.7,0.7,3,1.9,3.8,3.5c0.3-1,0.6-1.9,0.8-2.7C486.4,322,481.2,320.7,479.6,324.9z"
		/>
	<path class="st14" d="M469.9,336.9c1.2-1.6,2.8-4.2,2.1-6.4s-3.4-2.4-5.3-2.4c-5.4,0.1-10.6,2.9-12.9,7.9c-1.5,3.4-1.7,8.9,3.1,9
		c0.1,0,0.3,0,0.4,0C462.5,344.6,467.1,340.8,469.9,336.9z M458.6,344.1c-3.5-0.1-3.7-4.1-3-6.8c1.2-4.6,5.4-8.5,10.4-8.3
		C475.7,329.4,463.8,343.4,458.6,344.1z"/>
	<path class="st14" d="M454.3,315.5c-1.1-3.4-3.3-9.4-7.3-10.4c-3.4-0.9-6.3,2.5-6.6,5.6c-0.5,5.1,5.8,11.6,11,11
		C454.9,321.2,455.2,318.4,454.3,315.5z M452.3,320.1c-0.2,0.6-0.2,0.5-0.6,0.5c-0.5,0-1-0.2-1.4-0.4c-2.6-1.1-4.9-3.1-6.3-5.5
		c-0.7-1.1-1.1-2.4-1.2-3.7c-0.1-1.4,0.7-4.5,2.2-4.8s3.6,2.8,4.3,3.9c1.1,1.9,2,3.9,2.7,6C452.5,317.4,452.6,318.8,452.3,320.1
		L452.3,320.1z"/>
	<path class="st14" d="M491.1,316.8c0,0.2,0.1,0.4,0.1,0.6c0.6-1.8,1.4-4.3,2.4-7.2C491.7,311.4,490.8,314.3,491.1,316.8z"/>
	<path class="st10" d="M278.6,339.8L278.6,339.8c0,0-0.6,6.3-1.4,16.7h116.4c0-3.1,0-6.3-0.1-9.5l0,0c0-0.6,0-1.1-0.1-1.7
		C352.5,351.2,278.6,339.8,278.6,339.8z"/>
	<path class="st10" d="M625.9,337c-0.5-1.5-0.9-2.1-0.9-2.1c-0.1,1.3-70.5-28.4-134.7-14.5c0,0-0.5,1.5-1.3,4
		c-0.2,0.8-0.5,1.7-0.8,2.7c-0.8,2.6-1.7,6-2.7,9.8c-0.2,0.9-0.4,1.8-0.7,2.7c-0.7,2.8-1.4,5.9-2.1,9.1c-0.2,1-0.4,2-0.6,3.1
		c-0.2,0.9-0.3,1.7-0.5,2.6l-0.3,1.8l-0.1,0.4h149.6c-1.1-5.9-2.2-10.5-3.2-13.9C627,340.1,626.3,338.2,625.9,337z"/>
	<path class="st4" d="M397.3,288.7c-0.6-0.4-1.2-0.8-1.6-1.3c0,0-3.6,12.1-7.1,19.1c-2.8,5.4-8.1,7.4-14.9,7.1
		c-2.9-0.2-5.9-0.6-8.7-1.3c-3.3-0.8-6.5-1.7-9.7-2.8c-2.8-1-5.7-2-8.6-3.2c-3.1-1.2-6.2-2.5-9.3-3.8l-3.9-1.7l-5.8-2.5l-4.7-2
		c-3.4-1.5-6.7-2.9-9.8-4c-2.5-1-4.8-1.8-7-2.5l-0.3-0.1c-3.5-1.1-6.6-2.1-9.4-3.2c-2.8-1-4.9-2-6.9-2.9c-2.2-1-4-2-5.6-2.9
		c-0.5-0.3-1-0.6-1.4-0.8c-0.9-0.5-1.7-1.1-2.3-1.5l-0.9-0.7l-0.3-0.2l-0.4,62.4l0,0c0,0,73.8,11.4,114.8,5.5c3.1-0.4,6-1,8.6-1.6
		l-4.5-54.9L397.3,288.7L397.3,288.7z"/>
	<path class="st4" d="M387.3,185.8l-16.3-8.4c-2.9-0.6-5.9-1.1-8.8-1.5c-15.6-2.3-31.3-3-47-1.9c-9.5,0.6-19,2-28.4,3.9l-7.5,51
		c0,0,4,2.4,10.5,6c1.5,0.9,3.3,1.8,5.1,2.7c2.6,1.4,5.4,2.9,8.5,4.4c2.4,1.2,4.9,2.4,7.4,3.7s5.5,2.6,8.3,3.9c2,0.9,4,1.8,6.1,2.7
		c2.5,1.1,5.1,2.1,7.7,3.1c2,0.8,4,1.5,6,2.3c2.5,0.9,5,1.8,7.4,2.5c2.1,0.7,4.2,1.3,6.3,1.9l2.5,0.7c2.2,0.6,4.4,1.1,6.4,1.5
		s3.9,0.8,5.6,1.2c4,0.8,7.4,1.3,10.4,1.6c2.6,0.3,5.3,0.4,7.9,0.4c1.7,0,3.3-0.1,5-0.4c4-0.6,5.1-1.8,5.1-1.8l-0.3-3.3l-0.5-5.6
		l-1.3-16l0,0L387.3,185.8z"/>
	<path class="st4" d="M428.2,245.6L428.2,245.6z"/>
	<path class="st4" d="M394.2,240.4L394.2,240.4z"/>
	<path class="st4" d="M393.7,240.3L393.7,240.3z"/>
	<path class="st4" d="M395.8,240.9L395.8,240.9z"/>
	<path class="st15" d="M428.2,245.6c1.8,0.1,3.6,0.1,5.4,0.2h2.4c19.3-0.1,41.6-3.9,59-17.9c-16.5,1-33-2.7-47.6-10.5
		c-20.1-10.7-43.3-22.8-60.1-31.6l6.3,54.5l0,0h0.1l0,0l0.4,0.1l0,0l1.6,0.4h0c8.9,2.2,18,3.7,27.1,4.4c1.7,0.1,3.4,0.2,5.2,0.3
		L428.2,245.6z"/>
	<path class="st13" d="M397,257.9l0.6,0.5c-0.8-0.8-1.7-1.4-2.6-2.1l0.6,0.4C395.9,257,396.4,257.4,397,257.9z"/>
	<path class="st13" d="M277.9,249.1l-1.9,25.3c0.8,1.2,1.8,2.2,3,3l0.3,0.2c0,0,0.2-0.5,0.6-1.3l0.2-0.5l0.3-0.9l0.3-0.6
		c0.4-1,0.8-2.1,1.3-3.4l0.2-0.6c0.4-1.1,0.8-2.3,1.2-3.6l0.5-1.4c0.3-0.9,0.6-1.8,0.8-2.7l0.2-0.7c0.6-1.9,1.1-3.9,1.7-6
		c0.2-0.7,0.4-1.4,0.5-2.1c1.5-6.2,2.4-12.5,2.8-18.9c-6.5-3.6-10.5-6-10.5-6l-0.4,4.9L277.9,249.1z"/>
	<path class="st13" d="M323.1,296.1c0.6-1.3,1.5-2.8,2.7-4.7c6.4-10.1,7.4-25.5,7.3-36.1c-2.6-1-5.1-2.1-7.7-3.1
		c-0.2,11.7-2.2,29.5-12.1,39.9C316.3,293.3,319.6,294.7,323.1,296.1z"/>
	<path class="st13" d="M383.1,299c-2.6,5.2-5.8,10.1-9.5,14.5c6.8,0.3,12.1-1.7,14.9-7.1c3.6-7,7.1-19.1,7.1-19.1s4.6-12.4-0.1-22.1
		l0,0c0,0-1.1,1.1-5.1,1.8c-1.7,0.2-3.3,0.4-5,0.4C387.6,276.4,388.6,288.4,383.1,299z"/>
	<path class="st13" d="M395.7,287.3c0.5,0.5,1,1,1.6,1.4L395.7,287.3z"/>
	<path class="st13" d="M357.5,308.7c0,0-0.9,0.3-2.2,0.7c3.2,1.1,6.4,2,9.7,2.8c6.4-8.4,16.8-24.3,14.5-35.6
		c-0.7-3.6-1.4-6.8-1.9-9.6c-3-0.3-6.4-0.8-10.4-1.6C376.6,290.2,357.5,308.7,357.5,308.7z"/>
	<path class="st13" d="M328.6,297.5c0,0-0.4,0.3-0.9,0.7l5.8,2.5c1-1.7,2.6-3.9,4.8-6.8c9.8-13.1,9.7-25.8,8.2-33.7
		c-2.5-0.8-4.9-1.6-7.4-2.5C343,284.1,328.6,297.5,328.6,297.5z"/>
	<path class="st13" d="M340.3,300.1c0,0-1.3,1.1-2.9,2.3c3.1,1.3,6.2,2.6,9.3,3.8c1.6-1.6,3.2-3.2,5-4.6c14-11.6,11.9-29.2,9.9-37.4
		c-2-0.5-4.1-1-6.4-1.5l-2.5-0.7C360.6,285.6,340.3,300.1,340.3,300.1z"/>
	<path class="st13" d="M306,289.5l0.3,0.1c7.7-12.1,12.1-25.9,13-40.1c-2.9-1.3-5.6-2.6-8.3-3.9c-1,10.7-4.2,27.2-14.3,40.7
		C299.4,287.4,302.4,288.5,306,289.5z"/>
	<path class="st13" d="M289.6,283.5c4.6-8.7,12.7-25.9,13.8-41.5c-3-1.5-5.9-3-8.5-4.4c-0.6,8-2.9,26.6-10.9,43
		C285.6,281.5,287.5,282.5,289.6,283.5z"/>
	<path class="st15" d="M325.8,291.4c-1.2,1.9-2.1,3.5-2.7,4.7l4.7,2c0.6-0.4,0.9-0.7,0.9-0.7s14.3-13.3,10.3-39.8
		c-2-0.7-4-1.5-6-2.2C333.2,265.9,332.2,281.3,325.8,291.4z"/>
	<path class="st16" d="M338.3,293.9c-2.2,2.9-3.7,5.1-4.8,6.8l3.9,1.7c1.6-1.2,2.9-2.3,2.9-2.3s20.3-14.5,12.4-38
		c-2.1-0.6-4.2-1.2-6.3-1.9C348,268,348.1,280.8,338.3,293.9z"/>
	<path class="st15" d="M351.6,301.6c-1.8,1.4-3.4,2.9-5,4.6c2.9,1.1,5.8,2.2,8.6,3.2c1.3-0.4,2.2-0.7,2.2-0.7s19.1-18.5,9.7-43.3
		c-1.8-0.3-3.6-0.7-5.6-1.2C363.6,272.5,365.7,290.1,351.6,301.6z"/>
	<path class="st16" d="M365,312.2c2.9,0.7,5.8,1.1,8.7,1.3c3.7-4.5,6.8-9.4,9.5-14.5c5.5-10.6,4.5-22.5,2.4-31.6
		c-2.7,0-5.3-0.1-7.9-0.4c0.5,2.8,1.1,6,1.9,9.6C381.8,288,371.3,303.8,365,312.2z"/>
	<path class="st16" d="M313.2,292.1c9.9-10.4,12-28.2,12.1-39.9c-2.1-0.9-4.1-1.8-6.1-2.7c-0.9,14.3-5.3,28.1-13,40.1
		C308.4,290.3,310.8,291.1,313.2,292.1z"/>
	<path class="st15" d="M296.6,286.4c10.1-13.5,13.3-30,14.3-40.7c-2.6-1.2-5.1-2.5-7.4-3.7c-1.1,15.6-9.2,32.8-13.8,41.5
		C291.7,284.4,294,285.4,296.6,286.4z"/>
	<path class="st16" d="M286.6,255.9c-0.5,2.1-1.1,4.1-1.7,6l-0.2,0.7c-0.3,0.9-0.6,1.8-0.8,2.7l-0.5,1.4c-0.4,1.3-0.8,2.5-1.2,3.6
		l-0.2,0.6c-0.5,1.3-0.9,2.4-1.3,3.4l-0.3,0.6l-0.3,0.9l-0.2,0.5c-0.4,0.9-0.6,1.3-0.6,1.3l0.9,0.7c0.7,0.5,1.5,1,2.3,1.5
		c0.4,0.3,0.9,0.6,1.4,0.8c8-16.4,10.3-35,10.9-43c-1.8-1-3.5-1.9-5.1-2.7c-0.3,6.4-1.2,12.7-2.8,18.9
		C287,254.4,286.8,255.1,286.6,255.9z"/>
	<path class="st8" d="M395.6,265.2c4.7,9.6,0.1,22.1,0.1,22.1l1.6,1.3l0,0l0.2,0.1l0.3,0.1l0.2,0.1l0.3,0.1h0.2l0.3,0.1h0.2h0.5h0.3
		h0.2l0.3-0.1l0.2-0.1l0.3-0.1l0.2-0.1l0.3-0.1l0.2-0.1l0.3-0.2l0.2-0.1l0.4-0.3l0.1-0.1l0.3-0.3l0.2-0.2l0.2-0.3l0.2-0.2l0.2-0.3
		l0.2-0.2l0.2-0.3l0.2-0.2l0.2-0.3l0.1-0.3l0.2-0.3l0.1-0.3l0.2-0.3l0.1-0.3l0.2-0.4l0.1-0.2l0.2-0.4l0.1-0.2l0.3-0.6l0.1-0.2
		l0.1-0.4l0.1-0.3l0.1-0.4l0.1-0.3l0.1-0.4l0.1-0.3l0.1-0.3l0.1-0.3l0.1-0.4l0.1-0.3l0.1-0.4l0.1-0.3l0.1-0.3v-0.2l0.1-0.4v-0.2
		c0-0.2,0-0.4,0.1-0.5l0,0c0.1-0.5,0.1-1,0.1-1.4c0-0.5-0.1-0.9-0.1-1.4c-0.1-0.4-0.2-0.9-0.3-1.3c-0.1-0.4-0.3-0.8-0.4-1.2
		c-0.9-2.4-2.1-4.6-3.5-6.7c-0.6-1-1.3-1.8-1.9-2.6c-1.1-1.4-2.3-2.6-3.5-3.8l-0.6-0.5c-0.6-0.5-1.1-0.9-1.4-1.2l-0.6-0.4h-0.1l0,0
		l0.5,5.7L395.6,265.2z"/>
	<path class="st8" d="M663.9,138l-0.7,25.4c14.3-1.1,29-1.8,41.7-1.8v-23.4c-5.2,4.8-12,7.4-19,7.4
		C677.1,145.7,669.4,143.2,663.9,138z"/>
	<path class="st9" d="M701.3,67.6c7.3,2.2,11.3,4.5,13.3,6.5c-3.1-3.9-7.4-6.7-12.2-8l-0.1,0.2C702,66.7,701.6,67.1,701.3,67.6z"/>
	<path class="st9" d="M695.7,66.1c0.3-0.4,0.6-0.8,1-1.2c-1.5-0.2-2.9-0.2-4.4-0.2c0,0.2-0.1,0.4-0.1,0.7
		C693.5,65.7,694.6,65.9,695.7,66.1z"/>
	<path class="st9" d="M685.9,145.6c7.1,0,13.9-2.6,19-7.4c12.3-11.1,15-30.9,15-30.9c0.2-2.1,0.3-4.1,0.4-6
		c1.2-11.1-0.5-19.2-4.1-25c0.6,1.2,0.5,2.6-0.2,3.7c0,0-17.4,21.2-38.2,18.8c-7.7-0.9-14.1-4.7-19.1-9.3c-0.4,1.4-0.7,2.8-0.9,4
		c-2.4,8.8-3.3,16.4-2.9,22.9c0.6,9.5,3.9,16.6,9,21.4C669.4,143.2,677.1,145.7,685.9,145.6z"/>
	<path class="st10" d="M97.6,239.7c6.8-10.2,12.3-23.1,16-37.1l0,0c0.6-2.4,1.2-4.8,1.7-7.2v-0.1c0.2-1.1,0.4-2.2,0.6-3.3l0.1-0.4
		c0.2-1.2,0.4-2.3,0.6-3.5v-0.3c1.1-7.2,1.7-14.5,1.6-21.8c0-2.1-0.1-4.1-0.2-6.2c-0.6-11-0.1-18.5,1-23.6c0.4-2.6,1.5-5.1,3-7.2
		c2.3-2.8,5.3-2.5,7.9-1.1c1.1,0.6,2.1,1.2,3,2c0.8,0.6,1.9,0.5,2.5-0.2c0.4-0.4,0.5-1,0.4-1.6c-0.4-1.8-1-3.5-1.7-5.3
		c-1.2-3.2-2.9-6.2-5-8.8c-6.2-8-17.4-14.9-37.7-13.4c-0.7,0-1.4,0.1-2.1,0.2c-45.8,4.7-24.1,40.7-31.6,61.4c0,0-62.1,53.9-8.3,71.8
		c0,0-21.4,17.9,9.5,27.2c7.3,2.2,14.7,0.6,21.6-3.8C86.7,253.4,92.5,247.3,97.6,239.7z"/>
	<path class="st13" d="M625.7,313.6c0.2-11.5,0.1-23.8-0.1-35.6c-1.4,0.6-2.9,0.8-4.3,0.6l-1.2-8.7c0,0-40.4,35.3-66.8,27.6
		c-14.2-4.1-28.4-19.9-38.5-33.5c-1.1,2.2-2.1,4.3-3.3,6.4c-1.8,3.5-3.7,6.8-5.6,9.9c-3,4.8-6.8,14.6-9.9,23.3
		c-0.8,2.3-1.6,4.5-2.3,6.5c-1,2.9-1.8,5.4-2.4,7.2s-1,3-1,3c64.2-14,134.6,15.8,134.7,14.5c0.3-5.5,0.5-11.5,0.7-17.9
		C625.7,315.8,625.7,314.7,625.7,313.6z"/>
	<path class="st13" d="M447.4,217.4c14.6,7.8,31,11.4,47.6,10.5c7.2-0.4,14.3-1.6,21.2-3.5l0,0c1.6-0.4,3.2-0.9,4.6-1.4l0,0
		c4.6-1.5,9.1-3.3,13.4-5.6c0,0-1.7,4.8-4.5,12c20,16.8,32.8,44.6,32.8,44.6C590.1,269.1,620,250,620,250c1.8,2,3.5,4.2,5,6.5
		c0-1.6-0.1-3.3-0.2-4.8c-0.5-16.9-1.2-28.8-1.2-28.8s5-1.2,12.9-3.2c3.1-0.8,6.7-1.7,10.5-2.7c19.9-5.2,48.4-13,69-20.4
		c6.7-2.3,13.1-5,19.3-8.3c4.2-2.4,7.5-4.9,9.1-7.7c2.5-4.1,1.4-8.7-5.2-13.9c-4.7-3.7-17.9-5.1-34.5-5.1c-12.7,0-27.4,0.7-41.7,1.8
		l-5.7,0.4c-9.4,0.8-18.5,1.6-26.6,2.4c-11.3,21-53.2,67.8-86.9,13.5c-2-3.2-4.5-6.1-7.3-8.5c-4.6,1.3-10.3,2.9-16.8,4.2
		c-18.6,4-43,7-62.4,1.3c-6.8-2-12.8-3.9-18.2-5.6c-5.2-1.7-9.9-3.1-14.4-4.4c-10-2.7-18.7-4.1-28.6-2.9c-6.7,0.9-13.3,2.6-19.6,5.1
		c-5.8,2.2-12.5,5-12.5,5l6.9,3.5l16.3,8.4C404.1,194.5,427.3,206.7,447.4,217.4z"/>
	<path class="st8" d="M553.2,297.5c26.3,7.7,66.8-27.6,66.8-27.6l1.2,8.7c1.5,0.2,3,0,4.3-0.6c2-0.9,4-3,4.2-7.6
		c0.3-4.8-2.2-10-4.7-13.9c-1.5-2.3-3.2-4.5-5-6.5c0,0-30,19-57.5,23.9c0,0-12.8-27.7-32.8-44.6c-2.8-2.4-5.8-4.5-9-6.4l0,0
		c-1.4,0.5-3,0.9-4.6,1.4l0,0l-3.7,36.5l0,0c0.7,1,1.5,2.1,2.3,3.2C524.9,277.6,539,293.3,553.2,297.5z"/>
	<path class="st15" d="M138.2,254c-2.1,1.2-4.3,2.2-6.5,3c-7,21.2,3.5,34.2,4.8,35.6l5.2-1.9c-0.4-0.9-0.9-1.8-1.4-2.9
		C134.9,277.7,136.4,263.1,138.2,254z"/>
	<path class="st16" d="M123.9,259.3c-0.9,0.2-1.8,0.4-2.8,0.6l-3.9,0.7c-10.6,20.3,7.4,35.9,7.4,35.9l0.3,0.3l4.9-1.8
		c-0.6-1.2-1.4-2.5-2.3-4C119.5,277.9,121.3,266.3,123.9,259.3z"/>
	<path class="st15" d="M110.3,261.7c-2.1,0.3-4.1,0.6-6.1,0.9c-11.4,21,4.4,39.6,4.4,39.6l0,0c2.8-0.6,5.5-1.4,8.1-2.4l1.3-0.5
		c-0.8-0.8-1.6-1.8-2.7-2.8C103.3,284.5,107.2,269.2,110.3,261.7z"/>
	<path class="st16" d="M93,276.5c2.9-6.1,4.8-10.5,6-13.2l-5,0.7l-2.7,0.4c-4.2,6-10.1,17.2-4.8,27.7c1.7,3.4,3.8,6.6,6.1,9.6
		c2,0.8,4.1,1.2,6.3,1.4h0.4h0.8c0.8,0,1.7,0,2.5,0C97.4,296.4,89.2,284.3,93,276.5z"/>
	<path class="st16" d="M150.3,244.5L150.3,244.5l-1,1.3c-14,18.6-4.3,36.3-0.1,42.3c4-1.4,7-2.4,8.6-3c-14.9-15.2-5.1-36.4-3.3-39.6
		l0,0C153.1,245.3,151.7,244.9,150.3,244.5z"/>
	<path class="st10" d="M517.6,157.4c0.7,0.9,1.4,1.7,2.2,2.4c1.9,1.8,4.1,3.2,6.5,4.4c3.8,1.8,7.3,4.2,10.4,6.9
		c2.8,2.5,5.3,5.3,7.3,8.5c33.7,54.4,75.6,7.5,86.9-13.5c0.7-1.3,1.3-2.5,1.7-3.6c8.9-21.1-4.5-33.7-4.5-33.7
		c10.8,0.1,24-13.8,13.9-26.4s-33.1-3.1-33.1-3.1s25.9-33.9-7.8-29.9c-33.7,3.9-4.1,30.9-28.4,18.1S544.9,103,544.9,103
		c-35.1-6.2-28.2,18.7-21.3,33.5c-2.3,2.2-4.3,4.7-5.9,7.5C515.2,148.4,514.5,153.1,517.6,157.4z"/>
	<path class="st8" d="M79.5,293.3L79.5,293.3c-2.2-13.4,4.4-27.9,4.4-27.9l0,0h-0.1l0,0l-2,0.4l0,0l-1.9,0.4l-0.4,0.1l-1.1,0.3
		l-0.3,0.1l-0.5,0.1l-1.2,0.3l-0.6,0.2l-1.1,0.3l-0.6,0.2l-0.9,0.3l-0.6,0.2l-0.8,0.3l-0.5,0.3l-0.8,0.4l-0.5,0.3l-0.7,0.4l-0.5,0.3
		l-0.6,0.4l-0.4,0.3c-0.2,0.2-0.4,0.3-0.6,0.5l-0.4,0.4c-0.2,0.2-0.3,0.3-0.5,0.5l-0.3,0.4c-0.2,0.2-0.3,0.4-0.4,0.6
		s-0.2,0.3-0.3,0.4c-0.1,0.1-0.2,0.4-0.4,0.6c-0.1,0.2-0.2,0.3-0.2,0.4c-0.1,0.1-0.2,0.5-0.3,0.7s-0.1,0.3-0.2,0.4
		c0,0.2-0.2,0.6-0.3,0.8c-0.1,0.3-0.1,0.3-0.1,0.4c-0.1,0.4-0.2,0.9-0.3,1.3l-0.3,2.6l-0.7,5l-0.1,0.8l-0.2,1.4l-0.1,0.6L62,290
		l-0.2,1.1l-0.2,1.8l9.3,6.8l0,0C70.9,299.7,74.5,292.2,79.5,293.3z"/>
	<path class="st9" d="M692.4,64.7c0.4-2.8,1.2-5.5,2.4-8.1c2.6-6.1-1.4-12.5-6,4c-0.4,1.3-0.6,2.6-0.8,4c1.5,0.3,3,0.6,4.4,0.8
		C692.3,65.2,692.3,65,692.4,64.7z"/>
	<path class="st9" d="M701.3,67.6c0.4-0.4,0.7-0.9,1-1.4l0.1-0.2c3.7-5.2,4.1-10.6-4.1-2.8c-0.6,0.6-1.2,1.1-1.7,1.7
		c-0.5,0.6-0.7,0.8-1,1.2C697.8,66.6,699.6,67.1,701.3,67.6z"/>
	<path class="st9" d="M716,80c0.7-1.1,0.8-2.5,0.2-3.7c-0.4-0.8-0.9-1.6-1.5-2.2c-2-2-5.9-4.3-13.3-6.5c-1.7-0.5-3.5-1-5.6-1.5
		c-1.1-0.3-2.2-0.5-3.4-0.8c-1.4-0.3-2.8-0.6-4.4-0.8h-0.3c-27-4.8-29.6-13.4-29.6-13.4s-12.7,15.8-0.2,24.6l-12.3-3.7
		c3.3,6.6,7.7,12.5,13.1,17.5c5,4.5,11.4,8.4,19.1,9.3C698.6,101.2,716,80,716,80z"/>
	<path class="st15" d="M241.1,190.1c-24.4-4-45-7-61.7-9.2c-21.1-2.8-36-4.5-44.5-5.4l-3.7-0.4c-3-0.3-4.6-0.4-4.6-0.4l-5,12.3l0,0
		c0.8,0.1,1.6,0.4,2.2,0.8c0.3,0.2,0.6,0.4,1,0.6c0.7,0.4,1.4,0.9,2.2,1.5c4,2.9,9.7,7.6,16.8,12.8c11.7,8.6,27.1,18.5,45,23.6
		c31.4,8.9,71.4,0.1,89.2,2.4l0.8,0.1l0.6,0.1l7.5-51c-10.8,2.2-21.3,5.6-31.3,10.1c-2.1,1-4.1,2-5.9,3
		C246.8,190.9,244,190.6,241.1,190.1z"/>
</g>
</svg>
