<svg id="Capa_1" data-name="Capa 1" xmlns="http://www.w3.org/2000/svg" xmlns:xlink="http://www.w3.org/1999/xlink" viewBox="0 0 1366 357"><defs><style>.cls-1,.cls-5{fill:none;}.cls-2{fill:url(#Degradado_sin_nombre_5);}.cls-3{clip-path:url(#clip-path);}.cls-4{opacity:0.5;}.cls-5{stroke:#f0f0f0;stroke-miterlimit:10;}</style><radialGradient id="Degradado_sin_nombre_5" cx="1263.47" cy="-39" r="933.79" gradientUnits="userSpaceOnUse"><stop offset="0" stop-color="#23d9b7"/><stop offset="1" stop-color="#256ed8"/></radialGradient><clipPath id="clip-path"><rect class="cls-1" width="1366" height="357"/></clipPath></defs><title>banner</title><rect class="cls-2" width="1366" height="357"/><g class="cls-3"><g class="cls-4"><line class="cls-5" x1="761.24" y1="-792.77" x2="-230.43" y2="198.9"/><line class="cls-5" x1="768.94" y1="-785.06" x2="-222.73" y2="206.6"/><line class="cls-5" x1="776.64" y1="-777.36" x2="-215.03" y2="214.31"/><line class="cls-5" x1="784.34" y1="-769.66" x2="-207.32" y2="222.01"/><line class="cls-5" x1="792.05" y1="-761.95" x2="-199.62" y2="229.71"/><line class="cls-5" x1="799.75" y1="-754.25" x2="-191.92" y2="237.42"/><line class="cls-5" x1="807.45" y1="-746.55" x2="-184.21" y2="245.12"/><line class="cls-5" x1="815.16" y1="-738.84" x2="-176.51" y2="252.82"/><line class="cls-5" x1="822.86" y1="-731.14" x2="-168.81" y2="260.53"/><line class="cls-5" x1="830.56" y1="-723.44" x2="-161.1" y2="268.23"/><line class="cls-5" x1="838.27" y1="-715.73" x2="-153.4" y2="275.93"/><line class="cls-5" x1="845.97" y1="-708.03" x2="-145.7" y2="283.64"/><line class="cls-5" x1="853.67" y1="-700.33" x2="-137.99" y2="291.34"/><line class="cls-5" x1="861.38" y1="-692.63" x2="-130.29" y2="299.04"/><line class="cls-5" x1="869.08" y1="-684.92" x2="-122.59" y2="306.75"/><line class="cls-5" x1="876.78" y1="-677.22" x2="-114.89" y2="314.45"/><line class="cls-5" x1="884.49" y1="-669.52" x2="-107.18" y2="322.15"/><line class="cls-5" x1="892.19" y1="-661.81" x2="-99.48" y2="329.85"/><line class="cls-5" x1="899.89" y1="-654.11" x2="-91.78" y2="337.56"/><line class="cls-5" x1="907.59" y1="-646.41" x2="-84.07" y2="345.26"/><line class="cls-5" x1="915.3" y1="-638.7" x2="-76.37" y2="352.96"/><line class="cls-5" x1="923" y1="-631" x2="-68.67" y2="360.67"/><line class="cls-5" x1="930.7" y1="-623.3" x2="-60.96" y2="368.37"/><line class="cls-5" x1="938.41" y1="-615.59" x2="-53.26" y2="376.07"/><line class="cls-5" x1="946.11" y1="-607.89" x2="-45.56" y2="383.78"/><line class="cls-5" x1="953.81" y1="-600.19" x2="-37.85" y2="391.48"/><line class="cls-5" x1="961.52" y1="-592.48" x2="-30.15" y2="399.18"/><line class="cls-5" x1="969.22" y1="-584.78" x2="-22.45" y2="406.89"/><line class="cls-5" x1="976.92" y1="-577.08" x2="-14.74" y2="414.59"/><line class="cls-5" x1="984.63" y1="-569.38" x2="-7.04" y2="422.29"/><line class="cls-5" x1="992.33" y1="-561.67" x2="0.66" y2="430"/><line class="cls-5" x1="1000.03" y1="-553.97" x2="8.36" y2="437.7"/><line class="cls-5" x1="1007.73" y1="-546.27" x2="16.07" y2="445.4"/><line class="cls-5" x1="1015.44" y1="-538.56" x2="23.77" y2="453.1"/><line class="cls-5" x1="1023.14" y1="-530.86" x2="31.47" y2="460.81"/><line class="cls-5" x1="1030.84" y1="-523.16" x2="39.18" y2="468.51"/><line class="cls-5" x1="1038.55" y1="-515.45" x2="46.88" y2="476.21"/><line class="cls-5" x1="1046.25" y1="-507.75" x2="54.58" y2="483.92"/><line class="cls-5" x1="1053.95" y1="-500.05" x2="62.29" y2="491.62"/><line class="cls-5" x1="1061.66" y1="-492.34" x2="69.99" y2="499.32"/><line class="cls-5" x1="1069.36" y1="-484.64" x2="77.69" y2="507.03"/><line class="cls-5" x1="1077.06" y1="-476.94" x2="85.4" y2="514.73"/><line class="cls-5" x1="1084.77" y1="-469.23" x2="93.1" y2="522.43"/><line class="cls-5" x1="1092.47" y1="-461.53" x2="100.8" y2="530.14"/><line class="cls-5" x1="1100.17" y1="-453.83" x2="108.5" y2="537.84"/><line class="cls-5" x1="1107.88" y1="-446.13" x2="116.21" y2="545.54"/><line class="cls-5" x1="1115.58" y1="-438.42" x2="123.91" y2="553.24"/><line class="cls-5" x1="1123.28" y1="-430.72" x2="131.61" y2="560.95"/><line class="cls-5" x1="1130.98" y1="-423.02" x2="139.32" y2="568.65"/><line class="cls-5" x1="1138.69" y1="-415.31" x2="147.02" y2="576.35"/><line class="cls-5" x1="1146.39" y1="-407.61" x2="154.72" y2="584.06"/><line class="cls-5" x1="1154.09" y1="-399.91" x2="162.43" y2="591.76"/><line class="cls-5" x1="1161.8" y1="-392.2" x2="170.13" y2="599.46"/><line class="cls-5" x1="1169.5" y1="-384.5" x2="177.83" y2="607.17"/><line class="cls-5" x1="1177.2" y1="-376.8" x2="185.54" y2="614.87"/><line class="cls-5" x1="1184.91" y1="-369.09" x2="193.24" y2="622.57"/><line class="cls-5" x1="1192.61" y1="-361.39" x2="200.94" y2="630.28"/><line class="cls-5" x1="1200.31" y1="-353.69" x2="208.65" y2="637.98"/><line class="cls-5" x1="1208.02" y1="-345.99" x2="216.35" y2="645.68"/><line class="cls-5" x1="1215.72" y1="-338.28" x2="224.05" y2="653.39"/><line class="cls-5" x1="1223.42" y1="-330.58" x2="231.75" y2="661.09"/><line class="cls-5" x1="1231.12" y1="-322.88" x2="239.46" y2="668.79"/><line class="cls-5" x1="1238.83" y1="-315.17" x2="247.16" y2="676.49"/><line class="cls-5" x1="1246.53" y1="-307.47" x2="254.86" y2="684.2"/><line class="cls-5" x1="1254.23" y1="-299.77" x2="262.57" y2="691.9"/><line class="cls-5" x1="1261.94" y1="-292.06" x2="270.27" y2="699.6"/><line class="cls-5" x1="1269.64" y1="-284.36" x2="277.97" y2="707.31"/><line class="cls-5" x1="1277.34" y1="-276.66" x2="285.68" y2="715.01"/><line class="cls-5" x1="1285.05" y1="-268.95" x2="293.38" y2="722.71"/><line class="cls-5" x1="1292.75" y1="-261.25" x2="301.08" y2="730.42"/><line class="cls-5" x1="1300.45" y1="-253.55" x2="308.79" y2="738.12"/><line class="cls-5" x1="1308.16" y1="-245.84" x2="316.49" y2="745.82"/><line class="cls-5" x1="1315.86" y1="-238.14" x2="324.19" y2="753.53"/><line class="cls-5" x1="1323.56" y1="-230.44" x2="331.9" y2="761.23"/><line class="cls-5" x1="1331.27" y1="-222.74" x2="339.6" y2="768.93"/><line class="cls-5" x1="1338.97" y1="-215.03" x2="347.3" y2="776.64"/><line class="cls-5" x1="1346.67" y1="-207.33" x2="355" y2="784.34"/><line class="cls-5" x1="1354.37" y1="-199.63" x2="362.71" y2="792.04"/><line class="cls-5" x1="1362.08" y1="-191.92" x2="370.41" y2="799.74"/><line class="cls-5" x1="1369.78" y1="-184.22" x2="378.11" y2="807.45"/><line class="cls-5" x1="1377.48" y1="-176.52" x2="385.82" y2="815.15"/><line class="cls-5" x1="1385.19" y1="-168.81" x2="393.52" y2="822.85"/><line class="cls-5" x1="1392.89" y1="-161.11" x2="401.22" y2="830.56"/><line class="cls-5" x1="1400.59" y1="-153.41" x2="408.93" y2="838.26"/><line class="cls-5" x1="1408.3" y1="-145.7" x2="416.63" y2="845.96"/><line class="cls-5" x1="1416" y1="-138" x2="424.33" y2="853.67"/><line class="cls-5" x1="1423.7" y1="-130.3" x2="432.04" y2="861.37"/><line class="cls-5" x1="1431.41" y1="-122.6" x2="439.74" y2="869.07"/><line class="cls-5" x1="1439.11" y1="-114.89" x2="447.44" y2="876.78"/><line class="cls-5" x1="1446.81" y1="-107.19" x2="455.14" y2="884.48"/><line class="cls-5" x1="1454.52" y1="-99.49" x2="462.85" y2="892.18"/><line class="cls-5" x1="1462.22" y1="-91.78" x2="470.55" y2="899.88"/><line class="cls-5" x1="1469.92" y1="-84.08" x2="478.25" y2="907.59"/><line class="cls-5" x1="1477.62" y1="-76.38" x2="485.96" y2="915.29"/><line class="cls-5" x1="1485.33" y1="-68.67" x2="493.66" y2="922.99"/><line class="cls-5" x1="1493.03" y1="-60.97" x2="501.36" y2="930.7"/><line class="cls-5" x1="1500.73" y1="-53.27" x2="509.07" y2="938.4"/><line class="cls-5" x1="1508.44" y1="-45.56" x2="516.77" y2="946.1"/><line class="cls-5" x1="1516.14" y1="-37.86" x2="524.47" y2="953.81"/><line class="cls-5" x1="1523.84" y1="-30.16" x2="532.18" y2="961.51"/><line class="cls-5" x1="1531.55" y1="-22.45" x2="539.88" y2="969.21"/><line class="cls-5" x1="1539.25" y1="-14.75" x2="547.58" y2="976.92"/><line class="cls-5" x1="1546.95" y1="-7.05" x2="555.29" y2="984.62"/><line class="cls-5" x1="1554.66" y1="0.65" x2="562.99" y2="992.32"/><line class="cls-5" x1="1562.36" y1="8.36" x2="570.69" y2="1000.03"/><line class="cls-5" x1="1570.06" y1="16.06" x2="578.39" y2="1007.73"/><line class="cls-5" x1="1577.76" y1="23.76" x2="586.1" y2="1015.43"/><line class="cls-5" x1="1585.47" y1="31.47" x2="593.8" y2="1023.13"/><line class="cls-5" x1="1593.17" y1="39.17" x2="601.5" y2="1030.84"/><line class="cls-5" x1="1600.87" y1="46.87" x2="609.21" y2="1038.54"/><line class="cls-5" x1="1608.58" y1="54.58" x2="616.91" y2="1046.24"/><line class="cls-5" x1="1616.28" y1="62.28" x2="624.61" y2="1053.95"/><line class="cls-5" x1="1623.98" y1="69.98" x2="632.32" y2="1061.65"/><line class="cls-5" x1="1628.3" y1="81.03" x2="636.63" y2="1072.7"/><line class="cls-5" x1="1632.61" y1="92.08" x2="640.95" y2="1083.75"/><line class="cls-5" x1="1636.93" y1="103.13" x2="645.26" y2="1094.79"/><line class="cls-5" x1="1641.24" y1="114.17" x2="649.57" y2="1105.84"/><line class="cls-5" x1="1645.56" y1="125.22" x2="653.89" y2="1116.89"/></g></g></svg>