<svg id="Capa_1" data-name="Capa 1" xmlns="http://www.w3.org/2000/svg" xmlns:xlink="http://www.w3.org/1999/xlink" viewBox="0 0 757.55 306.41"><defs><style>.cls-1,.cls-4{fill:none;}.cls-2{clip-path:url(#clip-path);}.cls-3{opacity:0.5;}.cls-4{stroke:#f0f0f0;stroke-miterlimit:10;}.cls-5{fill:#2e45ce;}.cls-6{fill:#fff;}.cls-7{fill:#038480;}.cls-8{fill:#ff8868;}.cls-9{fill:#9f5e39;}.cls-10{fill:#063155;}.cls-11{fill:#52cc2f;}.cls-12{fill:#6e8aff;}.cls-13{fill:#ff4239;}.cls-14{fill:#5df7fe;}.cls-15{fill:#f9bb30;}.cls-16{fill:#3da2d0;}</style><clipPath id="clip-path"><rect class="cls-1" x="-335.45" y="-703.36" width="1366" height="357"/></clipPath></defs><title>banner</title><g class="cls-2"><g class="cls-3"><line class="cls-4" x1="934.19" y1="-987.72" x2="-57.48" y2="3.94"/><line class="cls-4" x1="941.89" y1="-980.02" x2="-49.78" y2="11.65"/><line class="cls-4" x1="949.59" y1="-972.32" x2="-42.07" y2="19.35"/><line class="cls-4" x1="957.3" y1="-964.62" x2="-34.37" y2="27.05"/><line class="cls-4" x1="965" y1="-956.91" x2="-26.67" y2="34.76"/><line class="cls-4" x1="972.7" y1="-949.21" x2="-18.96" y2="42.46"/><line class="cls-4" x1="980.41" y1="-941.51" x2="-11.26" y2="50.16"/><line class="cls-4" x1="988.11" y1="-933.8" x2="-3.56" y2="57.86"/><line class="cls-4" x1="995.81" y1="-926.1" x2="4.15" y2="65.57"/><line class="cls-4" x1="1003.52" y1="-918.4" x2="11.85" y2="73.27"/><line class="cls-4" x1="1011.22" y1="-910.69" x2="19.55" y2="80.97"/><line class="cls-4" x1="1018.92" y1="-902.99" x2="27.26" y2="88.68"/><line class="cls-4" x1="1026.63" y1="-895.29" x2="34.96" y2="96.38"/><line class="cls-4" x1="1034.33" y1="-887.58" x2="42.66" y2="104.08"/><line class="cls-4" x1="1042.03" y1="-879.88" x2="50.37" y2="111.79"/><line class="cls-4" x1="1049.74" y1="-872.18" x2="58.07" y2="119.49"/><line class="cls-4" x1="1057.44" y1="-864.48" x2="65.77" y2="127.19"/><line class="cls-4" x1="1065.14" y1="-856.77" x2="73.47" y2="134.9"/><line class="cls-4" x1="1072.84" y1="-849.07" x2="81.18" y2="142.6"/><line class="cls-4" x1="1080.55" y1="-841.37" x2="88.88" y2="150.3"/><line class="cls-4" x1="1088.25" y1="-833.66" x2="96.58" y2="158"/><line class="cls-4" x1="1095.95" y1="-825.96" x2="104.29" y2="165.71"/><line class="cls-4" x1="1103.66" y1="-818.26" x2="111.99" y2="173.41"/><line class="cls-4" x1="1111.36" y1="-810.55" x2="119.69" y2="181.11"/><line class="cls-4" x1="1119.06" y1="-802.85" x2="127.4" y2="188.82"/><line class="cls-4" x1="1126.77" y1="-795.15" x2="135.1" y2="196.52"/><line class="cls-4" x1="1134.47" y1="-787.44" x2="142.8" y2="204.22"/><line class="cls-4" x1="1142.17" y1="-779.74" x2="150.51" y2="211.93"/><line class="cls-4" x1="1149.88" y1="-772.04" x2="158.21" y2="219.63"/><line class="cls-4" x1="1157.58" y1="-764.33" x2="165.91" y2="227.33"/><line class="cls-4" x1="1165.28" y1="-756.63" x2="173.61" y2="235.04"/><line class="cls-4" x1="1172.99" y1="-748.93" x2="181.32" y2="242.74"/><line class="cls-4" x1="1180.69" y1="-741.23" x2="189.02" y2="250.44"/><line class="cls-4" x1="1188.39" y1="-733.52" x2="196.72" y2="258.15"/><line class="cls-4" x1="1196.09" y1="-725.82" x2="204.43" y2="265.85"/><line class="cls-4" x1="1203.8" y1="-718.12" x2="212.13" y2="273.55"/><line class="cls-4" x1="1211.5" y1="-710.41" x2="219.83" y2="281.25"/><line class="cls-4" x1="1219.2" y1="-702.71" x2="227.54" y2="288.96"/><line class="cls-4" x1="1226.91" y1="-695.01" x2="235.24" y2="296.66"/><line class="cls-4" x1="1234.61" y1="-687.3" x2="242.94" y2="304.36"/><line class="cls-4" x1="1242.31" y1="-679.6" x2="250.65" y2="312.07"/><line class="cls-4" x1="1250.02" y1="-671.9" x2="258.35" y2="319.77"/><line class="cls-4" x1="1257.72" y1="-664.19" x2="266.05" y2="327.47"/><line class="cls-4" x1="1265.42" y1="-656.49" x2="273.76" y2="335.18"/><line class="cls-4" x1="1273.13" y1="-648.79" x2="281.46" y2="342.88"/><line class="cls-4" x1="1280.83" y1="-641.08" x2="289.16" y2="350.58"/><line class="cls-4" x1="1288.53" y1="-633.38" x2="296.86" y2="358.29"/><line class="cls-4" x1="1292.85" y1="-622.33" x2="301.18" y2="369.33"/><line class="cls-4" x1="1297.16" y1="-611.29" x2="305.49" y2="380.38"/><line class="cls-4" x1="1301.48" y1="-600.24" x2="309.81" y2="391.43"/><line class="cls-4" x1="1305.79" y1="-589.19" x2="314.12" y2="402.48"/><line class="cls-4" x1="1310.1" y1="-578.14" x2="318.44" y2="413.52"/></g></g><path class="cls-1" d="M54.88,288.49h0Z"/><path class="cls-1" d="M53.52,288.49h0Z"/><path class="cls-1" d="M69.62,288.6l-2.27,0Z"/><path class="cls-1" d="M58.09,288.5h0Z"/><path class="cls-1" d="M88.4,141.42l-.08.43Z"/><path class="cls-1" d="M71.19,252.86l.45,0-.44,0Z"/><path class="cls-1" d="M66.82,288.56l-1.6,0Z"/><path class="cls-1" d="M64.46,288.54h0Z"/><path class="cls-1" d="M62.4,288.52h0Z"/><path class="cls-1" d="M60.48,288.51h0Z"/><path class="cls-1" d="M55.62,288.49h0Z"/><path class="cls-1" d="M72.49,252.92c.81,0,1.65,0,2.54,0a38.53,38.53,0,0,0,6-.83,38.53,38.53,0,0,1-6,.83C74.14,253,73.31,252.95,72.49,252.92Z"/><path class="cls-1" d="M251.16,178.68l-.82-.12,0,.1Z"/><path class="cls-1" d="M484.88,210.72l-1,9.55c1.11-2.09,2.19-4.23,3.26-6.39C486.38,212.81,485.61,211.76,484.88,210.72Z"/><path class="cls-1" d="M598,227.86c.21,11.79.3,24.14.12,35.6l.36-2.32,2.34-14.88.84-5.35.29-1.82c.57-3.36,1.09-6.63,1.57-9.86q.41-2.72.78-5.37,1-7.36,1.82-14.26.31-2.77.59-5.47.85-8.28,1.38-15.77L597.3,201.62c.05,1.56.1,3.17.15,4.81,2.51,3.89,5,9,4.73,13.85C602,224.91,600,227,598,227.86Z"/><path class="cls-1" d="M252.48,225.63l.34-.85Z"/><path class="cls-1" d="M89,137.69l0,.25,0-.25a32.78,32.78,0,0,0,5-.79h0A32.78,32.78,0,0,1,89,137.69Z"/><path class="cls-1" d="M87.68,145.13l0,.12Z"/><path class="cls-1" d="M99,124.58s1.54.13,4.55.42l2.15-.71c-12.8-9.09-20.4-23.7-3.34-46.48-2.65-1.36-5.61-1.7-7.94,1.13q-1.52,3.51-3,7.2c-1.1,5.07-1.55,12.62-1,23.61.11,2.05.16,4.12.18,6.18A57.16,57.16,0,0,1,99,124.58Z"/><polygon class="cls-1" points="85.98 152.42 85.98 152.42 85.98 152.42 85.98 152.42"/><path class="cls-1" d="M725,244.58l-1.58-3.76-2.11-5c-2.26-5.4-4.24-10.11-6-14.27q-1.17-2.73-2.24-5.15c-1.64-3.71-3.12-6.91-4.52-9.74.7,7,1.14,14.65,1.24,22.85,0,1.78,0,3.6,0,5.44q0,4.78-.21,9.82c-.07,1.86-.14,3.74-.24,5.65v.09q-.88,16.88-.15,33.77.09,1.95.19,3.89l.81-1.71c1.62-3.44,3.32-7.19,5-11,.73-1.69,1.46-3.38,2.16-5.07,1.71-4.1,3.3-8.11,4.6-11.74.67-1.86,1.25-3.61,1.74-5.21C725,249.12,725.56,245.89,725,244.58Z"/><path class="cls-1" d="M255,229.68c-.89-.54-1.67-1.06-2.34-1.54C253.34,228.62,254.12,229.14,255,229.68Z"/><path class="cls-1" d="M71.89,288.64l-2,0Z"/><path class="cls-1" d="M116.8,291l-2.44-.25Z"/><path class="cls-1" d="M113.56,290.7l-1.72-.16Z"/><path class="cls-1" d="M105.75,290l-2.61-.18Z"/><path class="cls-1" d="M102.43,289.82l-2-.12Z"/><path class="cls-1" d="M108.35,290.24l-2.09-.16Z"/><path class="cls-1" d="M122,275.53A42.51,42.51,0,0,0,117.63,287,42.51,42.51,0,0,1,122,275.53Z"/><polygon class="cls-1" points="367.74 211.81 368.01 215.12 368.01 215.12 367.74 211.81"/><path class="cls-1" d="M492.24,109.72a15.29,15.29,0,0,1-2.22-2.43,65.46,65.46,0,0,0,2.3,18c6.44-1.39,12.19-2.91,16.79-4.24a47.73,47.73,0,0,0-10.42-6.9A28.92,28.92,0,0,1,492.24,109.72Z"/><path class="cls-1" d="M253.07,224.15c.37-.95.8-2.08,1.26-3.36C253.86,222.07,253.44,223.2,253.07,224.15Z"/><path class="cls-1" d="M110.93,290.46l-1.74-.15Z"/><path class="cls-1" d="M76.9,288.74l-1.75,0Z"/><path class="cls-1" d="M82.68,288.9l-5.08-.14Z"/><path class="cls-1" d="M85.27,289l-1.82-.06Z"/><path class="cls-1" d="M74.25,288.69l-1.57,0Z"/><path class="cls-1" d="M96.83,289.49l-2-.1Z"/><path class="cls-1" d="M94.18,289.35l-2.67-.12Z"/><path class="cls-1" d="M99.56,289.64l-1.8-.1Z"/><path class="cls-1" d="M88,289.09l-1.8-.07Z"/><path class="cls-1" d="M91.05,289.21l-2.19-.09Z"/><path class="cls-1" d="M393.95,284.91h0l.15-.46Z"/><path class="cls-1" d="M257.32,211.74c.57-1.9,1.13-3.91,1.66-6C258.45,207.83,257.89,209.84,257.32,211.74Z"/><path class="cls-1" d="M252.28,226.12c-.35.85-.56,1.33-.56,1.33l.94.69-.94-.69S251.93,227,252.28,226.12Z"/><path class="cls-1" d="M506.6,167.25a79.73,79.73,0,0,1-13.4,5.6,66.48,66.48,0,0,1,9,6.42C504.94,172,506.6,167.25,506.6,167.25Z"/><path class="cls-1" d="M369.34,207.78c-.59-.52-1.08-.9-1.44-1.17C368.26,206.88,368.75,207.26,369.34,207.78Z"/><path class="cls-1" d="M256.26,215.17c.28-.86.56-1.77.84-2.69C256.82,213.4,256.54,214.3,256.26,215.17Z"/><path class="cls-1" d="M254.56,220.16c.39-1.09.8-2.28,1.23-3.56C255.36,217.88,254.95,219.07,254.56,220.16Z"/><path class="cls-5" d="M709.64,292.54c.32,4.63.75,9.26,1.26,13.87h24a92.49,92.49,0,0,0,8.33-11.09A37,37,0,0,1,709.64,292.54Z"/><path class="cls-5" d="M708.25,203.92c.1.89.19,1.8.28,2.71,1.4,2.82,2.88,6,4.52,9.74,11.1-.81,17.59-12.83,22-21.84a122.67,122.67,0,0,0,9.54-28.31c-3.14-12.57-8.35-21.17-14.3-27A183,183,0,0,1,727,171.67C724.43,184.26,718.68,196.28,708.25,203.92Z"/><path class="cls-5" d="M721.91,258.63c-1.3,3.62-2.88,7.64-4.6,11.74,12.54,2.54,26.1,1.51,37.8-3.62a100.81,100.81,0,0,0,2.43-21.39A44.52,44.52,0,0,1,721.91,258.63Z"/><path class="cls-5" d="M707.89,138.21a99.69,99.69,0,0,1-7.12,29.33,170.54,170.54,0,0,1,5.06,20.15q.53,2.78,1,5.71c.22,1.4.44,2.82.64,4.27,9-7.82,13.17-19.61,15-31.34a213.26,213.26,0,0,0,2.38-31.57,40.68,40.68,0,0,0-7.92-4.28C715.33,133.26,712.1,135.82,707.89,138.21Z"/><path class="cls-5" d="M723.43,240.82l1.58,3.76c.55,1.31,0,4.54-1.36,8.84a39,39,0,0,0,33.68-16.17,137.14,137.14,0,0,0-3.61-23.62l-.12-.46C747.33,226.24,738,237.83,723.43,240.82Z"/><path class="cls-5" d="M715.3,221.52c1.78,4.15,3.77,8.87,6,14.27,15.74-2.51,24.6-17,30.17-31.08a242.21,242.21,0,0,1-4.67-25.84,125.38,125.38,0,0,1-9.76,23.41C732.35,210.93,725.3,219.87,715.3,221.52Z"/><path class="cls-5" d="M715.15,275.43c-1.65,3.8-3.36,7.55-5,11a31.41,31.41,0,0,0,36.72.77,2.54,2.54,0,0,1,1.15-.45,89.51,89.51,0,0,0,5.35-13.53A70.15,70.15,0,0,1,715.15,275.43Z"/><path class="cls-6" d="M707.47,197.68q.42,3,.78,6.24c10.43-7.63,16.18-19.66,18.74-32.24a183,183,0,0,0,3.26-32.46,40.87,40.87,0,0,0-5.35-4.44,213.26,213.26,0,0,1-2.38,31.57C720.64,178.06,716.42,189.85,707.47,197.68Z"/><path class="cls-7" d="M713.05,216.37q1.07,2.43,2.24,5.15c10-1.65,17.06-10.59,21.77-19.24a125.38,125.38,0,0,0,9.76-23.41c0-.32-.09-.63-.12-.95a98.08,98.08,0,0,0-2.15-11.7A122.67,122.67,0,0,1,735,194.52C730.64,203.53,724.15,215.55,713.05,216.37Z"/><path class="cls-6" d="M721.32,235.79l2.11,5c14.57-3,23.9-14.58,30.18-27.66-.32-1.33-.65-2.64-1-3.93-.4-1.5-.77-3-1.13-4.52C745.93,218.81,737.06,233.28,721.32,235.79Z"/><path class="cls-7" d="M723.65,253.42c-.49,1.6-1.08,3.36-1.74,5.21a44.52,44.52,0,0,0,35.63-13.28c0-2.63,0-5.33-.21-8.11A39,39,0,0,1,723.65,253.42Z"/><path class="cls-6" d="M717.31,270.37c-.7,1.68-1.43,3.38-2.16,5.07a70.15,70.15,0,0,0,38.25-2.22q1-3.13,1.71-6.47C743.41,271.88,729.86,272.91,717.31,270.37Z"/><path class="cls-7" d="M710.18,286.43l-.81,1.71q.06,1.14.13,2.28t.14,2.12a37,37,0,0,0,33.57,2.79,89.48,89.48,0,0,0,4.84-8.58,2.54,2.54,0,0,0-1.15.45A31.41,31.41,0,0,1,710.18,286.43Z"/><path class="cls-5" d="M608.11,187.85q.2-2.86.37-5.61.39-6.66.58-12.59c-7.92,2-12.91,3.19-12.91,3.19s.61,11.93,1.16,28.78l10.76-13.25Z"/><path class="cls-8" d="M400.6,195.45h-.11q-2.65-.13-5.17-.33c6.2,9.43,11,15.53,11,15.53h0l-.28-15Q403.24,195.58,400.6,195.45Z"/><path class="cls-9" d="M636.25,87.86c-5.14-4.81-8.45-11.91-9-21.39-5,15.64-8,35.54,2.71,47.21l5.68-.44Z"/><path class="cls-5" d="M91.44,86.14q1.46-3.69,3-7.2A16.9,16.9,0,0,0,91.44,86.14Z"/><path class="cls-10" d="M114.36,290.77l-.79-.08-1.72-.16-.91-.08-1.74-.15-.84-.07-2.09-.16-.52,0-2.61-.18-.71,0-2-.12-.91-.05-1.8-.1-.92-.05-2-.1-.69,0-2.67-.12-.46,0-2.19-.09-.87,0-1.8-.07-.92,0-1.82-.06-.77,0-5.08-.14-.7,0-1.75,0-.89,0-1.57,0h-.79l-2,0h-.26l-2.27,0h-.54l-1.6,0H52.39a4.85,4.85,0,0,1-3.88,0s-2.51,6-6.33,17.89H115.6A88.71,88.71,0,0,1,116.8,291Z"/><path class="cls-5" d="M107.28,125.38q-.8-.53-1.59-1.08l-2.15.71Z"/><path class="cls-11" d="M52.29,216.08l1.9-.38h0l2-.36h0l.11,0h0c2.26-.39,4.7-.76,7.31-1.12l2.68-.37,5-.67,5.27-.71q3-.41,6.11-.88,3.37-.5,6.94-1.1l3.86-.67c1-.17,1.9-.37,2.82-.58a57.74,57.74,0,0,0,7.7-2.3,49.56,49.56,0,0,0,6.54-3q1.9-1.05,3.58-2.2t3.15-2.36q.74-.61,1.42-1.23a41.22,41.22,0,0,0,3.71-3.8c-18.34-6.36-15.49-32-6.19-41.76-7.06-5.2-12.76-9.91-16.8-12.78-.81-.57-1.55-1.07-2.22-1.49q-.51-.31-1-.56A6.17,6.17,0,0,0,94,136.9a32.78,32.78,0,0,1-5,.79l0,.25q-.27,1.74-.58,3.47l-.08.43c-.2,1.1-.41,2.2-.64,3.29l0,.12q-.75,3.63-1.67,7.17h0c-3.65,14-9.23,26.94-16,37.12-5.1,7.68-10.89,13.78-17,17.7l-2.2,9.19,1.13-.26Z"/><path class="cls-11" d="M52.39,288.5H65.22l1.6,0h.54l2.27,0h.26l2,0h.79l1.57,0,.89,0,1.75,0,.7,0,5.08.14.77,0,1.82.06.92,0,1.8.07.87,0,2.19.09.46,0,2.67.12.69,0,2,.1.92.05,1.8.1.91.05,2,.12.71,0,2.61.18.52,0,2.09.16.84.07,1.74.15.91.08,1.72.16.79.08,2.44.25c.23-1.34.51-2.69.83-4A42.51,42.51,0,0,1,122,275.53c8.56-14.63,9.48-41,9.48-41l-1.36.47c-1.61.55-4.59,1.59-8.63,3L114,240.69l-5.22,1.86-6.57,2.36-4.89,1.77-6.9,2.52-1.32.48a60.53,60.53,0,0,1-8.11,2.4,38.53,38.53,0,0,1-6,.83c-.89.05-1.73,0-2.54,0l-.85,0-.45,0v0a22.15,22.15,0,0,1-6.28-1.37A22.6,22.6,0,0,1,60.26,249c-2.75-1.89-4.76-4-6.77-5.16a5.57,5.57,0,0,0-1.61-.64v0c-5-1.09-8.59,6.38-8.62,6.46h0s-11.31,31.8,5.26,38.85A4.85,4.85,0,0,0,52.39,288.5Z"/><path class="cls-8" d="M99,124.58a57.16,57.16,0,0,0-8.34-8.65A139.36,139.36,0,0,1,89,137.69a32.78,32.78,0,0,0,5-.79Z"/><path class="cls-10" d="M492.33,125.28a65.46,65.46,0,0,1-2.3-18c-3.13-4.31-2.46-9,.06-13.43C488,63.64,464.29,56.17,453.74,57c-14,1.16-30.94,8.85-36,42.15-1.59,10.37-3.69,17.13-6,21.68,5.45,1.73,11.44,3.66,18.24,5.65C449.34,132.23,473.73,129.29,492.33,125.28Z"/><path class="cls-8" d="M334.6,125.76V106.18c-14,12.79-31.44,21.42-44.47-6.49l-2.53,24.19A218.61,218.61,0,0,1,334.6,125.76Z"/><path class="cls-10" d="M334.6,106.18c5.65-5.17,10.74-11,14.73-15.39,15.12-16.58-2.44-30.24-2.44-30.24C404.93,64,382,4.45,364.45,22q-3.77,3.77-6.82,6.76a21.52,21.52,0,0,1-26.71,2.54c-11-7-12.8,7.28-12.8,7.28C306.41,23,304.46,43,304.46,43c-32.19-10.73-19,44.38-19,44.38a99.58,99.58,0,0,0,4.69,12.32C303.16,127.59,320.62,119,334.6,106.18Z"/><path class="cls-5" d="M681.47,194.58c8.82-.53,17.47-2.33,24.36-6.89a170.54,170.54,0,0,0-5.06-20.15C696.45,178,690.11,188,681.47,194.58Z"/><path class="cls-5" d="M672,200c-7.88,3.17-17.19,3.82-28.06.65a19.58,19.58,0,0,1-7.5-4.41,174,174,0,0,1-28.38-8.42l0,.53q-.54,7.49-1.38,15.77a235.1,235.1,0,0,0,99.18,10.49c3.44-.37,3.4,5,0,5.38a238.76,238.76,0,0,1-99.77-10.4q-.78,6.88-1.82,14.26a233.92,233.92,0,0,0,105.49,5.61c-.1-8.2-.54-15.81-1.24-22.85-.09-.91-.18-1.82-.28-2.71q-.35-3.2-.78-6.24c-.2-1.45-.42-2.87-.64-4.27C696.87,199.24,684,200.26,672,200Z"/><path class="cls-5" d="M603.5,229.24c-.49,3.23-1,6.51-1.57,9.86l-.29,1.82c14.81,4.76,30.64,6.31,46.15,7.74,20.55,1.89,42.2,3.64,61.78-3.91q.18-5,.21-9.82A239.87,239.87,0,0,1,603.5,229.24Z"/><path class="cls-5" d="M709.51,290.42c-7,4.21-15.11,5.45-23.25,5.76-10.55.41-21.17.17-31.73,0-18.21-.23-36.42-1.11-54.44-3.69,1,3.37,2.08,8,3.17,13.88H710.91c-.51-4.62-.95-9.24-1.26-13.87Q709.57,291.48,709.51,290.42Z"/><path class="cls-5" d="M682.81,290.89c9.19-.14,18.36-1,26.06-6.46a2.87,2.87,0,0,1,.31-.18q-.74-16.86.15-33.77c-19.7,6.82-40.9,5.45-61.53,3.55-15.8-1.46-31.88-3.05-47-7.76l-2.34,14.88a155.38,155.38,0,0,0,107,5.67c3.32-1,4.72,4.16,1.43,5.18A160.75,160.75,0,0,1,598,266.78c-.13,6.4-.35,12.47-.68,17.94,0,0,.33.68.88,2.14,17.93,2.75,36.07,3.69,54.21,4C662.57,291,672.7,291,682.81,290.89Z"/><path class="cls-5" d="M630.59,189.42c-4.3-6.18-8-14.18-11-22.46-3.88,1-7.44,1.92-10.54,2.7q-.2,5.93-.58,12.59A173.93,173.93,0,0,0,630.59,189.42Z"/><path class="cls-6" d="M705.87,220c3.4-.37,3.44-5.75,0-5.38a235.1,235.1,0,0,1-99.18-10.49q-.28,2.69-.59,5.47A238.76,238.76,0,0,0,705.87,220Z"/><path class="cls-7" d="M604.28,223.87q-.37,2.65-.78,5.37a239.87,239.87,0,0,0,106.28,5.68c0-1.84,0-3.66,0-5.44A233.92,233.92,0,0,1,604.28,223.87Z"/><path class="cls-6" d="M647.79,248.65c-15.51-1.43-31.33-3-46.15-7.74l-.84,5.35c15.11,4.71,31.19,6.3,47,7.76,20.63,1.9,41.83,3.27,61.53-3.55v-.09c.1-1.91.18-3.79.24-5.65C690,252.29,668.34,250.55,647.79,248.65Z"/><path class="cls-7" d="M598,266.78A160.75,160.75,0,0,0,706.94,272c3.29-1,1.89-6.21-1.43-5.18a155.38,155.38,0,0,1-107-5.67l-.36,2.32Q598.08,265.13,598,266.78Z"/><path class="cls-6" d="M708.87,284.42c-7.7,5.51-16.87,6.32-26.06,6.46-10.11.16-20.25.08-30.36-.07-18.14-.27-36.28-1.21-54.21-4,.48,1.27,1.12,3.14,1.84,5.68,18,2.58,36.23,3.46,54.44,3.69,10.55.13,21.18.37,31.73,0,8.15-.31,16.26-1.55,23.25-5.76q-.07-1.14-.13-2.28-.11-1.95-.19-3.89A2.87,2.87,0,0,0,708.87,284.42Z"/><path class="cls-7" d="M630.59,189.42a173.93,173.93,0,0,1-22.12-7.18q-.16,2.74-.37,5.61a174,174,0,0,0,28.38,8.42A39.27,39.27,0,0,1,630.59,189.42Z"/><path class="cls-7" d="M672,200c12,.25,24.83-.78,34.78-6.61q-.47-2.93-1-5.71c-6.89,4.56-15.54,6.37-24.36,6.89A40,40,0,0,1,672,200Z"/><path class="cls-12" d="M636.48,196.26a19.58,19.58,0,0,0,7.5,4.41c10.87,3.17,20.17,2.52,28.06-.65a40,40,0,0,0,9.43-5.44c8.64-6.63,15-16.57,19.29-27a99.69,99.69,0,0,0,7.12-29.33,130.33,130.33,0,0,1-19.32,8.34c-20.59,7.41-49.08,15.24-69,20.4,3,8.29,6.7,16.28,11,22.46A39.27,39.27,0,0,0,636.48,196.26Z"/><path class="cls-10" d="M105.33,79.79a17.59,17.59,0,0,0-3-2C85.3,100.6,92.9,115.2,105.7,124.3q.78.56,1.59,1.08c8.48.87,23.43,2.55,44.51,5.4a56.88,56.88,0,0,0,1.77-15.91,83.69,83.69,0,0,1,4.83-29.66c-4.74-7.62-26.92-39.36-51.82-12.48A39.91,39.91,0,0,1,108.24,78,1.8,1.8,0,0,1,105.33,79.79Z"/><polygon class="cls-13" points="43.25 249.67 43.25 249.68 43.25 249.68 43.25 249.67"/><path class="cls-13" d="M250.37,178.66a43.18,43.18,0,0,1,1,5l.36-4.9-.56-.08Z"/><path class="cls-13" d="M251,289.67h0l.39-62.46a13.17,13.17,0,0,1-3-3L250.24,199c-6.67,22.23-33.66,32.33-33.66,32.33s28.8,49.35-28.55,58-42.17-58-42.17-58c-35.77,3.88-14.3-35.53-14.3-35.53a32.41,32.41,0,0,1-4.69-.36c-1.81,3.23-11.64,24.39,3.31,39.63l1.36-.47s-.92,26.34-9.48,41A42.51,42.51,0,0,0,117.63,287c-.32,1.34-.6,2.69-.83,4a88.71,88.71,0,0,0-1.2,15.39h134c.8-10.44,1.44-16.74,1.44-16.74Z"/><path class="cls-13" d="M76.58,212.44l-5.27.71c-1.14,2.71-3.05,7.06-6,13.17-3.74,7.83,4.44,20,9.7,26.58a38.53,38.53,0,0,0,6-.83h0S65.12,233.43,76.58,212.44Z"/><path class="cls-13" d="M121.68,195.73l1-1.33-.28-.09a41.22,41.22,0,0,1-3.71,3.8q-.69.62-1.42,1.23-1.47,1.22-3.15,2.36t-3.58,2.2c-1.75,9.12-3.26,23.69,2,33.86.57,1.1,1,2.06,1.43,2.92l7.54-2.66C117.41,232,107.7,214.34,121.68,195.73Z"/><path class="cls-13" d="M63.6,214.19c-2.61.36-5,.73-7.31,1.12,0,0-6.59,14.43-4.41,27.86a5.57,5.57,0,0,1,1.61.64c2,1.17,4,3.27,6.77,5.16a22.6,22.6,0,0,0,4.66,2.49,54.12,54.12,0,0,1-6.13-9.58C53.49,231.42,59.38,220.21,63.6,214.19Z"/><path class="cls-13" d="M104,206.91a57.74,57.74,0,0,1-7.7,2.3c-2.58,7-4.38,18.57,3.57,31.69.92,1.52,1.69,2.84,2.33,4l6.57-2.36C107.53,241.11,97,228.13,104,206.91Z"/><path class="cls-13" d="M89.63,210.46q-3.58.6-6.94,1.1c-3.06,7.49-7,22.79,5,34.8,1.06,1.05,1.95,2,2.69,2.84l6.9-2.52-.32-.32S79,230.77,89.63,210.46Z"/><path class="cls-9" d="M250.37,178.66l0-.1c-17.78-2.34-57.78,6.55-89.18-2.39-17.86-5.09-33.27-15-45-23.62-9.3,9.72-12.15,35.4,6.19,41.76l.28.09,0,0a25.91,25.91,0,0,0,4.17,1l0,0a32.41,32.41,0,0,0,4.69.36s-21.46,39.41,14.3,35.53c0,0-15.17,66.69,42.17,58s28.55-58,28.55-58,27-10.1,33.66-32.33l1.12-15.3A43.18,43.18,0,0,0,250.37,178.66Z"/><path class="cls-9" d="M151.79,130.78c16.76,2.27,37.37,5.28,61.72,9.23a71.29,71.29,0,0,0,8.54.84q2.81-1.53,5.95-3c-5.38-8.66-9.12-19.22-8.25-40.17,1.3-31.6-26.28-36.46-26.28-36.46-16.89-3.49-28.89,7.41-35.09,24a83.69,83.69,0,0,0-4.83,29.66A56.88,56.88,0,0,1,151.79,130.78Z"/><path class="cls-6" d="M424.76,250.21h0c.84-.11,1.72-.22,2.61-.32h0c2.41-.26,5-.45,7.77-.54h.47l1.89,0s0,0,0,0c3.08,0,6.34.07,9.79.36h0a111.78,111.78,0,0,1,14.64,2.23h0l1.79.41c1.53.36,3.08.75,4.65,1.19,3.13-8.71,7-18.52,9.92-23.34,1.9-3.1,3.78-6.44,5.6-9.89l1-9.55h0l3.68-36.48a100.59,100.59,0,0,1-21.21,3.49c-17.3,14-39.65,17.84-59,17.9H406l.28,15,.82,43.91h0S413.65,251.71,424.76,250.21Z"/><path class="cls-9" d="M393.52,286.17l-.15.45.17-.49Z"/><path class="cls-9" d="M393.95,284.91h0l.15-.46.15-.44c-.24.71-.49,1.43-.73,2.16v0Z"/><path class="cls-5" d="M394.26,284v0l-.15.44Z"/><path class="cls-5" d="M438.06,302.31c2.61-4.89,11.88-8,16.44-4.35a8.39,8.39,0,0,1,.71.64c.69-3.24,1.4-6.28,2.09-9.1A5.49,5.49,0,0,1,456,288c-2-3.39-5.51-9-4-13.24s6.75-2.85,9.42-.45c.78-2.57,1.26-4,1.26-4s.35-1.09,1-3c0-.21-.11-.41-.14-.62-.38-2.42.56-5.37,2.57-6.59.7-2,1.47-4.25,2.3-6.54-1.57-.44-3.12-.83-4.65-1.19-1.47,1.94-4.83,2.89-7.12,3.09-4.66.39-9.8-1.86-12.22-5.93,1,.05,1.93.12,2.92.2-3.45-.29-6.7-.39-9.79-.36a4.75,4.75,0,0,1-.52,2.48c-.61,3.52-3.82,4.9-7,3.35a13.74,13.74,0,0,1-5.25-4.94c-11.12,1.5-17.67,4.35-17.67,4.35h0l0,.07,0,0-.15.26,0,.07-.24.44-.06.1-.33.62-.06.12-.43.81-.06.11-.52,1-.05.1-.6,1.19,0,0-.67,1.36-.07.13-.7,1.45-.1.22-.73,1.55-.13.28-.77,1.68-.13.29-.82,1.84-.11.25c-.29.66-.58,1.33-.87,2l-.06.15q-.45,1.06-.91,2.18l0,.11c-.3.74-.61,1.51-.92,2.29l-.11.28c-.3.75-.59,1.53-.89,2.31l-.14.38q-.44,1.17-.88,2.38l-.15.42q-.44,1.22-.87,2.47l-.14.4a4.58,4.58,0,0,1-.31.92l-.41,1.21-.17.49-.11.35q-.45,1.38-.89,2.79l-.05.17q-.44,1.42-.87,2.88l-.06.2q-.42,1.45-.83,2.94l-.11.39q-.39,1.45-.76,2.92l-.12.47q-.36,1.46-.71,3l-.12.51q-.34,1.5-.66,3l0,.18H410c1.65-1.44,4.29-1.11,6.41,0h23.53C438.2,305.72,436.9,304.47,438.06,302.31Zm.14-40.79c3.42-2.17,8.5-3.25,12.39-1.79s5.89,5.72,1.88,8.38c-2.46,1.63-5.6,2.28-8.46,2.76-2.44.42-4.92.2-6.59-1.83C434,266.72,435,263.53,438.2,261.52Zm-28.93,39.93a21.81,21.81,0,0,1-7.87,2.64c-2.61.48-5.41.6-7.23-1.7-3.36-2.33-2.19-5.38,1-7.32,3.44-2.11,8.42-3.17,12.31-1.77S413.26,298.87,409.27,301.45Zm4.26-12.19c-5.91.36-12.18-3.44-13.53-9.46-1.06-4.73,3.74-5.93,7.48-5.47,4.73.59,10.93,3.06,13.35,7.46a.65.65,0,0,1,0,.08.62.62,0,0,1,.06.1C422.91,286.62,417.24,289,413.53,289.26Zm-.72-28.73c.32-3.1,3.18-6.53,6.59-5.59,3.92,1.08,6.12,7.05,7.25,10.43.89,2.91.68,5.71-2.85,6.12C418.57,272.1,412.27,265.66,412.8,260.53Zm16.56,34.38c-4.78-.15-4.64-5.65-3.12-9,2.24-5,7.5-7.85,12.86-7.92,1.94,0,4.6.24,5.32,2.41s-.94,4.74-2.12,6.37c-2.88,4-7.43,7.74-12.5,8.18A1.59,1.59,0,0,1,429.37,294.9Z"/><path class="cls-5" d="M452.71,306.41h.94l.06-.36C453.39,306.19,453,306.3,452.71,306.41Z"/><path class="cls-5" d="M410,276.71c-2.38-.78-8.18-2.33-7.77,1.91.46,4.63,5.23,8.39,9.59,9,3.07.4,8.49-.77,6.8-4.9C416.86,279.61,413.21,277.77,410,276.71Z"/><path class="cls-5" d="M404.43,294.34c-3.1-.44-14.4,2.8-8.35,6.87a.62.62,0,0,1,.19.15c1.86,2.41,5.13,1.36,7.6.7,1.59-.42,3.75-1,4.87-2.26C411,297.18,406.6,294.64,404.43,294.34Z"/><path class="cls-5" d="M439.25,267.69a.83.83,0,0,1,.25.25c2.27,2.7,9.86.73,12.24-1.58,2.58-2.51-1.92-5.07-4.1-5.35C444.63,260.61,433.27,263.7,439.25,267.69Z"/><path class="cls-5" d="M421.58,260c-.69-1.14-2.57-4.27-4.25-3.93s-2.27,3.44-2.21,4.83a8.11,8.11,0,0,0,1.18,3.66,13.25,13.25,0,0,0,6.31,5.53,3.88,3.88,0,0,0,1.42.39c.45,0,.39.13.61-.5a6.49,6.49,0,0,0-.32-4A29.26,29.26,0,0,0,421.58,260Z"/><path class="cls-5" d="M430,252.78c.73.61,2,1.67,3.05,1.67s1.38-1.37,1.55-2.37c0,0,0-.07.05-.1l0-.07a3.85,3.85,0,0,0,.42-2.57c-2.76.09-5.36.28-7.77.54A15.13,15.13,0,0,0,430,252.78Z"/><path class="cls-5" d="M454.2,254.25c2.64.64,6.81.05,7.74-2.34a111.78,111.78,0,0,0-14.64-2.23A12.74,12.74,0,0,0,454.2,254.25Z"/><path class="cls-5" d="M456.82,273.43c-1.93-.74-2.68.36-2.76,2.41-.14,3.79,2,7.72,3.91,10.95,1-3.85,1.9-7.17,2.66-9.8A7.27,7.27,0,0,0,456.82,273.43Z"/><path class="cls-5" d="M452.76,299.27a5.75,5.75,0,0,0-4.1-1.38,11.3,11.3,0,0,0-7.76,3.61c-2.17,2.52.19,3.85,2.74,4.15a28.28,28.28,0,0,0,6.14,0c1.25-.16,3.2-.38,4.27-1.32q.25-1.31.51-2.58A7,7,0,0,0,452.76,299.27Z"/><path class="cls-5" d="M438.3,278.9c-5-.21-9.14,3.67-10.38,8.31-.7,2.61-.43,6.64,3,6.75C436.18,293.33,448.1,279.32,438.3,278.9Z"/><path class="cls-14" d="M437.42,269.05c1.67,2,4.15,2.24,6.59,1.83,2.86-.49,6-1.13,8.46-2.76,4-2.66,2.14-6.86-1.88-8.38s-9-.38-12.39,1.79C435,263.53,434,266.72,437.42,269.05Zm10.22-8c2.18.28,6.68,2.84,4.1,5.35-2.38,2.32-10,4.28-12.24,1.58a.83.83,0,0,0-.25-.25C433.27,263.7,444.63,260.61,447.63,261Z"/><path class="cls-14" d="M410,306.41h6.41C414.29,305.3,411.65,305,410,306.41Z"/><path class="cls-14" d="M407.45,293.29c-3.89-1.39-8.87-.34-12.31,1.77-3.17,1.94-4.34,5-1,7.32,1.82,2.3,4.62,2.18,7.23,1.7a21.81,21.81,0,0,0,7.87-2.64C413.26,298.87,411.47,294.74,407.45,293.29Zm1.29,6.5c-1.12,1.29-3.29,1.84-4.87,2.26-2.47.66-5.75,1.71-7.6-.7a.62.62,0,0,0-.19-.15c-6.05-4.07,5.25-7.3,8.35-6.87C406.6,294.64,411,297.18,408.74,299.79Z"/><path class="cls-14" d="M461.94,251.9c-.93,2.4-5.1,3-7.74,2.34a12.74,12.74,0,0,1-6.9-4.57h0c-1-.08-2-.15-2.92-.2,2.43,4.07,7.57,6.32,12.22,5.93,2.29-.19,5.66-1.15,7.12-3.09l-1.79-.41Z"/><path class="cls-14" d="M420.85,281.87a.65.65,0,0,0,0-.08c-2.41-4.4-8.62-6.87-13.35-7.46-3.74-.46-8.54.74-7.48,5.47,1.35,6,7.62,9.83,13.53,9.46,3.71-.23,9.38-2.64,7.39-7.29A.62.62,0,0,0,420.85,281.87Zm-9,5.72c-4.35-.57-9.13-4.32-9.59-9-.42-4.24,5.38-2.69,7.77-1.91,3.23,1.06,6.88,2.9,8.62,6C420.3,286.81,414.88,288,411.81,287.58Z"/><path class="cls-14" d="M435.62,249.34h-.47a3.85,3.85,0,0,1-.42,2.57l0,.07s0,.07-.05.1c-.17,1-.39,2.37-1.55,2.37s-2.32-1.06-3.05-1.67a15.13,15.13,0,0,1-2.66-2.89h0c-.9.1-1.77.2-2.61.32h0a13.74,13.74,0,0,0,5.25,4.94c3.15,1.56,6.36.18,7-3.35a4.75,4.75,0,0,0,.52-2.48s0,0,0,0Z"/><path class="cls-14" d="M393.95,284.91h0a4.58,4.58,0,0,0,.31-.92s0-.05,0-.08l0,.08-.15.46Z"/><path class="cls-14" d="M454,304.28c-1.07.94-3,1.17-4.27,1.32a28.28,28.28,0,0,1-6.14,0c-2.54-.3-4.91-1.62-2.74-4.15a11.3,11.3,0,0,1,7.76-3.61,5.75,5.75,0,0,1,4.1,1.38,7,7,0,0,1,1.8,2.43q.32-1.58.65-3.1a8.39,8.39,0,0,0-.71-.64c-4.56-3.6-13.83-.54-16.44,4.35-1.16,2.17.14,3.42,1.89,4.11h12.76c.34-.11.68-.22,1-.36Z"/><path class="cls-14" d="M452,274.74c-1.55,4.19,2,9.85,4,13.24a5.49,5.49,0,0,0,1.33,1.52q.34-1.39.68-2.71c-1.87-3.23-4.06-7.15-3.91-10.95.08-2,.83-3.14,2.76-2.41a7.27,7.27,0,0,1,3.81,3.55q.44-1.5.8-2.7C458.75,271.88,453.53,270.61,452,274.74Z"/><path class="cls-14" d="M442.3,286.73c1.18-1.63,2.83-4.22,2.12-6.37S441,277.93,439.1,278c-5.36.07-10.62,2.92-12.86,7.92-1.52,3.38-1.66,8.88,3.12,9a1.59,1.59,0,0,0,.44,0C434.87,294.47,439.43,290.71,442.3,286.73ZM430.93,294c-3.45-.11-3.71-4.15-3-6.75,1.24-4.64,5.4-8.52,10.38-8.31C448.1,279.32,436.18,293.33,430.93,294Z"/><path class="cls-14" d="M426.64,265.37c-1.13-3.38-3.33-9.35-7.25-10.43-3.42-.94-6.27,2.49-6.59,5.59-.54,5.14,5.77,11.57,11,11C427.32,271.08,427.53,268.28,426.64,265.37Zm-2,4.59c-.22.63-.16.47-.61.5a3.88,3.88,0,0,1-1.42-.39,13.25,13.25,0,0,1-6.31-5.53,8.11,8.11,0,0,1-1.18-3.66c-.06-1.39.68-4.53,2.21-4.83s3.56,2.8,4.25,3.93a29.26,29.26,0,0,1,2.73,6A6.49,6.49,0,0,1,424.63,270Z"/><path class="cls-14" d="M463.52,266.64c0,.2.1.41.14.62.59-1.81,1.43-4.32,2.42-7.21C464.08,261.27,463.13,264.22,463.52,266.64Z"/><path class="cls-10" d="M251,289.67h0s-.64,6.3-1.44,16.74H365.91c0-3.12.05-6.3-.06-9.53h0c0-.56,0-1.12-.07-1.68C324.85,301.06,251,289.67,251,289.67Z"/><path class="cls-10" d="M598.24,286.85c-.55-1.46-.88-2.14-.88-2.14-.08,1.34-70.46-28.43-134.67-14.45,0,0-.49,1.45-1.26,4q-.36,1.19-.8,2.7c-.76,2.63-1.68,5.95-2.66,9.8q-.33,1.31-.68,2.71c-.69,2.82-1.39,5.86-2.09,9.1q-.33,1.52-.65,3.1-.26,1.28-.51,2.58l-.34,1.77-.06.36H603.25c-1.09-5.93-2.2-10.51-3.17-13.88C599.36,290,598.72,288.12,598.24,286.85Z"/><path class="cls-6" d="M369.71,238.54a7.21,7.21,0,0,1-1.65-1.35s-3.57,12.1-7.14,19.09c-2.77,5.43-8.08,7.35-14.86,7.08a47.89,47.89,0,0,1-8.73-1.26,98.8,98.8,0,0,1-9.7-2.82c-2.81-1-5.68-2-8.59-3.19-3.07-1.22-6.17-2.52-9.26-3.84l-3.92-1.7-5.76-2.51-4.68-2c-3.42-1.47-6.72-2.85-9.84-4-2.45-.95-4.79-1.78-7-2.46l-.27-.09c-3.51-1.08-6.61-2.14-9.37-3.18s-4.92-2-6.93-2.88c-2.19-1-4-2-5.61-2.86q-.75-.43-1.42-.84c-.89-.54-1.67-1.06-2.34-1.54l-.94-.69-.31-.24L251,289.67h0s73.83,11.39,114.76,5.53c3.08-.44,6-1,8.64-1.62l-4.49-54.92-.22-.11Z"/><path class="cls-6" d="M359.66,135.7l-16.28-8.44q-4.41-.84-8.77-1.49a218.61,218.61,0,0,0-47-1.89,201.8,201.8,0,0,0-28.4,3.94l-7.48,51s4,2.4,10.53,6c1.55.85,3.25,1.77,5.08,2.74,2.6,1.38,5.44,2.86,8.49,4.39,2.37,1.19,4.86,2.42,7.44,3.66s5.48,2.59,8.34,3.88q3,1.36,6.14,2.69c2.53,1.08,5.1,2.14,7.69,3.15q3,1.16,5.95,2.25,3.73,1.35,7.44,2.55,3.18,1,6.3,1.89l2.49.67c2.24.58,4.35,1.08,6.36,1.54s3.85.84,5.62,1.17c4,.76,7.4,1.26,10.37,1.56a67.84,67.84,0,0,0,7.94.39,35.94,35.94,0,0,0,5-.39c4-.63,5.14-1.77,5.14-1.77l-.27-3.31-.46-5.65-1.31-16h0Z"/><path class="cls-6" d="M400.6,195.45h0Z"/><path class="cls-6" d="M366.54,190.31h0Z"/><path class="cls-6" d="M366.12,190.19h0Z"/><path class="cls-6" d="M368.18,190.74h0Z"/><path class="cls-15" d="M400.6,195.45q2.65.13,5.4.17h2.39c19.31-.06,41.65-3.95,59-17.9a89.64,89.64,0,0,1-47.56-10.48c-20.08-10.7-43.31-22.82-60.12-31.55L366,190.15h0l.1,0h0l.4.11h0l1.59.42h.05a169.41,169.41,0,0,0,27.13,4.38q2.52.2,5.17.33Z"/><path class="cls-13" d="M369.34,207.78l.56.5a24.06,24.06,0,0,0-2.56-2.08l.57.41C368.26,206.88,368.75,207.26,369.34,207.78Z"/><path class="cls-13" d="M250.24,199l-1.85,25.27a13.17,13.17,0,0,0,3,3l.31.24s.21-.48.56-1.33l.2-.49.34-.85.25-.64c.37-.95.8-2.08,1.26-3.36l.22-.62c.39-1.09.8-2.28,1.23-3.56l.47-1.43c.28-.86.56-1.77.84-2.69l.22-.73c.57-1.9,1.13-3.91,1.66-6,.18-.71.36-1.42.53-2.14a97.76,97.76,0,0,0,2.75-18.85c-6.53-3.58-10.53-6-10.53-6l-.36,4.9Z"/><path class="cls-13" d="M295.43,246c.64-1.26,1.52-2.8,2.74-4.72,6.41-10.15,7.44-25.51,7.25-36.05-2.59-1-5.15-2.07-7.69-3.15-.17,11.69-2.22,29.51-12.14,39.87C288.71,243.18,292,244.56,295.43,246Z"/><path class="cls-13" d="M355.52,248.83a79.77,79.77,0,0,1-9.46,14.54c6.78.26,12.09-1.66,14.86-7.08,3.57-7,7.14-19.09,7.14-19.09s4.64-12.43-.06-22.08h0s-1.15,1.14-5.14,1.77a35.94,35.94,0,0,1-5,.39C360,226.3,361,238.28,355.52,248.83Z"/><path class="cls-13" d="M368.06,237.19a7.21,7.21,0,0,0,1.65,1.35Z"/><path class="cls-13" d="M329.87,258.59s-.91.31-2.24.71a98.8,98.8,0,0,0,9.7,2.82c6.39-8.41,16.81-24.27,14.49-35.64-.74-3.63-1.36-6.8-1.88-9.58-3-.31-6.4-.81-10.37-1.56C348.94,240.05,329.87,258.59,329.87,258.59Z"/><path class="cls-13" d="M301,247.35s-.37.29-.93.7l5.76,2.51c1-1.69,2.58-3.9,4.78-6.83,9.84-13.09,9.71-25.82,8.16-33.68q-3.7-1.19-7.44-2.55C315.36,234,301,247.35,301,247.35Z"/><path class="cls-13" d="M312.71,250s-1.32,1.09-2.92,2.27c3.09,1.33,6.19,2.62,9.26,3.84a51,51,0,0,1,5-4.57c14-11.59,11.92-29.17,9.93-37.39-2-.45-4.12-1-6.36-1.54l-2.49-.67C333,235.48,312.71,250,312.71,250Z"/><path class="cls-13" d="M278.34,239.43l.27.09a84.34,84.34,0,0,0,13-40.11c-2.86-1.29-5.65-2.59-8.34-3.88-1,10.71-4.21,27.24-14.28,40.72C271.73,237.29,274.82,238.36,278.34,239.43Z"/><path class="cls-13" d="M262,233.38c4.61-8.71,12.68-25.94,13.78-41.5-3-1.53-5.89-3-8.49-4.39-.62,8-2.87,26.61-10.9,43C258,231.41,259.85,232.37,262,233.38Z"/><path class="cls-15" d="M298.17,241.31c-1.21,1.92-2.1,3.46-2.74,4.72l4.68,2c.56-.41.93-.7.93-.7s14.32-13.33,10.33-39.84q-3-1.08-5.95-2.25C305.61,215.81,304.58,231.17,298.17,241.31Z"/><path class="cls-16" d="M310.65,243.74c-2.2,2.92-3.74,5.14-4.78,6.83l3.92,1.7c1.6-1.18,2.92-2.27,2.92-2.27s20.34-14.52,12.4-38q-3.12-.86-6.3-1.89C320.36,217.92,320.49,230.65,310.65,243.74Z"/><path class="cls-15" d="M324,251.53a51,51,0,0,0-5,4.57c2.91,1.15,5.78,2.23,8.59,3.19,1.33-.39,2.24-.71,2.24-.71s19.08-18.53,9.71-43.27c-1.77-.34-3.63-.73-5.62-1.17C335.95,222.36,338.07,239.94,324,251.53Z"/><path class="cls-16" d="M337.34,262.11a47.89,47.89,0,0,0,8.73,1.26,79.77,79.77,0,0,0,9.46-14.54c5.46-10.55,4.5-22.53,2.36-31.55a67.84,67.84,0,0,1-7.94-.39c.52,2.78,1.14,6,1.88,9.58C354.15,237.83,343.72,253.7,337.34,262.11Z"/><path class="cls-16" d="M285.59,242c9.92-10.37,12-28.19,12.14-39.87q-3.11-1.33-6.14-2.69a84.34,84.34,0,0,1-13,40.11C280.8,240.2,283.14,241,285.59,242Z"/><path class="cls-15" d="M269,236.25c10.07-13.48,13.3-30,14.28-40.72-2.58-1.24-5.07-2.46-7.44-3.66-1.1,15.56-9.17,32.79-13.78,41.5C264.05,234.3,266.35,235.26,269,236.25Z"/><path class="cls-16" d="M259,205.74c-.53,2.09-1.09,4.1-1.66,6l-.22.73c-.28.93-.56,1.83-.84,2.69l-.47,1.43c-.43,1.28-.84,2.46-1.23,3.56l-.22.62c-.47,1.29-.89,2.42-1.26,3.36l-.25.64-.34.85-.2.49c-.35.85-.56,1.33-.56,1.33l.94.69c.68.48,1.45,1,2.34,1.54q.67.41,1.42.84c8-16.43,10.29-35,10.9-43-1.82-1-3.52-1.88-5.08-2.74a97.76,97.76,0,0,1-2.75,18.85C259.34,204.32,259.16,205,259,205.74Z"/><path class="cls-8" d="M368,215.12c4.7,9.64.06,22.08.06,22.08l1.65,1.35h0l.22.11.28.14.19.07.31.11.21,0,.28.05.22,0h.48l.25,0,.21,0,.25-.06.21-.06.25-.1.2-.09.25-.13.19-.11.26-.18.16-.11.4-.33.12-.11.28-.27.16-.18.22-.25.17-.21.2-.26.17-.22.19-.27.16-.24.18-.29.15-.25.18-.3.15-.26.17-.32.13-.26.17-.36.12-.24.19-.43.08-.18.25-.61.09-.22.15-.4.1-.27.13-.36.09-.27.11-.36.08-.28.1-.35.08-.27.09-.35.07-.27.08-.35.06-.25.07-.35,0-.23.07-.37,0-.19c0-.18.05-.36.08-.53h0a9.92,9.92,0,0,0,.07-1.43,10.52,10.52,0,0,0-.12-1.37,11.51,11.51,0,0,0-.27-1.29c-.11-.42-.25-.82-.39-1.2a34.12,34.12,0,0,0-3.45-6.7c-.63-1-1.28-1.83-1.92-2.62a34.37,34.37,0,0,0-3.55-3.79l-.56-.5c-.59-.52-1.08-.9-1.44-1.17l-.57-.41-.06,0h0l.46,5.65Z"/><path class="cls-8" d="M636.25,87.86l-.65,25.39c14.35-1.06,29-1.8,41.73-1.77V88.11a27.89,27.89,0,0,1-19.05,7.42C649.52,95.6,641.81,93.07,636.25,87.86Z"/><path class="cls-9" d="M673.66,17.49C681,19.66,685,22,687,24a23.84,23.84,0,0,0-12.15-8l-.13.18C674.36,16.58,674,17,673.66,17.49Z"/><path class="cls-9" d="M668.09,16q.47-.6,1-1.22a37.77,37.77,0,0,0-4.37-.21c0,.22-.06.45-.08.68C665.86,15.54,667,15.79,668.09,16Z"/><path class="cls-9" d="M658.27,95.53a27.89,27.89,0,0,0,19.05-7.42c12.29-11.13,15-30.87,15-30.87.21-2.12.33-4.12.38-6,1.18-11.06-.55-19.22-4.13-25a3.83,3.83,0,0,1-.19,3.71S671,51.12,650.14,48.78c-7.7-.86-14.1-4.72-19.11-9.25-.38,1.42-.69,2.78-.92,4-2.44,8.77-3.31,16.39-2.9,22.9.59,9.48,3.9,16.58,9,21.39C641.81,93.07,649.52,95.6,658.27,95.53Z"/><path class="cls-10" d="M70,189.54c6.77-10.18,12.35-23.07,16-37.12h0q.92-3.54,1.67-7.17l0-.12c.23-1.09.43-2.19.64-3.29l.08-.43q.31-1.73.58-3.47l0-.25a139.36,139.36,0,0,0,1.63-21.76c0-2.06-.06-4.13-.18-6.18-.59-11-.14-18.53,1-23.61a16.9,16.9,0,0,1,3-7.2c2.33-2.83,5.29-2.49,7.94-1.13a17.59,17.59,0,0,1,3,2,1.8,1.8,0,0,0,2.91-1.8,39.91,39.91,0,0,0-1.67-5.26,35.87,35.87,0,0,0-5-8.85C95.4,55.94,84.2,49,63.94,50.54c-.7.05-1.38.1-2.1.18-45.78,4.71-24.14,40.68-31.6,61.44,0,0-62.12,53.87-8.29,71.76,0,0-21.36,17.95,9.45,27.16,7.33,2.19,14.67.57,21.57-3.84C59.1,203.32,64.88,197.22,70,189.54Z"/><path class="cls-13" d="M598.1,263.46c.18-11.47.09-23.82-.12-35.6a8.19,8.19,0,0,1-4.35.58l-1.19-8.7S552,255,525.62,247.35c-14.19-4.15-28.38-19.86-38.45-33.47-1.07,2.16-2.15,4.3-3.26,6.39-1.83,3.46-3.7,6.79-5.6,9.89-3,4.82-6.79,14.63-9.92,23.34-.82,2.29-1.6,4.51-2.3,6.54-1,2.89-1.83,5.4-2.42,7.21s-1,3-1,3c64.21-14,134.59,15.79,134.67,14.45.33-5.47.55-11.54.68-17.94Q598.08,265.13,598.1,263.46Z"/><path class="cls-13" d="M419.78,167.25a89.64,89.64,0,0,0,47.56,10.48,100.59,100.59,0,0,0,21.21-3.49v0c1.63-.45,3.19-.91,4.63-1.38h0a79.73,79.73,0,0,0,13.4-5.6s-1.66,4.78-4.45,12c20,16.84,32.76,44.56,32.76,44.56,27.56-4.88,57.53-23.9,57.53-23.9a48.53,48.53,0,0,1,5,6.51c0-1.64-.1-3.25-.15-4.81-.55-16.85-1.16-28.78-1.16-28.78s5-1.19,12.91-3.19c3.1-.78,6.66-1.69,10.54-2.7,19.89-5.17,48.38-13,69-20.4a130.33,130.33,0,0,0,19.32-8.34c4.22-2.39,7.45-4.95,9.09-7.72,2.45-4.12,1.4-8.71-5.18-13.93-4.65-3.7-17.87-5.05-34.47-5.09-12.7,0-27.38.72-41.73,1.77l-5.68.44c-9.38.75-18.47,1.6-26.62,2.44-11.27,21-53.2,67.85-86.86,13.46a38,38,0,0,0-7.31-8.53c-4.6,1.33-10.35,2.85-16.79,4.24-18.6,4-43,7-62.43,1.25-6.79-2-12.78-3.91-18.24-5.65-5.21-1.66-9.93-3.14-14.38-4.35-10-2.73-18.71-4.07-28.65-2.87A84.06,84.06,0,0,0,349,118.73c-5.79,2.18-12.53,5-12.53,5l6.87,3.55,16.28,8.44C376.47,144.43,399.69,156.55,419.78,167.25Z"/><path class="cls-8" d="M525.62,247.35c26.34,7.69,66.82-27.61,66.82-27.61l1.19,8.7a8.19,8.19,0,0,0,4.35-.58c2-.9,4-3,4.21-7.58.25-4.84-2.22-10-4.73-13.85a48.53,48.53,0,0,0-5-6.51s-30,19-57.53,23.9c0,0-12.8-27.72-32.76-44.56a66.48,66.48,0,0,0-9-6.42h0c-1.44.47-3,.93-4.63,1.38v0l-3.68,36.48h0c.74,1,1.5,2.09,2.29,3.16C497.24,227.49,511.42,243.2,525.62,247.35Z"/><path class="cls-15" d="M110.54,203.91a49.56,49.56,0,0,1-6.54,3c-7,21.22,3.53,34.19,4.78,35.63l5.22-1.86c-.39-.86-.86-1.82-1.43-2.92C107.28,227.6,108.79,213,110.54,203.91Z"/><path class="cls-16" d="M96.3,209.21c-.92.21-1.85.4-2.82.58l-3.86.67C79,230.77,97,246.36,97,246.36l.32.32,4.89-1.77c-.65-1.16-1.41-2.48-2.33-4C91.92,227.78,93.72,216.21,96.3,209.21Z"/><path class="cls-15" d="M82.68,211.56q-3.15.47-6.11.88c-11.45,21,4.4,39.63,4.4,39.63h0a60.53,60.53,0,0,0,8.11-2.4l1.32-.48c-.75-.84-1.64-1.78-2.69-2.84C75.69,234.35,79.62,219.05,82.68,211.56Z"/><path class="cls-16" d="M65.33,226.33c2.92-6.11,4.83-10.46,6-13.17l-5,.67-2.68.37c-4.22,6-10.12,17.23-4.81,27.7a54.12,54.12,0,0,0,6.13,9.58,22.15,22.15,0,0,0,6.28,1.37l.44,0,.85,0c.81,0,1.65,0,2.54,0C69.77,246.3,61.59,234.15,65.33,226.33Z"/><path class="cls-16" d="M122.72,194.36l0,0-1,1.33c-14,18.6-4.26,36.31-.14,42.29,4-1.42,7-2.45,8.63-3-14.95-15.23-5.11-36.4-3.31-39.63l0,0A25.91,25.91,0,0,1,122.72,194.36Z"/><path class="cls-10" d="M490,107.29a15.29,15.29,0,0,0,2.22,2.43,28.92,28.92,0,0,0,6.45,4.42,47.73,47.73,0,0,1,10.42,6.9,38,38,0,0,1,7.31,8.53c33.67,54.4,75.59,7.53,86.86-13.46.69-1.29,1.28-2.49,1.73-3.56,8.93-21.06-4.48-33.7-4.48-33.7,10.85.13,24-13.82,13.88-26.43s-33.07-3.11-33.07-3.11,25.91-33.88-7.78-29.94S569.4,50.27,545.13,37.5s-27.86,15.41-27.86,15.41C482.14,46.69,489.12,71.58,496,86.39a35.88,35.88,0,0,0-5.93,7.47C487.57,98.31,486.89,103,490,107.29Z"/><path class="cls-8" d="M51.88,243.21v0c-2.18-13.44,4.4-27.86,4.41-27.86h0l-.11,0h0l-2,.36h0l-1.9.38-.39.09-1.13.26-.31.07-.52.13-1.21.32-.57.16-1.06.32-.58.19-.95.33-.57.22-.85.35-.54.25-.77.38-.51.28-.69.4-.48.3-.62.44-.44.33c-.19.15-.37.31-.55.47l-.39.36c-.17.17-.33.34-.48.52l-.34.39c-.15.18-.28.37-.42.56s-.2.28-.29.42-.24.41-.36.62-.17.29-.24.44-.2.47-.3.7-.13.3-.18.45-.17.55-.25.84-.08.27-.12.41c-.1.43-.19.88-.25,1.34L35.59,231l-.68,5-.11.79-.19,1.4-.08.61-.14,1.06L34.23,241l-.24,1.8,9.27,6.83h0C43.29,249.59,46.88,242.12,51.88,243.21Z"/><path class="cls-9" d="M664.73,14.62a31.24,31.24,0,0,1,2.41-8.13c2.62-6.08-1.42-12.49-6,4a28.33,28.33,0,0,0-.83,4q2.31.41,4.39.83C664.68,15.07,664.7,14.85,664.73,14.62Z"/><path class="cls-9" d="M673.66,17.49c.36-.45.71-.91,1-1.37l.13-.18c3.66-5.15,4.08-10.56-4.06-2.83-.62.58-1.15,1.15-1.65,1.71s-.71.82-1,1.22Q671.15,16.76,673.66,17.49Z"/><path class="cls-9" d="M688.36,29.93a3.83,3.83,0,0,0,.19-3.71A7.26,7.26,0,0,0,687,24c-2-2-5.92-4.31-13.31-6.48q-2.51-.74-5.57-1.45c-1.09-.25-2.23-.5-3.43-.75q-2.07-.42-4.39-.83l-.28,0C633,9.71,630.39,1.1,630.39,1.1s-12.65,15.82-.19,24.62L617.92,22A61.37,61.37,0,0,0,631,39.53c5,4.53,11.41,8.39,19.11,9.25C671,51.12,688.36,29.93,688.36,29.93Z"/><path class="cls-15" d="M213.52,140c-24.35-4-45-7-61.72-9.23-21.08-2.85-36-4.53-44.51-5.4l-3.73-.38c-3-.29-4.55-.42-4.55-.42L94,136.9h0a6.17,6.17,0,0,1,2.24.82q.45.25,1,.56c.67.41,1.42.91,2.22,1.49,4,2.87,9.74,7.58,16.8,12.78,11.68,8.6,27.1,18.53,45,23.62,31.4,8.95,71.4.05,89.18,2.39l.82.12.56.08,7.48-51A150.83,150.83,0,0,0,228,137.87q-3.14,1.44-5.95,3A71.29,71.29,0,0,1,213.52,140Z"/></svg>