<svg id="Capa_1" data-name="Capa 1" xmlns="http://www.w3.org/2000/svg" viewBox="0 0 561.16 157.89"><defs><style>.cls-1{fill:#fff;}.cls-2{fill:#5207f2;}.cls-3{fill:#d7f205;}.cls-4{fill:#ab05f2;}.cls-5{fill:#23d9b7;}</style></defs><title>Donde_Ayudar</title><path class="cls-1" d="M4.58,119.22V85.92H11a47.52,47.52,0,0,1,10,.72A13.54,13.54,0,0,1,26,89a13.94,13.94,0,0,1,4.34,5.64,21.92,21.92,0,0,1,0,15.8A13.78,13.78,0,0,1,26,116.11a13.58,13.58,0,0,1-5,2.4,38,38,0,0,1-8.68.72H4.58Zm4-3.73H11.1a45,45,0,0,0,8.51-.53,9.28,9.28,0,0,0,3.94-1.83,10.78,10.78,0,0,0,3.12-4.4,16.66,16.66,0,0,0,1.07-6.18,16.53,16.53,0,0,0-1.06-6.15A10.82,10.82,0,0,0,23.55,92a9.35,9.35,0,0,0-4-1.88,43.32,43.32,0,0,0-8.45-.56H8.58Z"/><path class="cls-1" d="M72.43,102.64a17.29,17.29,0,0,1-1.32,6.73A16.8,16.8,0,0,1,67.26,115,18.09,18.09,0,0,1,42,115a16.94,16.94,0,0,1-5.21-12.35,17.25,17.25,0,0,1,1.33-6.74A17,17,0,0,1,42,90.25a17.68,17.68,0,0,1,5.78-3.75,18.3,18.3,0,0,1,13.65,0,17.66,17.66,0,0,1,5.79,3.75,16.78,16.78,0,0,1,3.85,5.63A17.44,17.44,0,0,1,72.43,102.64Zm-17.8,13.74a13.32,13.32,0,0,0,5.2-1,13.81,13.81,0,0,0,4.45-3,13.48,13.48,0,0,0,4-9.69,13.89,13.89,0,0,0-1-5.32,13.57,13.57,0,0,0-12.62-8.46,13.65,13.65,0,0,0-5.26,1,13.06,13.06,0,0,0-4.39,3,13.69,13.69,0,0,0-4,9.78,13.58,13.58,0,0,0,1,5.23,14.14,14.14,0,0,0,7.44,7.48A13.35,13.35,0,0,0,54.63,116.38ZM51.37,82.6,56,74.69h4.57L54.1,82.6Z"/><path class="cls-1" d="M78.89,119.22V84.6l24.36,26.61V85.92H107v34.6L82.67,94.2v25Z"/><path class="cls-1" d="M115,119.22V85.92h6.39a47.52,47.52,0,0,1,10,.72,13.54,13.54,0,0,1,5.08,2.4,13.94,13.94,0,0,1,4.34,5.64,21.92,21.92,0,0,1,0,15.8,13.78,13.78,0,0,1-4.36,5.63,13.58,13.58,0,0,1-5,2.4,38,38,0,0,1-8.68.72H115Zm4-3.73h2.53A45,45,0,0,0,130,115a9.28,9.28,0,0,0,3.94-1.83,10.78,10.78,0,0,0,3.12-4.4,18.4,18.4,0,0,0,0-12.33A10.82,10.82,0,0,0,134,92a9.35,9.35,0,0,0-4-1.88,43.32,43.32,0,0,0-8.45-.56H119Z"/><path class="cls-1" d="M148.77,119.22V85.92h17.56v3.62h-13.6v9.55h13.6v3.69h-13.6v12.76h13.6v3.69Z"/><path class="cls-1" d="M389.36,84.6l15.15,34.62h-4.3L395.88,109h-13l-4.32,10.21h-4.3Zm0,8.76-5.3,12.26h10.6Z"/><path class="cls-1" d="M412.72,119.22V104L401.43,85.92H406l8.71,14.44,8.67-14.44h4.55L416.68,104v15.24Z"/><path class="cls-1" d="M431.89,85.92h4v20.72q0,5,2.15,7.42t6.74,2.37q4.59,0,6.74-2.37t2.15-7.42V85.92h4v20.72q0,6.76-3.22,10.11t-9.7,3.36q-6.46,0-9.68-3.36t-3.22-10.11Z"/><path class="cls-1" d="M465.31,119.22V85.92h9.08a37.51,37.51,0,0,1,8.46.75,14.79,14.79,0,0,1,5.44,2.5,14.41,14.41,0,0,1,4.58,5.68,20.23,20.23,0,0,1,0,15.65,14.36,14.36,0,0,1-4.66,5.65,15,15,0,0,1-5.06,2.35,34.93,34.93,0,0,1-8.15.72h-9.64Zm7.12-6h4q5.6,0,8.15-2.55t2.56-8.08q0-5.5-2.56-8.06T476.39,92h-4Z"/><path class="cls-1" d="M495.61,119.22l12.67-33.3h8.14l12.85,33.3h-8.1l-2.71-7.07h-12.9l-2.32,7.07Zm21.2-12.67L513.08,95.8q-.16-.48-.41-1.64t-.52-2.84q-.3,1.61-.57,2.9t-.41,1.72l-3.59,10.62Z"/><path class="cls-1" d="M556.86,119.22h-8.21l-8.76-15.56v15.56h-7.12V85.92H543q6.07,0,9.1,2.35t3,7.09a8.76,8.76,0,0,1-2.07,5.87,8.08,8.08,0,0,1-5.35,2.84Zm-17-19.11H541q4.32,0,5.71-.94a3.69,3.69,0,0,0,1.39-3.29,4,4,0,0,0-1.49-3.49q-1.49-1-5.61-1h-1.07Z"/><rect class="cls-1" y="141.71" width="209.98" height="1.59"/><rect class="cls-1" x="351.17" y="141.71" width="209.98" height="1.59"/><polygon class="cls-2" points="289.18 1.12 334.62 1.21 357.78 24.15 357.78 69.73 289.18 1.12"/><path class="cls-1" d="M290.66,1.74l43.7.08,22.8,22.59V68.24L335.25,46.32,312.56,23.63,290.66,1.74m-3-1.24,2.1,2.1L311.69,24.5l22.69,22.69L356.3,69.11l2.1,2.1V23.89l-.36-.36L335.23.95l-.36-.36h-.5L290.67.51Z"/><rect class="cls-2" x="220.15" y="38.46" width="32.23" height="125.55" transform="translate(-2.38 196.72) rotate(-45)"/><path class="cls-1" d="M203.27,46.32l21.39,21.39,21.91,21.91,22.69,22.69,21.92,21.92-21.92,21.92-21.92-21.92-22.69-22.69L202.74,89.62,181.35,68.24l21.92-21.92m0-1.74-.87.87L180.48,67.37l-.87.87.87.87,21.38,21.38,21.91,21.91,22.69,22.69L268.39,157l.87.87.87-.87L292,135.1l.87-.87-.87-.87-21.92-21.92L247.44,88.75,225.53,66.84,204.14,45.45l-.87-.87Z"/><rect class="cls-3" x="231.51" y="7.64" width="32.2" height="31.49" transform="translate(55.99 181.93) rotate(-45)"/><path class="cls-1" d="M247.86,1.74l21.4,21.39L247.36,45,226,23.63,247.86,1.74m0-1.74L247,.87,225.09,22.76l-.87.87.87.87L246.49,45.9l.87.87.87-.87L270.13,24l.87-.87-.87-.87L248.73.87,247.86,0Z"/><rect class="cls-4" x="265.94" y="74.16" width="94.55" height="32.23" transform="translate(27.9 247.91) rotate(-45)"/><path class="cls-1" d="M335.25,46.32l21.92,21.92L335.78,89.62l-21.91,21.91-22.69,22.69-21.92-21.92L292,89.62l21.91-21.91,21.39-21.39m0-1.74-.87.87L313,66.84,291.08,88.75l-22.69,22.69-.87.87.87.87,21.92,21.92.87.87.87-.87,22.69-22.69,21.91-21.91L358,69.11l.87-.87-.87-.87L336.12,45.45l-.87-.87Z"/><polygon class="cls-5" points="245.87 45.64 290.66 0.87 313.43 23.63 291.42 45.64 245.87 45.64"/><path class="cls-1" d="M290.66,1.74l21.89,21.89L291.16,45H247.36l21.9-21.89,21.4-21.39m0-1.74-.87.87-21.4,21.39-21.9,21.89-2.1,2.1h47.29l.36-.36L313.43,24.5l.87-.87-.87-.87L291.53.87,290.66,0Z"/><polygon class="cls-4" points="180.74 24.15 203.9 1.21 249.34 1.12 180.74 69.73 180.74 24.15"/><path class="cls-1" d="M247.86,1.74,226,23.63,203.27,46.32,181.35,68.24V24.41l22.8-22.59,43.7-.08m3-1.24h-3l-43.7.08h-.5l-.36.36-22.8,22.59-.36.36V71.21l2.1-2.1,21.92-21.92L226.83,24.5,248.73,2.61l2.1-2.1Z"/></svg>