<svg id="Capa_1" data-name="Capa 1" xmlns="http://www.w3.org/2000/svg" viewBox="0 0 227 227"><defs><style>.cls-1{fill:#e421a2;}</style></defs><title>iconos</title><path class="cls-1" d="M180.5,227H46.5A46.55,46.55,0,0,1,0,180.5V46.5A46.55,46.55,0,0,1,46.5,0h134A46.55,46.55,0,0,1,227,46.5v134A46.55,46.55,0,0,1,180.5,227ZM46.5,5A41.55,41.55,0,0,0,5,46.5v134A41.55,41.55,0,0,0,46.5,222h134A41.55,41.55,0,0,0,222,180.5V46.5A41.55,41.55,0,0,0,180.5,5Z"/><path class="cls-1" d="M78.57,162.63a1.78,1.78,0,0,1-.9-.25C75.42,161,22.5,128.89,22.5,94.72A30.35,30.35,0,0,1,74.33,73.28l4.24,4.24,4.24-4.24a30.35,30.35,0,0,1,51.83,21.43c0,34.17-52.91,66.31-55.17,67.66A1.76,1.76,0,0,1,78.57,162.63ZM52.85,67.87A26.88,26.88,0,0,0,26,94.72c0,29.86,45.54,59.68,52.57,64.1,7-4.42,52.57-34.24,52.57-64.1a26.84,26.84,0,0,0-45.85-19L79.8,81.23a1.75,1.75,0,0,1-2.47,0l-5.48-5.48A26.68,26.68,0,0,0,52.85,67.87Z"/><path class="cls-1" d="M42.23,107.13a1.75,1.75,0,0,1-1.58-1,26.54,26.54,0,0,1-3-11.42A15.19,15.19,0,0,1,52.85,79.53a1.75,1.75,0,0,1,0,3.5A11.68,11.68,0,0,0,41.17,94.72a23.12,23.12,0,0,0,2.64,9.9,1.75,1.75,0,0,1-1.58,2.51Z"/><path class="cls-1" d="M202.75,97.35H185.66a1.75,1.75,0,0,0-1.75,1.75v1.18H177.2a29.2,29.2,0,0,0-7.5-5L131.18,79.35a4.27,4.27,0,0,0-2.11-.29,1.75,1.75,0,1,0,.41,3.48.78.78,0,0,1,.37.05L168.29,98.5a25.52,25.52,0,0,1,7,4.79,1.75,1.75,0,0,0,1.21.49h7.41V137h-5a1.75,1.75,0,0,0-1.37.66,25.47,25.47,0,0,1-20,9.64H108.93a8.51,8.51,0,0,1-8.3-6.53.26.26,0,0,1,.25-.26h37.95a1.75,1.75,0,0,0,0-3.5H104.94a10.44,10.44,0,0,1-10.17-7.92,1.37,1.37,0,0,1,0-.18.63.63,0,0,1,.63-.64h43.46a1.75,1.75,0,1,0,0-3.5H100.88a10.44,10.44,0,0,1-10.17-7.92,1.28,1.28,0,0,1,0-.18.64.64,0,0,1,.63-.64h47.52a1.75,1.75,0,0,0,0-3.5H104.94a10.44,10.44,0,0,1-10.17-7.92,1.47,1.47,0,0,1,0-.18.64.64,0,0,1,.63-.64h52.37a1.75,1.75,0,0,0,.67-3.37L135.56,95.1a11.39,11.39,0,0,1-1.71-.89,1.75,1.75,0,1,0-1.88,3,14.8,14.8,0,0,0,2.24,1.16l4.72,2H95.37a4.15,4.15,0,0,0-4.12,4.14,5.48,5.48,0,0,0,.11.93,14,14,0,0,0,4.33,7.17H91.31a4.15,4.15,0,0,0-4.12,4.14,5.45,5.45,0,0,0,.11.92,13.93,13.93,0,0,0,5.51,8.1,4.11,4.11,0,0,0-1.56,3.21,5.41,5.41,0,0,0,.11.93,14,14,0,0,0,6.5,8.74,3.73,3.73,0,0,0-.72,2.19,4.62,4.62,0,0,0,.1.84,12,12,0,0,0,11.7,9.19h48.61a29,29,0,0,0,22.2-10.29h4.17v2a1.75,1.75,0,0,0,1.75,1.75h17.08a1.75,1.75,0,0,0,1.75-1.75V99.1A1.75,1.75,0,0,0,202.75,97.35ZM201,140.74H187.41V100.85H201Z"/></svg>