<?xml version="1.0" encoding="utf-8"?>
<!-- Generator: Adobe Illustrator 21.1.0, SVG Export Plug-In . SVG Version: 6.00 Build 0)  -->
<svg version="1.1" id="Capa_1" xmlns="http://www.w3.org/2000/svg" xmlns:xlink="http://www.w3.org/1999/xlink" x="0px" y="0px"
	 viewBox="0 0 227 227" style="enable-background:new 0 0 227 227;" xml:space="preserve">
<style type="text/css">
	.st0{fill:#055E00;}
</style>
<title>iconos</title>
<path class="st0" d="M180.5,227h-134C20.8,227,0,206.2,0,180.5v-134C0,20.8,20.8,0,46.5,0h134C206.2,0,227,20.8,227,46.5v134
	C227,206.2,206.2,227,180.5,227z M46.5,5C23.6,5,5,23.6,5,46.5v134C5,203.4,23.6,222,46.5,222h134c22.9,0,41.5-18.6,41.5-41.5v-134
	C222,23.6,203.4,5,180.5,5H46.5z"/>
<g>
	<g>
		<path class="st0" d="M93.5,188l-28.8-0.1c-2.3,0-4.2-1.9-4.2-4.2L60,169.1l-26.9-32.4c-4.6-4.9-7.2-10-8.1-15.8l-0.3-1.8L20,73
			c-0.3-3,0.8-5.9,3-7.6c2.8-2.2,7.2-3,10.4,0.7c1.7,1.9,2.5,6,3.2,10.1c0,0.3,0.1,0.6,0.1,0.8c0.9,5.5,2,14.4,2.2,21
			c0,0.2,0,0.5,0,0.8c0,0.2,0,0.4,0,0.6c0.2,2.6,0.7,4.8,1.8,7c6,13,18.2,29.8,18.4,30l0,0.1l0.7,1c0,0,0,0,0,0c0,0,0,0,0,0l1.5-1
			l-1.5,0.9l-16.4-26.7c-2.3-3.9-0.9-9.1,3-11.6c2-1.2,4.3-1.6,6.6-1c2.1,0.5,3.9,1.8,4.9,3.5l16.9,21.8c1,1.3,3,3.3,4.3,4.2
			c15.2,11,17.8,22.2,19.2,28.2l0.2,0.9c0,0.1,0.2,1.4,0.2,3.3c0,1.5,0,3.5-0.3,5.5l-1,18.3C97.7,186.2,95.8,188,93.5,188z
			 M28.3,118.8l0.3,1.6c0.8,5.1,3.1,9.6,7.2,14l0.1,0.1l27.7,33.4l0.5,15.9c0,0.4,0.3,0.7,0.7,0.7l28.8,0.1c0.4,0,0.7-0.3,0.7-0.7
			l0-0.1l1-18.5c0.3-1.9,0.3-3.7,0.3-5.1c0-1.4-0.1-2.5-0.1-2.8l-0.2-0.7c-1.4-6-3.7-16-17.8-26.2c-1.6-1.1-3.8-3.3-5-4.9l-17.1-22
			l-0.1-0.1c-0.6-1-1.6-1.7-2.8-2c-1.3-0.3-2.7-0.1-3.9,0.6c-2.3,1.4-3.2,4.6-1.9,6.7L63,135.5c0.5,0.8,0.6,1.8,0.4,2.8
			c-0.3,0.9-0.9,1.7-1.7,2.2c-1.6,0.9-3.6,0.4-4.6-1.1l-0.7-1c-0.8-1.1-12.6-17.3-18.7-30.5c-1.2-2.6-1.9-5.3-2.1-8.2
			c0-0.2,0-0.5,0-0.7c0-0.2,0-0.4,0-0.6l0-0.1c-0.2-5.6-1.1-14-2.2-20.6c0-0.2-0.1-0.5-0.1-0.8c-0.3-1.7-1.1-7-2.4-8.4
			c-2.4-2.7-5.1-0.7-5.6-0.3c-1.2,1-1.9,2.7-1.7,4.5L28.3,118.8z"/>
	</g>
	<g>
		<path class="st0" d="M86.6,91.6c-3.4,0-6.7-0.7-9.9-1.9c-3.3-1.3-6.2-3.3-8.7-5.8c-2.5-2.5-4.4-5.4-5.8-8.7
			c-1.3-3.1-1.9-6.5-1.9-9.9c0-3.4,0.7-6.7,1.9-9.9c1.3-3.3,3.3-6.2,5.8-8.7c2.5-2.5,5.4-4.4,8.7-5.8c3.1-1.3,6.5-1.9,9.9-1.9
			c3.4,0,6.7,0.7,9.9,1.9c3.3,1.3,6.2,3.3,8.7,5.8l26.9,26.9c2.2,2.2,5.2,3.4,8.3,3.4c3.1,0,6.1-1.2,8.3-3.4
			c2.2-2.2,3.4-5.2,3.4-8.3c0-3.1-1.2-6.1-3.4-8.3c-2.2-2.2-5.2-3.4-8.3-3.4c-3.1,0-6.1,1.2-8.3,3.4l-3.2,3.2l-10.3-10.3l3.2-3.2
			c2.5-2.5,5.4-4.4,8.7-5.8c3.1-1.3,6.5-1.9,9.9-1.9c3.4,0,6.7,0.7,9.9,1.9c3.3,1.3,6.2,3.3,8.7,5.8c2.5,2.5,4.4,5.4,5.8,8.7
			c1.3,3.1,1.9,6.5,1.9,9.9c0,3.4-0.7,6.7-1.9,9.9c-1.3,3.3-3.3,6.2-5.8,8.7c-2.5,2.5-5.4,4.4-8.7,5.8c-3.1,1.3-6.5,1.9-9.9,1.9
			c-3.4,0-6.7-0.7-9.9-1.9c-3.3-1.3-6.2-3.3-8.7-5.8L94.9,56.9c-2.2-2.2-5.2-3.4-8.3-3.4c-3.1,0-6.1,1.2-8.3,3.4
			c-2.2,2.2-3.4,5.2-3.4,8.3c0,3.1,1.2,6.1,3.4,8.3c2.2,2.2,5.2,3.4,8.3,3.4c3.1,0,6.1-1.2,8.3-3.4l2.9-2.9l10.3,10.3l-2.9,2.9
			c-2.5,2.5-5.4,4.4-8.7,5.8C93.3,90.9,90,91.6,86.6,91.6z M86.6,42.5c-3,0-5.8,0.6-8.5,1.7c-2.9,1.2-5.4,2.8-7.5,5
			c-2.1,2.1-3.8,4.7-5,7.5c-1.1,2.7-1.7,5.6-1.7,8.6c0,3,0.6,5.8,1.7,8.5c1.2,2.9,2.8,5.4,5,7.5c2.1,2.1,4.7,3.8,7.5,5
			c2.7,1.1,5.6,1.7,8.6,1.7c3,0,5.8-0.6,8.5-1.7c2.9-1.2,5.4-2.8,7.5-5l0.5-0.5l-5.3-5.3L97.3,76c-2.9,2.9-6.7,4.5-10.8,4.5
			c-4.1,0-7.9-1.6-10.8-4.5c-2.9-2.9-4.5-6.7-4.5-10.8c0-4.1,1.6-7.9,4.5-10.8c2.9-2.9,6.7-4.5,10.8-4.5c4.1,0,7.9,1.6,10.8,4.5
			l26.9,26.9c2.2,2.2,4.7,3.8,7.5,5c2.7,1.1,5.6,1.7,8.6,1.7c3,0,5.8-0.6,8.5-1.7c2.9-1.2,5.4-2.8,7.5-5c2.1-2.2,3.8-4.7,5-7.5
			c1.1-2.7,1.7-5.6,1.7-8.6c0-3-0.6-5.8-1.7-8.5l0,0c-1.2-2.9-2.8-5.4-5-7.5c-2.1-2.1-4.7-3.8-7.5-5c-2.7-1.1-5.6-1.7-8.6-1.7
			c-3,0-5.8,0.6-8.5,1.7c-2.9,1.2-5.4,2.8-7.6,5l-0.8,0.8l5.3,5.3l0.8-0.8c2.9-2.9,6.7-4.5,10.8-4.5c4.1,0,7.9,1.6,10.8,4.5
			c2.9,2.9,4.5,6.7,4.5,10.8c0,4.1-1.6,7.9-4.5,10.8c-2.9,2.9-6.7,4.5-10.8,4.5c-4.1,0-7.9-1.6-10.8-4.5l-26.9-26.9
			c-2.1-2.1-4.7-3.8-7.5-5C92.4,43.1,89.6,42.5,86.6,42.5z"/>
	</g>
	<g>
		<path class="st0" d="M43.4,75.3c-0.7-2.3-2-4-4.4-4.8c0.5,1.6,0.8,3.3,1.1,4.8C41,80.6,42.3,90,42.4,95c0,0.5,0,1,0,1.5
			c0.6-0.5,1.2-1,1.8-1.4c0.8-0.5,1.7-0.9,2.6-1.2c0-0.1,0.1-0.1,0.1-0.2C46.3,89,44.6,80,43.4,75.3L43.4,75.3z M43.4,75.3"/>
	</g>
	<g>
		<path class="st0" d="M133.5,188c-2.3,0-4.2-1.9-4.2-4.1l-1-18.3c-0.3-2-0.3-4-0.3-5.5c0-1.9,0.2-3.2,0.2-3.3l0-0.2l0.2-0.7
			c1.4-6,4-17.3,19.2-28.2c1.4-1,3.3-3,4.3-4.2l16.9-21.8c1.1-1.7,2.8-3,5-3.5c2.2-0.5,4.6-0.2,6.6,1c4,2.5,5.3,7.7,3,11.5
			L167,137.3c0,0,0,0,0,0.1c0,0,0.1,0,0.1,0l0.7-1c0.1-0.2,12.3-16.9,18.3-30c1-2.2,1.6-4.5,1.8-6.9l0-0.1c0-0.5,0.1-0.9,0.1-1.2
			c0.2-6.5,1.2-15.2,2.2-21.1c0-0.2,0.1-0.4,0.1-0.7c0.7-4.2,1.6-8.3,3.2-10.2c2.3-2.5,6.5-3.8,10.4-0.8l0,0c2.1,1.7,3.3,4.6,3,7.6
			l-4.8,46.3l-0.3,1.7c-0.9,5.8-3.5,10.9-8.1,15.8L167,169.1l-0.5,14.6c0,2.3-1.9,4.2-4.2,4.2L133.5,188z M131.6,157.2
			c0,0.3-0.1,1.4-0.1,2.9c0,1.4,0,3.3,0.3,5.1l0,0.1l1,18.5c0,0.4,0.3,0.7,0.7,0.7l28.8-0.2c0.4,0,0.7-0.3,0.7-0.7l0-0.1l0.5-15.8
			l27.8-33.4c4.1-4.3,6.4-8.9,7.2-14l0.3-1.7l4.7-46.1c0.2-1.8-0.5-3.5-1.7-4.5c-0.6-0.4-3.3-2.3-5.7,0.3c-1.2,1.4-2.1,6.7-2.4,8.5
			c0,0.3-0.1,0.5-0.1,0.7c-1,5.7-2,14.3-2.2,20.5c0,0.5-0.1,1.2-0.1,1.5c-0.2,2.9-0.8,5.5-2.1,8.2c-6.1,13.2-17.9,29.5-18.7,30.5
			l-0.7,1c-1.1,1.5-3.1,2-4.7,1.1c-0.8-0.5-1.5-1.3-1.7-2.2c-0.3-0.9-0.1-2,0.4-2.8l16.4-26.7c1.3-2.2,0.4-5.3-1.9-6.7
			c-1.1-0.7-2.6-0.9-3.9-0.6c-1.2,0.3-2.3,1-2.8,2l-0.1,0.2l-17,21.9c-1.2,1.5-3.4,3.7-5,4.9c-14.1,10.2-16.4,20.2-17.8,26.2
			L131.6,157.2z"/>
	</g>
	<g>
		<path class="st0" d="M174.5,81.9c-0.8,2.9-2.8,9-3.3,12.1c1.3-0.5,2.7-0.8,4.1-0.8c0-0.2,0-0.5,0-0.7l0.3-2.3
			c0.5-3.3,2.4-9.7,3.2-13.2C176.5,77.9,175.1,79.6,174.5,81.9L174.5,81.9z M174.5,81.9"/>
	</g>
	<g>
		<path class="st0" d="M183.6,75.3c-1.2,4.7-2.9,13.7-3.5,18.5c0,0.1,0.1,0.1,0.1,0.2c0.9,0.3,1.8,0.7,2.6,1.2
			c0.6,0.4,1.2,0.9,1.8,1.4c0-0.5,0-1,0-1.5c0.1-5,1.4-14.4,2.3-19.6c0.3-1.6,0.6-3.2,1.1-4.8C185.6,71.3,184.3,73,183.6,75.3
			L183.6,75.3z M183.6,75.3"/>
	</g>
	<g>
		<path class="st0" d="M52.5,81.9c-0.7-2.4-2-4.1-4.3-4.9c0.8,3.5,2.7,9.8,3.2,13.2l0.3,2.3c0,0.2,0,0.5,0,0.7
			c1.4,0,2.8,0.3,4.1,0.8C55.3,91,53.3,84.8,52.5,81.9L52.5,81.9z M52.5,81.9"/>
	</g>
</g>
</svg>
