<?xml version="1.0" encoding="utf-8"?>
<!-- Generator: Adobe Illustrator 21.1.0, SVG Export Plug-In . SVG Version: 6.00 Build 0)  -->
<svg version="1.1" id="Capa_1" xmlns="http://www.w3.org/2000/svg" xmlns:xlink="http://www.w3.org/1999/xlink" x="0px" y="0px"
	 viewBox="0 0 227 227" style="enable-background:new 0 0 227 227;" xml:space="preserve">
<style type="text/css">
	.st0{fill:#009CFC;}
</style>
<title>iconos</title>
<path class="st0" d="M180.5,227h-134C20.8,227,0,206.2,0,180.5v-134C0,20.8,20.8,0,46.5,0h134C206.2,0,227,20.8,227,46.5v134
	C227,206.2,206.2,227,180.5,227z M46.5,5C23.6,5,5,23.6,5,46.5v134C5,203.4,23.6,222,46.5,222h134c22.9,0,41.5-18.6,41.5-41.5v-134
	C222,23.6,203.4,5,180.5,5H46.5z"/>
<g>
	<path class="st0" d="M41.3,92.6v109.2c0,1.8,1.4,3.2,3.2,3.2h31.8c0,0,0.1,0,0.1,0s0.1,0,0.1,0h64.2c0.2,0,0.5-0.1,0.7-0.1
		c0.2,0.1,0.4,0.1,0.7,0.1h27.6c1.6,0,3-1.2,3.2-2.8l6.4-54.6c0.2-1.8-1.1-3.4-2.8-3.6c-0.1,0-0.2,0-0.4,0v-25.7
		c0-0.2,0-0.4-0.1-0.6l-3.1-15.7v-9.3h6.4c3.5,0,6.4-2.9,6.4-6.4V70.2c0-3.5-2.9-6.4-6.4-6.4H172c-1.1-2-3.2-3.2-5.5-3.2h-6.4
		c-3.5,0-6.4,2.9-6.4,6.4v35.3c0,0.2,0,0.4,0.1,0.6l3.1,15.7V144h-6.4v-19.3c0-0.4-0.1-0.8-0.2-1.2l0-0.1l-6.2-15.4v-9
		c0-3.5-2.9-6.4-6.4-6.4h-6.4c-3.5,0-6.4,2.9-6.4,6.4v9l-6.2,15.4l0,0.1c-0.2,0.4-0.2,0.8-0.2,1.2V144h-3.2c-1.8,0-3.2,1.4-3.2,3.2
		c0,0.1,0,0.3,0,0.4l1.1,9.3h-7.5V92.6c0-12.2-7.7-23.1-19.3-27.2V47.7c0-1.8-1.4-3.2-3.2-3.2h-6.4v-3.2H83c1.8,0,3.2-1.4,3.2-3.2
		v-3.2h11.5l8.7,8.7c1.3,1.2,3.3,1.2,4.5-0.1c1.2-1.2,1.2-3.2,0-4.5l-9.6-9.6c-0.6-0.6-1.4-0.9-2.3-0.9H85.6c-1.4-3.8-5-6.4-9-6.4
		h-6.4c-5.3,0-9.6,4.3-9.6,9.6v6.4c0,1.8,1.4,3.2,3.2,3.2h6.4v3.2h-6.4c-1.8,0-3.2,1.4-3.2,3.2v17.7C49,69.5,41.3,80.4,41.3,92.6
		L41.3,92.6z M172.9,70.2h6.4v16.1h-6.4V70.2z M47.7,108.7h51.4v32.1H47.7V108.7z M76.6,179.3c-1.8,0-3.2,1.4-3.2,3.2v16.1H47.7
		v-51.4h51.4v9.6h-8c-8,0-14.4,6.5-14.4,14.5c0,2.9,0.8,5.6,2.4,8H76.6z M137.6,198.6H79.8v-12.8h57.8V198.6z M160.1,66.9h6.4v35.3
		c0,0.2,0,0.4,0.1,0.6l3.1,15.7V144h-6.4v-25.7c0-0.2,0-0.4-0.1-0.6l-3.1-15.7V66.9z M131.2,99.1h6.4v6.4h-6.4V99.1z M130.1,111.9
		h8.5l3.9,9.6h-16.2L130.1,111.9z M124.7,127.9H144V144h-19.3V127.9z M172.5,150.4l-5.7,48.2H144v-16.1c0-1.8-1.4-3.2-3.2-3.2h-5.7
		c4.4-6.6,2.6-15.6-4-20c-2.4-1.6-5.2-2.4-8-2.4h-3.7l-0.8-6.4H172.5z M123.1,163.3c4.4,0,8,3.6,8,8c0,4.4-3.6,8-8,8H91
		c-4.4,0-8-3.6-8-8c0-4.4,3.6-8,8-8H123.1z M66.9,34.8v-3.2c0-1.8,1.4-3.2,3.2-3.2h6.4c1.8,0,3.2,1.4,3.2,3.2v3.2H66.9z M66.9,50.9
		h12.8v12.8H66.9V50.9z M70.2,70.2h6.4C89,70.2,99,80.2,99.1,92.6v9.6H47.7v-9.6C47.7,80.2,57.8,70.2,70.2,70.2L70.2,70.2z
		 M70.2,70.2"/>
</g>
</svg>
