<?xml version="1.0" encoding="utf-8"?>
<!-- Generator: Adobe Illustrator 21.1.0, SVG Export Plug-In . SVG Version: 6.00 Build 0)  -->
<svg version="1.1" id="Capa_1" xmlns="http://www.w3.org/2000/svg" xmlns:xlink="http://www.w3.org/1999/xlink" x="0px" y="0px"
	 viewBox="0 0 227 227" style="enable-background:new 0 0 227 227;" xml:space="preserve">
<style type="text/css">
	.st0{fill:#6900BC;}
</style>
<title>iconos</title>
<path class="st0" d="M180.5,227h-134C20.8,227,0,206.2,0,180.5v-134C0,20.8,20.8,0,46.5,0h134C206.2,0,227,20.8,227,46.5v134
	C227,206.2,206.2,227,180.5,227z M46.5,5C23.6,5,5,23.6,5,46.5v134C5,203.4,23.6,222,46.5,222h134c22.9,0,41.5-18.6,41.5-41.5v-134
	C222,23.6,203.4,5,180.5,5H46.5z"/>
<g>
	<path class="st0" d="M203.6,87.9l-29.4-29.4c-0.4-0.4-1-0.7-1.5-0.8l-32.3-5.9c-1.6-0.3-3.1,0.8-3.4,2.4c0,0.2,0,0.3,0,0.5
		c0,0.9-0.1,1.9-0.3,2.8l-20.3-5.1v-0.9c7.9-1.6,13.1-9.4,11.4-17.3c-1.6-7.9-9.4-13.1-17.3-11.4c-6.8,1.4-11.7,7.4-11.7,14.4h5.9
		c0-4.9,3.9-8.8,8.8-8.8c4.9,0,8.8,3.9,8.8,8.8s-3.9,8.8-8.8,8.8c-1.6,0-2.9,1.3-2.9,2.9v3.6l-20.3,5.1c-0.2-0.9-0.2-1.9-0.3-2.8
		c0-0.9-0.4-1.7-1.1-2.3c-0.7-0.6-1.6-0.8-2.4-0.6l-32.3,5.9c-0.6,0.1-1.1,0.4-1.5,0.8L23.4,87.9c-1.1,1.1-1.1,3,0,4.2l23.5,23.5
		c1.1,1.1,3,1.1,4.2,0l6.7-6.7v19.3H37.2c-8.1,0-14.7,6.5-14.7,14.6c0,4.7,2.2,9.1,6,11.8c-6.5,4.7-7.9,13.8-3.2,20.3
		c0.9,1.2,2,2.3,3.2,3.2c-6.5,4.8-7.9,14-3.1,20.5c2.8,3.8,7.2,6,11.8,6h105.7c0.8,0,1.5-0.3,2.1-0.9l23.5-23.5
		c0.5-0.6,0.8-1.3,0.8-2.1h0v-69.2l6.7,6.7c1.1,1.1,3,1.1,4.2,0l23.5-23.5C204.8,90.9,204.8,89.1,203.6,87.9L203.6,87.9z
		 M113.5,57.8l21.3,5.3c-4.4,7.5-12.6,12.1-21.3,11.8c-8.7,0.3-16.9-4.3-21.3-11.8L113.5,57.8z M28.4,142.9c0-4.9,3.9-8.8,8.8-8.8
		h64.6c4.9,0,8.8,3.9,8.8,8.8s-3.9,8.8-8.8,8.8H37.2C32.3,151.7,28.4,147.7,28.4,142.9L28.4,142.9z M28.4,166.3
		c0-4.9,3.9-8.8,8.8-8.8h64.6c4.9,0,8.8,3.9,8.8,8.8s-3.9,8.8-8.8,8.8H37.2C32.3,175.1,28.4,171.2,28.4,166.3L28.4,166.3z
		 M101.8,198.6H37.2c-4.9,0-8.8-3.9-8.8-8.8c0-4.9,3.9-8.8,8.8-8.8h64.6c4.9,0,8.8,3.9,8.8,8.8C110.6,194.7,106.6,198.6,101.8,198.6
		L101.8,198.6z M145.8,194.5V181h13.5L145.8,194.5z M178.1,109.3l-18.5-18.5l-4.2,4.2l7.9,7.9v72.2h-20.5c-1.6,0-2.9,1.3-2.9,2.9
		v20.5h-26.5c4.9-6.3,3.7-15.4-2.6-20.3c-0.1-0.1-0.2-0.2-0.3-0.2c6.5-4.7,7.9-13.8,3.2-20.3c-0.9-1.2-2-2.3-3.2-3.2
		c6.5-4.8,7.9-13.9,3.1-20.5c-2.8-3.8-7.2-6-11.8-6H63.6V103l7.9-7.9l-4.2-4.2l-18.5,18.5L29.6,90l26.6-26.6l28.2-5.1
		c1.9,12.7,14.2,22.6,29.1,22.6s27.2-9.9,29.1-22.6l28.2,5.1L197.4,90L178.1,109.3z M178.1,109.3"/>
	<rect x="34.2" y="139.9" class="st0" width="70.5" height="5.9"/>
	<rect x="34.2" y="163.4" class="st0" width="67.5" height="5.9"/>
	<rect x="34.2" y="186.9" class="st0" width="67.5" height="5.9"/>
</g>
</svg>
