<?xml version="1.0" encoding="utf-8"?>
<!-- Generator: Adobe Illustrator 21.1.0, SVG Export Plug-In . SVG Version: 6.00 Build 0)  -->
<svg version="1.1" id="Capa_1" xmlns="http://www.w3.org/2000/svg" xmlns:xlink="http://www.w3.org/1999/xlink" x="0px" y="0px"
	 viewBox="0 0 227 227" style="enable-background:new 0 0 227 227;" xml:space="preserve">
<style type="text/css">
	.st0{fill:#CC0097;}
</style>
<title>iconos</title>
<path class="st0" d="M180.5,227h-134C20.8,227,0,206.2,0,180.5v-134C0,20.8,20.8,0,46.5,0h134C206.2,0,227,20.8,227,46.5v134
	C227,206.2,206.2,227,180.5,227z M46.5,5C23.6,5,5,23.6,5,46.5v134C5,203.4,23.6,222,46.5,222h134c22.9,0,41.5-18.6,41.5-41.5v-134
	C222,23.6,203.4,5,180.5,5H46.5z"/>
<g>
	<path class="st0" d="M71,57.8c0,5,6.3,8.8,14.7,8.8c8.4,0,14.7-3.8,14.7-8.8c0-5-6.3-8.8-14.7-8.8C77.3,49,71,52.8,71,57.8L71,57.8
		z M85.7,54.9c5.7,0,8.8,2.2,8.8,2.9c0,0.7-3.1,2.9-8.8,2.9c-5.7,0-8.8-2.2-8.8-2.9C76.9,57.1,80,54.9,85.7,54.9L85.7,54.9z
		 M85.7,54.9"/>
	<path class="st0" d="M126.7,131.1c0,5,6.3,8.8,14.7,8.8c8.4,0,14.7-3.8,14.7-8.8c0-5-6.3-8.8-14.7-8.8
		C133,122.3,126.7,126.1,126.7,131.1L126.7,131.1z M150.1,131.1c0,0.7-3.1,2.9-8.8,2.9c-5.7,0-8.8-2.2-8.8-2.9
		c0-0.7,3.1-2.9,8.8-2.9C147,128.1,150.1,130.3,150.1,131.1L150.1,131.1z M150.1,131.1"/>
	<path class="st0" d="M200,128.1c0-0.2-0.1-0.4-0.1-0.6c0.4-1.4-0.3-2.9-1.7-3.5l-16.3-6.9c-1.6-3.9-7.1-6.6-14.2-6.6
		c-2.1,0,0.8,1-12-4.4c-0.9-3.7-5.4-6.5-11.5-7.2c0-48.1,0.1-45.9-0.2-46.7c-0.3-0.7-0.9-1.2-1.5-1.5c-0.6-0.2,0,0-16.3-6.9
		c-1.6-3.9-7.1-6.6-14.2-6.6c-2.1,0,0.8,1-12-4.4c-2.5-9.8-26.3-9.8-28.9,0c-12.7,5.4-9.9,4.4-12,4.4c-7.1,0-12.6,2.7-14.2,6.6
		c-8.2,3.5-16.7,7-16.3,6.9c-0.6,0.3-1.1,0.8-1.4,1.4c-0.5,1-0.3-5.8-0.3,99.5c0,1.2,0.7,2.2,1.8,2.7
		c117.6,49.5,111.2,47.1,112.5,47.1c1,0-2.7,1.4,56.8-23.7c0.5-0.2,1-0.6,1.3-1.1C200.2,175.5,200,179.1,200,128.1L200,128.1z
		 M144.3,152.1l49.8-21v42l-49.8,21V152.1z M176.5,119.4c0,0.7-3.1,2.9-8.8,2.9c-5.7,0-8.8-2.2-8.8-2.9c0-0.7,3.1-2.9,8.8-2.9
		C173.4,116.4,176.5,118.6,176.5,119.4L176.5,119.4z M167.7,128.1c5,0.4,9.8-1.5,13.3-5l8.5,3.6L141.3,147l-48.1-20.3l8.5-3.6
		c3.5,3.6,8.3,5.4,13.3,5c14.3,0,18.8-10,10.5-15l3-1.3c5.4,6.1,20.4,6.1,25.7,0l3,1.3C148.8,118.2,153.6,128.1,167.7,128.1
		L167.7,128.1z M126.9,106.2c-12.7,5.4-9.9,4.4-12,4.4c-7.1,0-12.6,2.7-14.2,6.6l-12.2,5.1V78.8l49.8-21V99
		C132.3,99.7,127.9,102.5,126.9,106.2L126.9,106.2z M115,116.4c5.7,0,8.8,2.2,8.8,2.9c0,0.7-3.1,2.9-8.8,2.9c-5.7,0-8.8-2.2-8.8-2.9
		C106.2,118.6,109.3,116.4,115,116.4L115,116.4z M32.9,57.8l49.8,21v43.5l-49.8-21V57.8z M150.1,107.6c0,0.7-3.1,2.9-8.8,2.9
		c-5.7,0-8.8-2.2-8.8-2.9c0-0.7,3.1-2.9,8.8-2.9C147,104.7,150.1,106.9,150.1,107.6L150.1,107.6z M120.8,46.1c0,0.7-3.1,2.9-8.8,2.9
		c-5.7,0-8.8-2.2-8.8-2.9c0-0.7,3.1-2.9,8.8-2.9C117.7,43.1,120.8,45.3,120.8,46.1L120.8,46.1z M85.7,31.4c5.7,0,8.8,2.2,8.8,2.9
		c0,0.7-3.1,2.9-8.8,2.9c-5.7,0-8.8-2.2-8.8-2.9C76.9,33.6,80,31.4,85.7,31.4L85.7,31.4z M72.8,38.6c5.4,6.1,20.4,6.1,25.7,0l3,1.3
		c-2.4,1.2-4,3.6-4.1,6.2c0,9.8,21.8,11.9,27.9,3.8l8.5,3.6L85.7,73.7L37.5,53.4l8.5-3.6c6.1,8.1,27.9,6.1,27.9-3.8
		c-0.2-2.7-1.7-5-4.1-6.2L72.8,38.6z M59.3,43.1c5.7,0,8.8,2.2,8.8,2.9c0,0.7-3.1,2.9-8.8,2.9c-5.7,0-8.8-2.2-8.8-2.9
		C50.5,45.3,53.6,43.1,59.3,43.1L59.3,43.1z M32.9,107.7l51.6,21.7l53.9,22.7v42L32.9,149.7V107.7z M32.9,107.7"/>
	<path class="st0" d="M130.8,178.2l-64.5-27.9c-1-0.4-2.1-0.3-3,0.3c-0.9,0.6-1.3,1.7-1.2,2.7c0.1,1.1,0.8,2,1.8,2.4l64.5,27.9
		c1,0.5,2.1,0.4,3-0.3c0.9-0.6,1.3-1.7,1.2-2.7C132.5,179.5,131.8,178.6,130.8,178.2L130.8,178.2z M130.8,178.2"/>
	<path class="st0" d="M51.6,143.9l-8.8-3.8c-1.5-0.6-3.2,0-3.9,1.5c-0.6,1.5,0,3.2,1.5,3.9l8.8,3.8c1,0.4,2.1,0.3,2.9-0.3
		c0.8-0.6,1.3-1.6,1.2-2.7C53.3,145.2,52.6,144.3,51.6,143.9L51.6,143.9z M51.6,143.9"/>
</g>
</svg>
