<svg id="Capa_1" data-name="Capa 1" xmlns="http://www.w3.org/2000/svg" viewBox="0 0 227 227"><defs><style>.cls-1{fill:#f2b705;}</style></defs><title>iconos</title><path class="cls-1" d="M180.5,227H46.5A46.55,46.55,0,0,1,0,180.5V46.5A46.55,46.55,0,0,1,46.5,0h134A46.55,46.55,0,0,1,227,46.5v134A46.55,46.55,0,0,1,180.5,227ZM46.5,5A41.55,41.55,0,0,0,5,46.5v134A41.55,41.55,0,0,0,46.5,222h134A41.55,41.55,0,0,0,222,180.5V46.5A41.55,41.55,0,0,0,180.5,5Z"/><path class="cls-1" d="M113.5,60.95a15.12,15.12,0,1,1,15.12-15.12A15.14,15.14,0,0,1,113.5,60.95Zm0-26a10.9,10.9,0,1,0,10.9,10.9A10.91,10.91,0,0,0,113.5,34.93Z"/><path class="cls-1" d="M113.5,142.66a5.18,5.18,0,0,1-4.06-1.94L79.63,111.59a19.89,19.89,0,0,1-4.78-6.92,20.61,20.61,0,0,1,1.78-18.31,19,19,0,0,1,14.7-9q.91-.07,1.84-.07A22.48,22.48,0,0,1,113.5,90.25a22.47,22.47,0,0,1,20.33-12.94c.62,0,1.23,0,1.84.07a19,19,0,0,1,14.7,9,20.6,20.6,0,0,1,1.78,18.31,19.85,19.85,0,0,1-4.78,6.92l-29.81,29.13a5.17,5.17,0,0,1-4.06,1.94ZM93.17,81.53q-.75,0-1.49.06a14.65,14.65,0,0,0-11.46,7,16.36,16.36,0,0,0-1.43,14.54,15.74,15.74,0,0,0,3.8,5.43l29.91,29.23c.47.59.82.64,1,.64a1,1,0,0,0,.8-.4c.21-.24,30.12-29.47,30.12-29.47a15.7,15.7,0,0,0,3.79-5.43,16.36,16.36,0,0,0-1.42-14.54,14.65,14.65,0,0,0-11.46-7c-.49,0-1-.06-1.49-.06a18.24,18.24,0,0,0-18.22,18.22,2.11,2.11,0,1,1-4.22,0A18.24,18.24,0,0,0,93.17,81.53Z"/><path class="cls-1" d="M109.16,196.29H96a2.11,2.11,0,0,1-2.11-2.11V124.63a2.11,2.11,0,0,1,3.59-1.51l13.78,13.47a2.11,2.11,0,0,1,.37,2.54,2.68,2.68,0,0,0-.35,1.31v53.74A2.11,2.11,0,0,1,109.16,196.29Zm-11.05-4.22h8.94V140.44a6.91,6.91,0,0,1,.25-1.81l-9.18-9Z"/><path class="cls-1" d="M113.5,101.86a2.11,2.11,0,0,1-2.11-2.11A18.24,18.24,0,0,0,93.17,81.53q-.75,0-1.49.06a14.73,14.73,0,0,0-6.1,1.88A2.11,2.11,0,0,1,82.51,81a20.08,20.08,0,0,1,17-14.2,124,124,0,0,1,14.05-.46,122.44,122.44,0,0,1,14,.46,20.08,20.08,0,0,1,17,14.2,2.11,2.11,0,0,1-3.06,2.45,14.72,14.72,0,0,0-6.1-1.88c-.49,0-1-.06-1.49-.06a18.24,18.24,0,0,0-18.22,18.22A2.11,2.11,0,0,1,113.5,101.86ZM93.17,77.31A22.48,22.48,0,0,1,113.5,90.25a22.47,22.47,0,0,1,20.33-12.94c.62,0,1.24,0,1.84.07a19,19,0,0,1,2.64.4A15.85,15.85,0,0,0,127,71a117.84,117.84,0,0,0-13.52-.44A118,118,0,0,0,100,71a15.85,15.85,0,0,0-11.26,6.76,19,19,0,0,1,2.64-.4C91.94,77.33,92.55,77.31,93.17,77.31Z"/><path class="cls-1" d="M89.86,128.77a8.2,8.2,0,0,1-8.21-8.45v-7.64a2.11,2.11,0,0,1,3.59-1.51l11.3,11a2.11,2.11,0,0,1,.32,2.62A8.19,8.19,0,0,1,89.86,128.77Zm-4-11.08v2.62a4.18,4.18,0,0,0,3.19,4.15,3.92,3.92,0,0,0,3.08-.65Z"/><path class="cls-1" d="M131,196.29H117.84a2.11,2.11,0,0,1-2.11-2.11v-54a2.19,2.19,0,0,0-.31-1.09,2.11,2.11,0,0,1,.36-2.56l13.75-13.44a2.11,2.11,0,0,1,3.59,1.51v69.55A2.11,2.11,0,0,1,131,196.29Zm-11.05-4.22h8.94V129.65l-9.15,8.95a6.25,6.25,0,0,1,.21,1.61Z"/><path class="cls-1" d="M137.14,128.77a8.19,8.19,0,0,1-7-3.94,2.11,2.11,0,0,1,.32-2.62l11.3-11a2.11,2.11,0,0,1,3.59,1.51v7.64a8.2,8.2,0,0,1-8.21,8.45Zm-2.28-4.95a3.89,3.89,0,0,0,3.08.65,4.18,4.18,0,0,0,3.19-4.15v-2.62Z"/><path class="cls-1" d="M180.78,196.29h-97a2.11,2.11,0,1,1,0-4.22h97a2.11,2.11,0,1,1,0,4.22Z"/><path class="cls-1" d="M51.5,196.29H46.22a2.11,2.11,0,1,1,0-4.22H51.5a2.11,2.11,0,0,1,0,4.22Z"/><path class="cls-1" d="M69.49,196.29h-9a2.11,2.11,0,1,1,0-4.22h9a2.11,2.11,0,1,1,0,4.22Z"/><path class="cls-1" d="M83.77,196.29H78.49a2.11,2.11,0,1,1,0-4.22h5.28a2.11,2.11,0,1,1,0,4.22Z"/></svg>