<svg id="Capa_1" data-name="Capa 1" xmlns="http://www.w3.org/2000/svg" viewBox="0 0 147.89 130.23"><defs><style>.cls-1{fill:#5207f2;}.cls-2{fill:#fff;}.cls-3{fill:#d7f205;}.cls-4{fill:#ab05f2;}.cls-5{fill:#23d9b7;}</style></defs><title>DA-icon</title><polygon class="cls-1" points="90.37 0.93 127.86 1 146.96 19.92 146.96 57.51 90.37 0.93"/><path class="cls-2" d="M91.6,1.43l36,.07,18.81,18.63V56.29L128.38,38.21,109.66,19.49,91.6,1.43m-2.45-1,1.74,1.74,18.06,18.06,18.72,18.72L145.74,57l1.73,1.73v-39l-.3-.3L128.36.78l-.3-.29h-.42L91.6.42Z"/><rect class="cls-1" x="33.44" y="31.73" width="26.58" height="103.56" transform="translate(-45.36 57.5) rotate(-45)"/><path class="cls-2" d="M19.51,38.21,37.16,55.85,55.23,73.92,73.94,92.64,92,110.72,73.94,128.8,55.87,110.72,37.15,92,19.07,73.93,1.43,56.29,19.51,38.21m0-1.43-.72.72L.72,55.57,0,56.29.72,57,18.36,74.65,36.43,92.72l18.72,18.72,18.08,18.08.72.72.72-.72,18.08-18.08.72-.72-.72-.72L74.66,91.93,55.94,73.21,37.87,55.14,20.23,37.49l-.72-.72Z"/><rect class="cls-3" x="42.81" y="6.3" width="26.56" height="25.97" transform="translate(2.79 45.31) rotate(-45)"/><path class="cls-2" d="M56.29,1.43,73.94,19.08,55.88,37.14,38.23,19.49,56.29,1.43m0-1.43-.72.72L37.51,18.78l-.72.72.72.72L55.16,37.86l.72.72.72-.72L74.66,19.8l.72-.72-.72-.72L57,.72,56.29,0Z"/><rect class="cls-4" x="71.2" y="61.18" width="77.99" height="26.58" transform="translate(-20.38 99.73) rotate(-45)"/><path class="cls-2" d="M128.38,38.21l18.08,18.08L128.82,73.93,110.74,92,92,110.72,73.94,92.64,92.66,73.92l18.07-18.07,17.64-17.64m0-1.43-.72.72L110,55.14,91.94,73.21,73.23,91.93l-.72.72.72.72,18.08,18.08.72.72.72-.72,18.72-18.72,18.08-18.08L147.17,57l.72-.72-.72-.72L129.09,37.49l-.72-.72Z"/><polygon class="cls-5" points="54.65 37.65 91.6 0.72 110.38 19.49 92.22 37.65 54.65 37.65"/><path class="cls-2" d="M91.6,1.43l18.06,18.06L92,37.14H55.88L73.94,19.08,91.6,1.43M91.6,0l-.72.72L73.23,18.36,55.16,36.42l-1.73,1.73h39l.3-.3,17.65-17.65.72-.72-.72-.72L92.32.72,91.6,0Z"/><polygon class="cls-4" points="0.93 19.92 20.03 1 57.52 0.93 0.93 57.51 0.93 19.92"/><path class="cls-2" d="M56.29,1.43,38.23,19.49,19.51,38.21,1.43,56.29V20.13L20.24,1.5l36-.07m2.45-1H56.29l-36,.07h-.42l-.3.29L.72,19.41l-.3.3v39L2.15,57,20.23,38.93,38.95,20.21,57,2.15,58.74.42Z"/></svg>